<?xml version="1.0" encoding="utf-8" standalone="no"?>
<!DOCTYPE svg PUBLIC "-//W3C//DTD SVG 1.1//EN"
  "http://www.w3.org/Graphics/SVG/1.1/DTD/svg11.dtd">
<svg xmlns:xlink="http://www.w3.org/1999/xlink" width="853.892448pt" height="422.889687pt" viewBox="0 0 853.892448 422.889687" xmlns="http://www.w3.org/2000/svg" version="1.1">
 <metadata>
  <rdf:RDF xmlns:dc="http://purl.org/dc/elements/1.1/" xmlns:cc="http://creativecommons.org/ns#" xmlns:rdf="http://www.w3.org/1999/02/22-rdf-syntax-ns#">
   <cc:Work>
    <dc:type rdf:resource="http://purl.org/dc/dcmitype/StillImage"/>
    <dc:date>2025-11-15T12:30:31.113814</dc:date>
    <dc:format>image/svg+xml</dc:format>
    <dc:creator>
     <cc:Agent>
      <dc:title>Matplotlib v3.10.7, https://matplotlib.org/</dc:title>
     </cc:Agent>
    </dc:creator>
   </cc:Work>
  </rdf:RDF>
 </metadata>
 <defs>
  <style type="text/css">*{stroke-linejoin: round; stroke-linecap: butt}</style>
 </defs>
 <g id="figure_1">
  <g id="patch_1">
   <path d="M 0 422.889687 
L 853.892448 422.889687 
L 853.892448 0 
L 0 0 
z
" style="fill: #ffffff"/>
  </g>
  <g id="axes_1">
   <g id="patch_2">
    <path d="M 45.810625 383.397812 
L 633.548625 383.397812 
L 633.548625 23.837812 
L 45.810625 23.837812 
z
" style="fill: #ffffff"/>
   </g>
   <g id="matplotlib.axis_1">
    <g id="xtick_1">
     <g id="line2d_1">
      <path d="M 72.525989 383.397812 
L 72.525989 23.837812 
" clip-path="url(#pe57aebeada)" style="fill: none; stroke-dasharray: 2.96,1.28; stroke-dashoffset: 0; stroke: #b0b0b0; stroke-opacity: 0.5; stroke-width: 0.8"/>
     </g>
     <g id="line2d_2">
      <defs>
       <path id="m9b8ee668b6" d="M 0 0 
L 0 3.5 
" style="stroke: #000000; stroke-width: 0.8"/>
      </defs>
      <g>
       <use xlink:href="#m9b8ee668b6" x="72.525989" y="383.397812" style="stroke: #000000; stroke-width: 0.8"/>
      </g>
     </g>
     <g id="text_1">
      <!-- 2018 -->
      <g transform="translate(59.800989 397.99625) scale(0.1 -0.1)">
       <defs>
        <path id="DejaVuSans-32" d="M 1228 531 
L 3431 531 
L 3431 0 
L 469 0 
L 469 531 
Q 828 903 1448 1529 
Q 2069 2156 2228 2338 
Q 2531 2678 2651 2914 
Q 2772 3150 2772 3378 
Q 2772 3750 2511 3984 
Q 2250 4219 1831 4219 
Q 1534 4219 1204 4116 
Q 875 4013 500 3803 
L 500 4441 
Q 881 4594 1212 4672 
Q 1544 4750 1819 4750 
Q 2544 4750 2975 4387 
Q 3406 4025 3406 3419 
Q 3406 3131 3298 2873 
Q 3191 2616 2906 2266 
Q 2828 2175 2409 1742 
Q 1991 1309 1228 531 
z
" transform="scale(0.015625)"/>
        <path id="DejaVuSans-30" d="M 2034 4250 
Q 1547 4250 1301 3770 
Q 1056 3291 1056 2328 
Q 1056 1369 1301 889 
Q 1547 409 2034 409 
Q 2525 409 2770 889 
Q 3016 1369 3016 2328 
Q 3016 3291 2770 3770 
Q 2525 4250 2034 4250 
z
M 2034 4750 
Q 2819 4750 3233 4129 
Q 3647 3509 3647 2328 
Q 3647 1150 3233 529 
Q 2819 -91 2034 -91 
Q 1250 -91 836 529 
Q 422 1150 422 2328 
Q 422 3509 836 4129 
Q 1250 4750 2034 4750 
z
" transform="scale(0.015625)"/>
        <path id="DejaVuSans-31" d="M 794 531 
L 1825 531 
L 1825 4091 
L 703 3866 
L 703 4441 
L 1819 4666 
L 2450 4666 
L 2450 531 
L 3481 531 
L 3481 0 
L 794 0 
L 794 531 
z
" transform="scale(0.015625)"/>
        <path id="DejaVuSans-38" d="M 2034 2216 
Q 1584 2216 1326 1975 
Q 1069 1734 1069 1313 
Q 1069 891 1326 650 
Q 1584 409 2034 409 
Q 2484 409 2743 651 
Q 3003 894 3003 1313 
Q 3003 1734 2745 1975 
Q 2488 2216 2034 2216 
z
M 1403 2484 
Q 997 2584 770 2862 
Q 544 3141 544 3541 
Q 544 4100 942 4425 
Q 1341 4750 2034 4750 
Q 2731 4750 3128 4425 
Q 3525 4100 3525 3541 
Q 3525 3141 3298 2862 
Q 3072 2584 2669 2484 
Q 3125 2378 3379 2068 
Q 3634 1759 3634 1313 
Q 3634 634 3220 271 
Q 2806 -91 2034 -91 
Q 1263 -91 848 271 
Q 434 634 434 1313 
Q 434 1759 690 2068 
Q 947 2378 1403 2484 
z
M 1172 3481 
Q 1172 3119 1398 2916 
Q 1625 2713 2034 2713 
Q 2441 2713 2670 2916 
Q 2900 3119 2900 3481 
Q 2900 3844 2670 4047 
Q 2441 4250 2034 4250 
Q 1625 4250 1398 4047 
Q 1172 3844 1172 3481 
z
" transform="scale(0.015625)"/>
       </defs>
       <use xlink:href="#DejaVuSans-32"/>
       <use xlink:href="#DejaVuSans-30" transform="translate(63.623047 0)"/>
       <use xlink:href="#DejaVuSans-31" transform="translate(127.246094 0)"/>
       <use xlink:href="#DejaVuSans-38" transform="translate(190.869141 0)"/>
      </g>
     </g>
    </g>
    <g id="xtick_2">
     <g id="line2d_3">
      <path d="M 179.387443 383.397812 
L 179.387443 23.837812 
" clip-path="url(#pe57aebeada)" style="fill: none; stroke-dasharray: 2.96,1.28; stroke-dashoffset: 0; stroke: #b0b0b0; stroke-opacity: 0.5; stroke-width: 0.8"/>
     </g>
     <g id="line2d_4">
      <g>
       <use xlink:href="#m9b8ee668b6" x="179.387443" y="383.397812" style="stroke: #000000; stroke-width: 0.8"/>
      </g>
     </g>
     <g id="text_2">
      <!-- 2019 -->
      <g transform="translate(166.662443 397.99625) scale(0.1 -0.1)">
       <defs>
        <path id="DejaVuSans-39" d="M 703 97 
L 703 672 
Q 941 559 1184 500 
Q 1428 441 1663 441 
Q 2288 441 2617 861 
Q 2947 1281 2994 2138 
Q 2813 1869 2534 1725 
Q 2256 1581 1919 1581 
Q 1219 1581 811 2004 
Q 403 2428 403 3163 
Q 403 3881 828 4315 
Q 1253 4750 1959 4750 
Q 2769 4750 3195 4129 
Q 3622 3509 3622 2328 
Q 3622 1225 3098 567 
Q 2575 -91 1691 -91 
Q 1453 -91 1209 -44 
Q 966 3 703 97 
z
M 1959 2075 
Q 2384 2075 2632 2365 
Q 2881 2656 2881 3163 
Q 2881 3666 2632 3958 
Q 2384 4250 1959 4250 
Q 1534 4250 1286 3958 
Q 1038 3666 1038 3163 
Q 1038 2656 1286 2365 
Q 1534 2075 1959 2075 
z
" transform="scale(0.015625)"/>
       </defs>
       <use xlink:href="#DejaVuSans-32"/>
       <use xlink:href="#DejaVuSans-30" transform="translate(63.623047 0)"/>
       <use xlink:href="#DejaVuSans-31" transform="translate(127.246094 0)"/>
       <use xlink:href="#DejaVuSans-39" transform="translate(190.869141 0)"/>
      </g>
     </g>
    </g>
    <g id="xtick_3">
     <g id="line2d_5">
      <path d="M 286.248898 383.397812 
L 286.248898 23.837812 
" clip-path="url(#pe57aebeada)" style="fill: none; stroke-dasharray: 2.96,1.28; stroke-dashoffset: 0; stroke: #b0b0b0; stroke-opacity: 0.5; stroke-width: 0.8"/>
     </g>
     <g id="line2d_6">
      <g>
       <use xlink:href="#m9b8ee668b6" x="286.248898" y="383.397812" style="stroke: #000000; stroke-width: 0.8"/>
      </g>
     </g>
     <g id="text_3">
      <!-- 2020 -->
      <g transform="translate(273.523898 397.99625) scale(0.1 -0.1)">
       <use xlink:href="#DejaVuSans-32"/>
       <use xlink:href="#DejaVuSans-30" transform="translate(63.623047 0)"/>
       <use xlink:href="#DejaVuSans-32" transform="translate(127.246094 0)"/>
       <use xlink:href="#DejaVuSans-30" transform="translate(190.869141 0)"/>
      </g>
     </g>
    </g>
    <g id="xtick_4">
     <g id="line2d_7">
      <path d="M 393.110352 383.397812 
L 393.110352 23.837812 
" clip-path="url(#pe57aebeada)" style="fill: none; stroke-dasharray: 2.96,1.28; stroke-dashoffset: 0; stroke: #b0b0b0; stroke-opacity: 0.5; stroke-width: 0.8"/>
     </g>
     <g id="line2d_8">
      <g>
       <use xlink:href="#m9b8ee668b6" x="393.110352" y="383.397812" style="stroke: #000000; stroke-width: 0.8"/>
      </g>
     </g>
     <g id="text_4">
      <!-- 2021 -->
      <g transform="translate(380.385352 397.99625) scale(0.1 -0.1)">
       <use xlink:href="#DejaVuSans-32"/>
       <use xlink:href="#DejaVuSans-30" transform="translate(63.623047 0)"/>
       <use xlink:href="#DejaVuSans-32" transform="translate(127.246094 0)"/>
       <use xlink:href="#DejaVuSans-31" transform="translate(190.869141 0)"/>
      </g>
     </g>
    </g>
    <g id="xtick_5">
     <g id="line2d_9">
      <path d="M 499.971807 383.397812 
L 499.971807 23.837812 
" clip-path="url(#pe57aebeada)" style="fill: none; stroke-dasharray: 2.96,1.28; stroke-dashoffset: 0; stroke: #b0b0b0; stroke-opacity: 0.5; stroke-width: 0.8"/>
     </g>
     <g id="line2d_10">
      <g>
       <use xlink:href="#m9b8ee668b6" x="499.971807" y="383.397812" style="stroke: #000000; stroke-width: 0.8"/>
      </g>
     </g>
     <g id="text_5">
      <!-- 2022 -->
      <g transform="translate(487.246807 397.99625) scale(0.1 -0.1)">
       <use xlink:href="#DejaVuSans-32"/>
       <use xlink:href="#DejaVuSans-30" transform="translate(63.623047 0)"/>
       <use xlink:href="#DejaVuSans-32" transform="translate(127.246094 0)"/>
       <use xlink:href="#DejaVuSans-32" transform="translate(190.869141 0)"/>
      </g>
     </g>
    </g>
    <g id="xtick_6">
     <g id="line2d_11">
      <path d="M 606.833261 383.397812 
L 606.833261 23.837812 
" clip-path="url(#pe57aebeada)" style="fill: none; stroke-dasharray: 2.96,1.28; stroke-dashoffset: 0; stroke: #b0b0b0; stroke-opacity: 0.5; stroke-width: 0.8"/>
     </g>
     <g id="line2d_12">
      <g>
       <use xlink:href="#m9b8ee668b6" x="606.833261" y="383.397812" style="stroke: #000000; stroke-width: 0.8"/>
      </g>
     </g>
     <g id="text_6">
      <!-- 2023 -->
      <g transform="translate(594.108261 397.99625) scale(0.1 -0.1)">
       <defs>
        <path id="DejaVuSans-33" d="M 2597 2516 
Q 3050 2419 3304 2112 
Q 3559 1806 3559 1356 
Q 3559 666 3084 287 
Q 2609 -91 1734 -91 
Q 1441 -91 1130 -33 
Q 819 25 488 141 
L 488 750 
Q 750 597 1062 519 
Q 1375 441 1716 441 
Q 2309 441 2620 675 
Q 2931 909 2931 1356 
Q 2931 1769 2642 2001 
Q 2353 2234 1838 2234 
L 1294 2234 
L 1294 2753 
L 1863 2753 
Q 2328 2753 2575 2939 
Q 2822 3125 2822 3475 
Q 2822 3834 2567 4026 
Q 2313 4219 1838 4219 
Q 1578 4219 1281 4162 
Q 984 4106 628 3988 
L 628 4550 
Q 988 4650 1302 4700 
Q 1616 4750 1894 4750 
Q 2613 4750 3031 4423 
Q 3450 4097 3450 3541 
Q 3450 3153 3228 2886 
Q 3006 2619 2597 2516 
z
" transform="scale(0.015625)"/>
       </defs>
       <use xlink:href="#DejaVuSans-32"/>
       <use xlink:href="#DejaVuSans-30" transform="translate(63.623047 0)"/>
       <use xlink:href="#DejaVuSans-32" transform="translate(127.246094 0)"/>
       <use xlink:href="#DejaVuSans-33" transform="translate(190.869141 0)"/>
      </g>
     </g>
    </g>
    <g id="text_7">
     <!-- Year -->
     <g transform="translate(324.80525 413.194062) scale(0.12 -0.12)">
      <defs>
       <path id="DejaVuSans-Bold-59" d="M -63 4666 
L 1253 4666 
L 2316 3003 
L 3378 4666 
L 4697 4666 
L 2919 1966 
L 2919 0 
L 1716 0 
L 1716 1966 
L -63 4666 
z
" transform="scale(0.015625)"/>
       <path id="DejaVuSans-Bold-65" d="M 4031 1759 
L 4031 1441 
L 1416 1441 
Q 1456 1047 1700 850 
Q 1944 653 2381 653 
Q 2734 653 3104 758 
Q 3475 863 3866 1075 
L 3866 213 
Q 3469 63 3072 -14 
Q 2675 -91 2278 -91 
Q 1328 -91 801 392 
Q 275 875 275 1747 
Q 275 2603 792 3093 
Q 1309 3584 2216 3584 
Q 3041 3584 3536 3087 
Q 4031 2591 4031 1759 
z
M 2881 2131 
Q 2881 2450 2695 2645 
Q 2509 2841 2209 2841 
Q 1884 2841 1681 2658 
Q 1478 2475 1428 2131 
L 2881 2131 
z
" transform="scale(0.015625)"/>
       <path id="DejaVuSans-Bold-61" d="M 2106 1575 
Q 1756 1575 1579 1456 
Q 1403 1338 1403 1106 
Q 1403 894 1545 773 
Q 1688 653 1941 653 
Q 2256 653 2472 879 
Q 2688 1106 2688 1447 
L 2688 1575 
L 2106 1575 
z
M 3816 1997 
L 3816 0 
L 2688 0 
L 2688 519 
Q 2463 200 2181 54 
Q 1900 -91 1497 -91 
Q 953 -91 614 226 
Q 275 544 275 1050 
Q 275 1666 698 1953 
Q 1122 2241 2028 2241 
L 2688 2241 
L 2688 2328 
Q 2688 2594 2478 2717 
Q 2269 2841 1825 2841 
Q 1466 2841 1156 2769 
Q 847 2697 581 2553 
L 581 3406 
Q 941 3494 1303 3539 
Q 1666 3584 2028 3584 
Q 2975 3584 3395 3211 
Q 3816 2838 3816 1997 
z
" transform="scale(0.015625)"/>
       <path id="DejaVuSans-Bold-72" d="M 3138 2547 
Q 2991 2616 2845 2648 
Q 2700 2681 2553 2681 
Q 2122 2681 1889 2404 
Q 1656 2128 1656 1613 
L 1656 0 
L 538 0 
L 538 3500 
L 1656 3500 
L 1656 2925 
Q 1872 3269 2151 3426 
Q 2431 3584 2822 3584 
Q 2878 3584 2943 3579 
Q 3009 3575 3134 3559 
L 3138 2547 
z
" transform="scale(0.015625)"/>
      </defs>
      <use xlink:href="#DejaVuSans-Bold-59"/>
      <use xlink:href="#DejaVuSans-Bold-65" transform="translate(63.287109 0)"/>
      <use xlink:href="#DejaVuSans-Bold-61" transform="translate(131.109375 0)"/>
      <use xlink:href="#DejaVuSans-Bold-72" transform="translate(198.589844 0)"/>
     </g>
    </g>
   </g>
   <g id="matplotlib.axis_2">
    <g id="ytick_1">
     <g id="line2d_13">
      <path d="M 45.810625 335.129784 
L 633.548625 335.129784 
" clip-path="url(#pe57aebeada)" style="fill: none; stroke-dasharray: 2.96,1.28; stroke-dashoffset: 0; stroke: #b0b0b0; stroke-opacity: 0.5; stroke-width: 0.8"/>
     </g>
     <g id="line2d_14">
      <defs>
       <path id="m8bc1a43719" d="M 0 0 
L -3.5 0 
" style="stroke: #000000; stroke-width: 0.8"/>
      </defs>
      <g>
       <use xlink:href="#m8bc1a43719" x="45.810625" y="335.129784" style="stroke: #000000; stroke-width: 0.8"/>
      </g>
     </g>
     <g id="text_8">
      <!-- 0.2 -->
      <g transform="translate(22.9075 338.929003) scale(0.1 -0.1)">
       <defs>
        <path id="DejaVuSans-2e" d="M 684 794 
L 1344 794 
L 1344 0 
L 684 0 
L 684 794 
z
" transform="scale(0.015625)"/>
       </defs>
       <use xlink:href="#DejaVuSans-30"/>
       <use xlink:href="#DejaVuSans-2e" transform="translate(63.623047 0)"/>
       <use xlink:href="#DejaVuSans-32" transform="translate(95.410156 0)"/>
      </g>
     </g>
    </g>
    <g id="ytick_2">
     <g id="line2d_15">
      <path d="M 45.810625 265.059837 
L 633.548625 265.059837 
" clip-path="url(#pe57aebeada)" style="fill: none; stroke-dasharray: 2.96,1.28; stroke-dashoffset: 0; stroke: #b0b0b0; stroke-opacity: 0.5; stroke-width: 0.8"/>
     </g>
     <g id="line2d_16">
      <g>
       <use xlink:href="#m8bc1a43719" x="45.810625" y="265.059837" style="stroke: #000000; stroke-width: 0.8"/>
      </g>
     </g>
     <g id="text_9">
      <!-- 0.4 -->
      <g transform="translate(22.9075 268.859056) scale(0.1 -0.1)">
       <defs>
        <path id="DejaVuSans-34" d="M 2419 4116 
L 825 1625 
L 2419 1625 
L 2419 4116 
z
M 2253 4666 
L 3047 4666 
L 3047 1625 
L 3713 1625 
L 3713 1100 
L 3047 1100 
L 3047 0 
L 2419 0 
L 2419 1100 
L 313 1100 
L 313 1709 
L 2253 4666 
z
" transform="scale(0.015625)"/>
       </defs>
       <use xlink:href="#DejaVuSans-30"/>
       <use xlink:href="#DejaVuSans-2e" transform="translate(63.623047 0)"/>
       <use xlink:href="#DejaVuSans-34" transform="translate(95.410156 0)"/>
      </g>
     </g>
    </g>
    <g id="ytick_3">
     <g id="line2d_17">
      <path d="M 45.810625 194.989891 
L 633.548625 194.989891 
" clip-path="url(#pe57aebeada)" style="fill: none; stroke-dasharray: 2.96,1.28; stroke-dashoffset: 0; stroke: #b0b0b0; stroke-opacity: 0.5; stroke-width: 0.8"/>
     </g>
     <g id="line2d_18">
      <g>
       <use xlink:href="#m8bc1a43719" x="45.810625" y="194.989891" style="stroke: #000000; stroke-width: 0.8"/>
      </g>
     </g>
     <g id="text_10">
      <!-- 0.6 -->
      <g transform="translate(22.9075 198.789109) scale(0.1 -0.1)">
       <defs>
        <path id="DejaVuSans-36" d="M 2113 2584 
Q 1688 2584 1439 2293 
Q 1191 2003 1191 1497 
Q 1191 994 1439 701 
Q 1688 409 2113 409 
Q 2538 409 2786 701 
Q 3034 994 3034 1497 
Q 3034 2003 2786 2293 
Q 2538 2584 2113 2584 
z
M 3366 4563 
L 3366 3988 
Q 3128 4100 2886 4159 
Q 2644 4219 2406 4219 
Q 1781 4219 1451 3797 
Q 1122 3375 1075 2522 
Q 1259 2794 1537 2939 
Q 1816 3084 2150 3084 
Q 2853 3084 3261 2657 
Q 3669 2231 3669 1497 
Q 3669 778 3244 343 
Q 2819 -91 2113 -91 
Q 1303 -91 875 529 
Q 447 1150 447 2328 
Q 447 3434 972 4092 
Q 1497 4750 2381 4750 
Q 2619 4750 2861 4703 
Q 3103 4656 3366 4563 
z
" transform="scale(0.015625)"/>
       </defs>
       <use xlink:href="#DejaVuSans-30"/>
       <use xlink:href="#DejaVuSans-2e" transform="translate(63.623047 0)"/>
       <use xlink:href="#DejaVuSans-36" transform="translate(95.410156 0)"/>
      </g>
     </g>
    </g>
    <g id="ytick_4">
     <g id="line2d_19">
      <path d="M 45.810625 124.919944 
L 633.548625 124.919944 
" clip-path="url(#pe57aebeada)" style="fill: none; stroke-dasharray: 2.96,1.28; stroke-dashoffset: 0; stroke: #b0b0b0; stroke-opacity: 0.5; stroke-width: 0.8"/>
     </g>
     <g id="line2d_20">
      <g>
       <use xlink:href="#m8bc1a43719" x="45.810625" y="124.919944" style="stroke: #000000; stroke-width: 0.8"/>
      </g>
     </g>
     <g id="text_11">
      <!-- 0.8 -->
      <g transform="translate(22.9075 128.719162) scale(0.1 -0.1)">
       <use xlink:href="#DejaVuSans-30"/>
       <use xlink:href="#DejaVuSans-2e" transform="translate(63.623047 0)"/>
       <use xlink:href="#DejaVuSans-38" transform="translate(95.410156 0)"/>
      </g>
     </g>
    </g>
    <g id="ytick_5">
     <g id="line2d_21">
      <path d="M 45.810625 54.849997 
L 633.548625 54.849997 
" clip-path="url(#pe57aebeada)" style="fill: none; stroke-dasharray: 2.96,1.28; stroke-dashoffset: 0; stroke: #b0b0b0; stroke-opacity: 0.5; stroke-width: 0.8"/>
     </g>
     <g id="line2d_22">
      <g>
       <use xlink:href="#m8bc1a43719" x="45.810625" y="54.849997" style="stroke: #000000; stroke-width: 0.8"/>
      </g>
     </g>
     <g id="text_12">
      <!-- 1.0 -->
      <g transform="translate(22.9075 58.649215) scale(0.1 -0.1)">
       <use xlink:href="#DejaVuSans-31"/>
       <use xlink:href="#DejaVuSans-2e" transform="translate(63.623047 0)"/>
       <use xlink:href="#DejaVuSans-30" transform="translate(95.410156 0)"/>
      </g>
     </g>
    </g>
    <g id="text_13">
     <!-- Alignment Index -->
     <g transform="translate(16.318125 259.228437) rotate(-90) scale(0.12 -0.12)">
      <defs>
       <path id="DejaVuSans-Bold-41" d="M 3419 850 
L 1538 850 
L 1241 0 
L 31 0 
L 1759 4666 
L 3194 4666 
L 4922 0 
L 3713 0 
L 3419 850 
z
M 1838 1716 
L 3116 1716 
L 2478 3572 
L 1838 1716 
z
" transform="scale(0.015625)"/>
       <path id="DejaVuSans-Bold-6c" d="M 538 4863 
L 1656 4863 
L 1656 0 
L 538 0 
L 538 4863 
z
" transform="scale(0.015625)"/>
       <path id="DejaVuSans-Bold-69" d="M 538 3500 
L 1656 3500 
L 1656 0 
L 538 0 
L 538 3500 
z
M 538 4863 
L 1656 4863 
L 1656 3950 
L 538 3950 
L 538 4863 
z
" transform="scale(0.015625)"/>
       <path id="DejaVuSans-Bold-67" d="M 2919 594 
Q 2688 288 2409 144 
Q 2131 0 1766 0 
Q 1125 0 706 504 
Q 288 1009 288 1791 
Q 288 2575 706 3076 
Q 1125 3578 1766 3578 
Q 2131 3578 2409 3434 
Q 2688 3291 2919 2981 
L 2919 3500 
L 4044 3500 
L 4044 353 
Q 4044 -491 3511 -936 
Q 2978 -1381 1966 -1381 
Q 1638 -1381 1331 -1331 
Q 1025 -1281 716 -1178 
L 716 -306 
Q 1009 -475 1290 -558 
Q 1572 -641 1856 -641 
Q 2406 -641 2662 -400 
Q 2919 -159 2919 353 
L 2919 594 
z
M 2181 2772 
Q 1834 2772 1640 2515 
Q 1447 2259 1447 1791 
Q 1447 1309 1634 1061 
Q 1822 813 2181 813 
Q 2531 813 2725 1069 
Q 2919 1325 2919 1791 
Q 2919 2259 2725 2515 
Q 2531 2772 2181 2772 
z
" transform="scale(0.015625)"/>
       <path id="DejaVuSans-Bold-6e" d="M 4056 2131 
L 4056 0 
L 2931 0 
L 2931 347 
L 2931 1631 
Q 2931 2084 2911 2256 
Q 2891 2428 2841 2509 
Q 2775 2619 2662 2680 
Q 2550 2741 2406 2741 
Q 2056 2741 1856 2470 
Q 1656 2200 1656 1722 
L 1656 0 
L 538 0 
L 538 3500 
L 1656 3500 
L 1656 2988 
Q 1909 3294 2193 3439 
Q 2478 3584 2822 3584 
Q 3428 3584 3742 3212 
Q 4056 2841 4056 2131 
z
" transform="scale(0.015625)"/>
       <path id="DejaVuSans-Bold-6d" d="M 3781 2919 
Q 3994 3244 4286 3414 
Q 4578 3584 4928 3584 
Q 5531 3584 5847 3212 
Q 6163 2841 6163 2131 
L 6163 0 
L 5038 0 
L 5038 1825 
Q 5041 1866 5042 1909 
Q 5044 1953 5044 2034 
Q 5044 2406 4934 2573 
Q 4825 2741 4581 2741 
Q 4263 2741 4089 2478 
Q 3916 2216 3909 1719 
L 3909 0 
L 2784 0 
L 2784 1825 
Q 2784 2406 2684 2573 
Q 2584 2741 2328 2741 
Q 2006 2741 1831 2477 
Q 1656 2213 1656 1722 
L 1656 0 
L 531 0 
L 531 3500 
L 1656 3500 
L 1656 2988 
Q 1863 3284 2130 3434 
Q 2397 3584 2719 3584 
Q 3081 3584 3359 3409 
Q 3638 3234 3781 2919 
z
" transform="scale(0.015625)"/>
       <path id="DejaVuSans-Bold-74" d="M 1759 4494 
L 1759 3500 
L 2913 3500 
L 2913 2700 
L 1759 2700 
L 1759 1216 
Q 1759 972 1856 886 
Q 1953 800 2241 800 
L 2816 800 
L 2816 0 
L 1856 0 
Q 1194 0 917 276 
Q 641 553 641 1216 
L 641 2700 
L 84 2700 
L 84 3500 
L 641 3500 
L 641 4494 
L 1759 4494 
z
" transform="scale(0.015625)"/>
       <path id="DejaVuSans-Bold-20" transform="scale(0.015625)"/>
       <path id="DejaVuSans-Bold-49" d="M 588 4666 
L 1791 4666 
L 1791 0 
L 588 0 
L 588 4666 
z
" transform="scale(0.015625)"/>
       <path id="DejaVuSans-Bold-64" d="M 2919 2988 
L 2919 4863 
L 4044 4863 
L 4044 0 
L 2919 0 
L 2919 506 
Q 2688 197 2409 53 
Q 2131 -91 1766 -91 
Q 1119 -91 703 423 
Q 288 938 288 1747 
Q 288 2556 703 3070 
Q 1119 3584 1766 3584 
Q 2128 3584 2408 3439 
Q 2688 3294 2919 2988 
z
M 2181 722 
Q 2541 722 2730 984 
Q 2919 1247 2919 1747 
Q 2919 2247 2730 2509 
Q 2541 2772 2181 2772 
Q 1825 2772 1636 2509 
Q 1447 2247 1447 1747 
Q 1447 1247 1636 984 
Q 1825 722 2181 722 
z
" transform="scale(0.015625)"/>
       <path id="DejaVuSans-Bold-78" d="M 1422 1791 
L 159 3500 
L 1344 3500 
L 2059 2463 
L 2784 3500 
L 3969 3500 
L 2706 1797 
L 4031 0 
L 2847 0 
L 2059 1106 
L 1281 0 
L 97 0 
L 1422 1791 
z
" transform="scale(0.015625)"/>
      </defs>
      <use xlink:href="#DejaVuSans-Bold-41"/>
      <use xlink:href="#DejaVuSans-Bold-6c" transform="translate(77.392578 0)"/>
      <use xlink:href="#DejaVuSans-Bold-69" transform="translate(111.669922 0)"/>
      <use xlink:href="#DejaVuSans-Bold-67" transform="translate(145.947266 0)"/>
      <use xlink:href="#DejaVuSans-Bold-6e" transform="translate(217.529297 0)"/>
      <use xlink:href="#DejaVuSans-Bold-6d" transform="translate(288.720703 0)"/>
      <use xlink:href="#DejaVuSans-Bold-65" transform="translate(392.919922 0)"/>
      <use xlink:href="#DejaVuSans-Bold-6e" transform="translate(460.742188 0)"/>
      <use xlink:href="#DejaVuSans-Bold-74" transform="translate(531.933594 0)"/>
      <use xlink:href="#DejaVuSans-Bold-20" transform="translate(579.736328 0)"/>
      <use xlink:href="#DejaVuSans-Bold-49" transform="translate(614.550781 0)"/>
      <use xlink:href="#DejaVuSans-Bold-6e" transform="translate(651.757812 0)"/>
      <use xlink:href="#DejaVuSans-Bold-64" transform="translate(722.949219 0)"/>
      <use xlink:href="#DejaVuSans-Bold-65" transform="translate(794.53125 0)"/>
      <use xlink:href="#DejaVuSans-Bold-78" transform="translate(862.353516 0)"/>
     </g>
    </g>
   </g>
   <g id="line2d_23">
    <path d="M 72.525989 262.698364 
L 179.387443 260.727669 
L 286.248898 211.27681 
L 393.110352 280.989408 
L 499.971807 305.56416 
L 606.833261 295.929363 
" clip-path="url(#pe57aebeada)" style="fill: none; stroke: #1f77b4; stroke-width: 2; stroke-linecap: square"/>
    <defs>
     <path id="m6c9c934d3e" d="M 0 3 
C 0.795609 3 1.55874 2.683901 2.12132 2.12132 
C 2.683901 1.55874 3 0.795609 3 0 
C 3 -0.795609 2.683901 -1.55874 2.12132 -2.12132 
C 1.55874 -2.683901 0.795609 -3 0 -3 
C -0.795609 -3 -1.55874 -2.683901 -2.12132 -2.12132 
C -2.683901 -1.55874 -3 -0.795609 -3 0 
C -3 0.795609 -2.683901 1.55874 -2.12132 2.12132 
C -1.55874 2.683901 -0.795609 3 0 3 
z
" style="stroke: #1f77b4"/>
    </defs>
    <g clip-path="url(#pe57aebeada)">
     <use xlink:href="#m6c9c934d3e" x="72.525989" y="262.698364" style="fill: #1f77b4; stroke: #1f77b4"/>
     <use xlink:href="#m6c9c934d3e" x="179.387443" y="260.727669" style="fill: #1f77b4; stroke: #1f77b4"/>
     <use xlink:href="#m6c9c934d3e" x="286.248898" y="211.27681" style="fill: #1f77b4; stroke: #1f77b4"/>
     <use xlink:href="#m6c9c934d3e" x="393.110352" y="280.989408" style="fill: #1f77b4; stroke: #1f77b4"/>
     <use xlink:href="#m6c9c934d3e" x="499.971807" y="305.56416" style="fill: #1f77b4; stroke: #1f77b4"/>
     <use xlink:href="#m6c9c934d3e" x="606.833261" y="295.929363" style="fill: #1f77b4; stroke: #1f77b4"/>
    </g>
   </g>
   <g id="line2d_24">
    <path d="M 72.525989 283.041364 
L 179.387443 292.75415 
L 286.248898 253.798596 
L 393.110352 308.463354 
L 499.971807 337.583497 
L 606.833261 321.63309 
" clip-path="url(#pe57aebeada)" style="fill: none; stroke: #ff7f0e; stroke-width: 2; stroke-linecap: square"/>
    <defs>
     <path id="m4c0a70ffff" d="M 0 3 
C 0.795609 3 1.55874 2.683901 2.12132 2.12132 
C 2.683901 1.55874 3 0.795609 3 0 
C 3 -0.795609 2.683901 -1.55874 2.12132 -2.12132 
C 1.55874 -2.683901 0.795609 -3 0 -3 
C -0.795609 -3 -1.55874 -2.683901 -2.12132 -2.12132 
C -2.683901 -1.55874 -3 -0.795609 -3 0 
C -3 0.795609 -2.683901 1.55874 -2.12132 2.12132 
C -1.55874 2.683901 -0.795609 3 0 3 
z
" style="stroke: #ff7f0e"/>
    </defs>
    <g clip-path="url(#pe57aebeada)">
     <use xlink:href="#m4c0a70ffff" x="72.525989" y="283.041364" style="fill: #ff7f0e; stroke: #ff7f0e"/>
     <use xlink:href="#m4c0a70ffff" x="179.387443" y="292.75415" style="fill: #ff7f0e; stroke: #ff7f0e"/>
     <use xlink:href="#m4c0a70ffff" x="286.248898" y="253.798596" style="fill: #ff7f0e; stroke: #ff7f0e"/>
     <use xlink:href="#m4c0a70ffff" x="393.110352" y="308.463354" style="fill: #ff7f0e; stroke: #ff7f0e"/>
     <use xlink:href="#m4c0a70ffff" x="499.971807" y="337.583497" style="fill: #ff7f0e; stroke: #ff7f0e"/>
     <use xlink:href="#m4c0a70ffff" x="606.833261" y="321.63309" style="fill: #ff7f0e; stroke: #ff7f0e"/>
    </g>
   </g>
   <g id="line2d_25">
    <path d="M 72.525989 190.994783 
L 179.387443 187.543343 
L 286.248898 41.74816 
L 393.110352 187.982896 
L 499.971807 254.853454 
L 606.833261 254.945393 
" clip-path="url(#pe57aebeada)" style="fill: none; stroke: #2ca02c; stroke-width: 2; stroke-linecap: square"/>
    <defs>
     <path id="mda561c1b00" d="M 0 3 
C 0.795609 3 1.55874 2.683901 2.12132 2.12132 
C 2.683901 1.55874 3 0.795609 3 0 
C 3 -0.795609 2.683901 -1.55874 2.12132 -2.12132 
C 1.55874 -2.683901 0.795609 -3 0 -3 
C -0.795609 -3 -1.55874 -2.683901 -2.12132 -2.12132 
C -2.683901 -1.55874 -3 -0.795609 -3 0 
C -3 0.795609 -2.683901 1.55874 -2.12132 2.12132 
C -1.55874 2.683901 -0.795609 3 0 3 
z
" style="stroke: #2ca02c"/>
    </defs>
    <g clip-path="url(#pe57aebeada)">
     <use xlink:href="#mda561c1b00" x="72.525989" y="190.994783" style="fill: #2ca02c; stroke: #2ca02c"/>
     <use xlink:href="#mda561c1b00" x="179.387443" y="187.543343" style="fill: #2ca02c; stroke: #2ca02c"/>
     <use xlink:href="#mda561c1b00" x="286.248898" y="41.74816" style="fill: #2ca02c; stroke: #2ca02c"/>
     <use xlink:href="#mda561c1b00" x="393.110352" y="187.982896" style="fill: #2ca02c; stroke: #2ca02c"/>
     <use xlink:href="#mda561c1b00" x="499.971807" y="254.853454" style="fill: #2ca02c; stroke: #2ca02c"/>
     <use xlink:href="#mda561c1b00" x="606.833261" y="254.945393" style="fill: #2ca02c; stroke: #2ca02c"/>
    </g>
   </g>
   <g id="line2d_26">
    <path d="M 72.525989 215.009875 
L 179.387443 163.188915 
L 286.248898 155.420979 
L 393.110352 280.328811 
L 499.971807 237.031859 
L 606.833261 249.397143 
" clip-path="url(#pe57aebeada)" style="fill: none; stroke: #d62728; stroke-width: 2; stroke-linecap: square"/>
    <defs>
     <path id="meb57660bb1" d="M 0 3 
C 0.795609 3 1.55874 2.683901 2.12132 2.12132 
C 2.683901 1.55874 3 0.795609 3 0 
C 3 -0.795609 2.683901 -1.55874 2.12132 -2.12132 
C 1.55874 -2.683901 0.795609 -3 0 -3 
C -0.795609 -3 -1.55874 -2.683901 -2.12132 -2.12132 
C -2.683901 -1.55874 -3 -0.795609 -3 0 
C -3 0.795609 -2.683901 1.55874 -2.12132 2.12132 
C -1.55874 2.683901 -0.795609 3 0 3 
z
" style="stroke: #d62728"/>
    </defs>
    <g clip-path="url(#pe57aebeada)">
     <use xlink:href="#meb57660bb1" x="72.525989" y="215.009875" style="fill: #d62728; stroke: #d62728"/>
     <use xlink:href="#meb57660bb1" x="179.387443" y="163.188915" style="fill: #d62728; stroke: #d62728"/>
     <use xlink:href="#meb57660bb1" x="286.248898" y="155.420979" style="fill: #d62728; stroke: #d62728"/>
     <use xlink:href="#meb57660bb1" x="393.110352" y="280.328811" style="fill: #d62728; stroke: #d62728"/>
     <use xlink:href="#meb57660bb1" x="499.971807" y="237.031859" style="fill: #d62728; stroke: #d62728"/>
     <use xlink:href="#meb57660bb1" x="606.833261" y="249.397143" style="fill: #d62728; stroke: #d62728"/>
    </g>
   </g>
   <g id="line2d_27">
    <path d="M 72.525989 266.811586 
L 179.387443 270.128727 
L 286.248898 241.576936 
L 393.110352 316.444465 
L 499.971807 331.095454 
L 606.833261 313.681545 
" clip-path="url(#pe57aebeada)" style="fill: none; stroke: #9467bd; stroke-width: 2; stroke-linecap: square"/>
    <defs>
     <path id="m75239eadc0" d="M 0 3 
C 0.795609 3 1.55874 2.683901 2.12132 2.12132 
C 2.683901 1.55874 3 0.795609 3 0 
C 3 -0.795609 2.683901 -1.55874 2.12132 -2.12132 
C 1.55874 -2.683901 0.795609 -3 0 -3 
C -0.795609 -3 -1.55874 -2.683901 -2.12132 -2.12132 
C -2.683901 -1.55874 -3 -0.795609 -3 0 
C -3 0.795609 -2.683901 1.55874 -2.12132 2.12132 
C -1.55874 2.683901 -0.795609 3 0 3 
z
" style="stroke: #9467bd"/>
    </defs>
    <g clip-path="url(#pe57aebeada)">
     <use xlink:href="#m75239eadc0" x="72.525989" y="266.811586" style="fill: #9467bd; stroke: #9467bd"/>
     <use xlink:href="#m75239eadc0" x="179.387443" y="270.128727" style="fill: #9467bd; stroke: #9467bd"/>
     <use xlink:href="#m75239eadc0" x="286.248898" y="241.576936" style="fill: #9467bd; stroke: #9467bd"/>
     <use xlink:href="#m75239eadc0" x="393.110352" y="316.444465" style="fill: #9467bd; stroke: #9467bd"/>
     <use xlink:href="#m75239eadc0" x="499.971807" y="331.095454" style="fill: #9467bd; stroke: #9467bd"/>
     <use xlink:href="#m75239eadc0" x="606.833261" y="313.681545" style="fill: #9467bd; stroke: #9467bd"/>
    </g>
   </g>
   <g id="line2d_28">
    <path d="M 72.525989 143.490769 
L 179.387443 159.084483 
L 286.248898 40.181449 
L 393.110352 159.757537 
L 499.971807 229.229678 
L 606.833261 227.130287 
" clip-path="url(#pe57aebeada)" style="fill: none; stroke: #8c564b; stroke-width: 2; stroke-linecap: square"/>
    <defs>
     <path id="m644efb8db6" d="M 0 3 
C 0.795609 3 1.55874 2.683901 2.12132 2.12132 
C 2.683901 1.55874 3 0.795609 3 0 
C 3 -0.795609 2.683901 -1.55874 2.12132 -2.12132 
C 1.55874 -2.683901 0.795609 -3 0 -3 
C -0.795609 -3 -1.55874 -2.683901 -2.12132 -2.12132 
C -2.683901 -1.55874 -3 -0.795609 -3 0 
C -3 0.795609 -2.683901 1.55874 -2.12132 2.12132 
C -1.55874 2.683901 -0.795609 3 0 3 
z
" style="stroke: #8c564b"/>
    </defs>
    <g clip-path="url(#pe57aebeada)">
     <use xlink:href="#m644efb8db6" x="72.525989" y="143.490769" style="fill: #8c564b; stroke: #8c564b"/>
     <use xlink:href="#m644efb8db6" x="179.387443" y="159.084483" style="fill: #8c564b; stroke: #8c564b"/>
     <use xlink:href="#m644efb8db6" x="286.248898" y="40.181449" style="fill: #8c564b; stroke: #8c564b"/>
     <use xlink:href="#m644efb8db6" x="393.110352" y="159.757537" style="fill: #8c564b; stroke: #8c564b"/>
     <use xlink:href="#m644efb8db6" x="499.971807" y="229.229678" style="fill: #8c564b; stroke: #8c564b"/>
     <use xlink:href="#m644efb8db6" x="606.833261" y="227.130287" style="fill: #8c564b; stroke: #8c564b"/>
    </g>
   </g>
   <g id="line2d_29">
    <path d="M 72.525989 362.085264 
L 179.387443 362.879953 
L 286.248898 344.164527 
L 393.110352 358.770775 
L 499.971807 367.054176 
L 606.833261 355.263807 
" clip-path="url(#pe57aebeada)" style="fill: none; stroke: #e377c2; stroke-width: 2; stroke-linecap: square"/>
    <defs>
     <path id="m7053a41805" d="M 0 3 
C 0.795609 3 1.55874 2.683901 2.12132 2.12132 
C 2.683901 1.55874 3 0.795609 3 0 
C 3 -0.795609 2.683901 -1.55874 2.12132 -2.12132 
C 1.55874 -2.683901 0.795609 -3 0 -3 
C -0.795609 -3 -1.55874 -2.683901 -2.12132 -2.12132 
C -2.683901 -1.55874 -3 -0.795609 -3 0 
C -3 0.795609 -2.683901 1.55874 -2.12132 2.12132 
C -1.55874 2.683901 -0.795609 3 0 3 
z
" style="stroke: #e377c2"/>
    </defs>
    <g clip-path="url(#pe57aebeada)">
     <use xlink:href="#m7053a41805" x="72.525989" y="362.085264" style="fill: #e377c2; stroke: #e377c2"/>
     <use xlink:href="#m7053a41805" x="179.387443" y="362.879953" style="fill: #e377c2; stroke: #e377c2"/>
     <use xlink:href="#m7053a41805" x="286.248898" y="344.164527" style="fill: #e377c2; stroke: #e377c2"/>
     <use xlink:href="#m7053a41805" x="393.110352" y="358.770775" style="fill: #e377c2; stroke: #e377c2"/>
     <use xlink:href="#m7053a41805" x="499.971807" y="367.054176" style="fill: #e377c2; stroke: #e377c2"/>
     <use xlink:href="#m7053a41805" x="606.833261" y="355.263807" style="fill: #e377c2; stroke: #e377c2"/>
    </g>
   </g>
   <g id="line2d_30">
    <path d="M 45.810625 54.849997 
L 633.548625 54.849997 
" clip-path="url(#pe57aebeada)" style="fill: none; stroke-dasharray: 3.7,1.6; stroke-dashoffset: 0; stroke: #808080"/>
   </g>
   <g id="patch_3">
    <path d="M 45.810625 383.397812 
L 45.810625 23.837812 
" style="fill: none; stroke: #000000; stroke-width: 0.8; stroke-linejoin: miter; stroke-linecap: square"/>
   </g>
   <g id="patch_4">
    <path d="M 633.548625 383.397812 
L 633.548625 23.837812 
" style="fill: none; stroke: #000000; stroke-width: 0.8; stroke-linejoin: miter; stroke-linecap: square"/>
   </g>
   <g id="patch_5">
    <path d="M 45.810625 383.397812 
L 633.548625 383.397812 
" style="fill: none; stroke: #000000; stroke-width: 0.8; stroke-linejoin: miter; stroke-linecap: square"/>
   </g>
   <g id="patch_6">
    <path d="M 45.810625 23.837812 
L 633.548625 23.837812 
" style="fill: none; stroke: #000000; stroke-width: 0.8; stroke-linejoin: miter; stroke-linecap: square"/>
   </g>
   <g id="text_14">
    <!-- Sector Alignment Index Over Time -->
    <g transform="translate(204.013063 17.837812) scale(0.14 -0.14)">
     <defs>
      <path id="DejaVuSans-Bold-53" d="M 3834 4519 
L 3834 3531 
Q 3450 3703 3084 3790 
Q 2719 3878 2394 3878 
Q 1963 3878 1756 3759 
Q 1550 3641 1550 3391 
Q 1550 3203 1689 3098 
Q 1828 2994 2194 2919 
L 2706 2816 
Q 3484 2659 3812 2340 
Q 4141 2022 4141 1434 
Q 4141 663 3683 286 
Q 3225 -91 2284 -91 
Q 1841 -91 1394 -6 
Q 947 78 500 244 
L 500 1259 
Q 947 1022 1364 901 
Q 1781 781 2169 781 
Q 2563 781 2772 912 
Q 2981 1044 2981 1288 
Q 2981 1506 2839 1625 
Q 2697 1744 2272 1838 
L 1806 1941 
Q 1106 2091 782 2419 
Q 459 2747 459 3303 
Q 459 4000 909 4375 
Q 1359 4750 2203 4750 
Q 2588 4750 2994 4692 
Q 3400 4634 3834 4519 
z
" transform="scale(0.015625)"/>
      <path id="DejaVuSans-Bold-63" d="M 3366 3391 
L 3366 2478 
Q 3138 2634 2908 2709 
Q 2678 2784 2431 2784 
Q 1963 2784 1702 2511 
Q 1441 2238 1441 1747 
Q 1441 1256 1702 982 
Q 1963 709 2431 709 
Q 2694 709 2930 787 
Q 3166 866 3366 1019 
L 3366 103 
Q 3103 6 2833 -42 
Q 2563 -91 2291 -91 
Q 1344 -91 809 395 
Q 275 881 275 1747 
Q 275 2613 809 3098 
Q 1344 3584 2291 3584 
Q 2566 3584 2833 3536 
Q 3100 3488 3366 3391 
z
" transform="scale(0.015625)"/>
      <path id="DejaVuSans-Bold-6f" d="M 2203 2784 
Q 1831 2784 1636 2517 
Q 1441 2250 1441 1747 
Q 1441 1244 1636 976 
Q 1831 709 2203 709 
Q 2569 709 2762 976 
Q 2956 1244 2956 1747 
Q 2956 2250 2762 2517 
Q 2569 2784 2203 2784 
z
M 2203 3584 
Q 3106 3584 3614 3096 
Q 4122 2609 4122 1747 
Q 4122 884 3614 396 
Q 3106 -91 2203 -91 
Q 1297 -91 786 396 
Q 275 884 275 1747 
Q 275 2609 786 3096 
Q 1297 3584 2203 3584 
z
" transform="scale(0.015625)"/>
      <path id="DejaVuSans-Bold-4f" d="M 2719 3878 
Q 2169 3878 1866 3472 
Q 1563 3066 1563 2328 
Q 1563 1594 1866 1187 
Q 2169 781 2719 781 
Q 3272 781 3575 1187 
Q 3878 1594 3878 2328 
Q 3878 3066 3575 3472 
Q 3272 3878 2719 3878 
z
M 2719 4750 
Q 3844 4750 4481 4106 
Q 5119 3463 5119 2328 
Q 5119 1197 4481 553 
Q 3844 -91 2719 -91 
Q 1597 -91 958 553 
Q 319 1197 319 2328 
Q 319 3463 958 4106 
Q 1597 4750 2719 4750 
z
" transform="scale(0.015625)"/>
      <path id="DejaVuSans-Bold-76" d="M 97 3500 
L 1216 3500 
L 2088 1081 
L 2956 3500 
L 4078 3500 
L 2700 0 
L 1472 0 
L 97 3500 
z
" transform="scale(0.015625)"/>
      <path id="DejaVuSans-Bold-54" d="M 31 4666 
L 4331 4666 
L 4331 3756 
L 2784 3756 
L 2784 0 
L 1581 0 
L 1581 3756 
L 31 3756 
L 31 4666 
z
" transform="scale(0.015625)"/>
     </defs>
     <use xlink:href="#DejaVuSans-Bold-53"/>
     <use xlink:href="#DejaVuSans-Bold-65" transform="translate(72.021484 0)"/>
     <use xlink:href="#DejaVuSans-Bold-63" transform="translate(139.84375 0)"/>
     <use xlink:href="#DejaVuSans-Bold-74" transform="translate(199.121094 0)"/>
     <use xlink:href="#DejaVuSans-Bold-6f" transform="translate(246.923828 0)"/>
     <use xlink:href="#DejaVuSans-Bold-72" transform="translate(315.625 0)"/>
     <use xlink:href="#DejaVuSans-Bold-20" transform="translate(364.941406 0)"/>
     <use xlink:href="#DejaVuSans-Bold-41" transform="translate(399.755859 0)"/>
     <use xlink:href="#DejaVuSans-Bold-6c" transform="translate(477.148438 0)"/>
     <use xlink:href="#DejaVuSans-Bold-69" transform="translate(511.425781 0)"/>
     <use xlink:href="#DejaVuSans-Bold-67" transform="translate(545.703125 0)"/>
     <use xlink:href="#DejaVuSans-Bold-6e" transform="translate(617.285156 0)"/>
     <use xlink:href="#DejaVuSans-Bold-6d" transform="translate(688.476562 0)"/>
     <use xlink:href="#DejaVuSans-Bold-65" transform="translate(792.675781 0)"/>
     <use xlink:href="#DejaVuSans-Bold-6e" transform="translate(860.498047 0)"/>
     <use xlink:href="#DejaVuSans-Bold-74" transform="translate(931.689453 0)"/>
     <use xlink:href="#DejaVuSans-Bold-20" transform="translate(979.492188 0)"/>
     <use xlink:href="#DejaVuSans-Bold-49" transform="translate(1014.306641 0)"/>
     <use xlink:href="#DejaVuSans-Bold-6e" transform="translate(1051.513672 0)"/>
     <use xlink:href="#DejaVuSans-Bold-64" transform="translate(1122.705078 0)"/>
     <use xlink:href="#DejaVuSans-Bold-65" transform="translate(1194.287109 0)"/>
     <use xlink:href="#DejaVuSans-Bold-78" transform="translate(1262.109375 0)"/>
     <use xlink:href="#DejaVuSans-Bold-20" transform="translate(1326.611328 0)"/>
     <use xlink:href="#DejaVuSans-Bold-4f" transform="translate(1361.425781 0)"/>
     <use xlink:href="#DejaVuSans-Bold-76" transform="translate(1446.435547 0)"/>
     <use xlink:href="#DejaVuSans-Bold-65" transform="translate(1511.621094 0)"/>
     <use xlink:href="#DejaVuSans-Bold-72" transform="translate(1579.443359 0)"/>
     <use xlink:href="#DejaVuSans-Bold-20" transform="translate(1628.759766 0)"/>
     <use xlink:href="#DejaVuSans-Bold-54" transform="translate(1663.574219 0)"/>
     <use xlink:href="#DejaVuSans-Bold-69" transform="translate(1731.787109 0)"/>
     <use xlink:href="#DejaVuSans-Bold-6d" transform="translate(1766.064453 0)"/>
     <use xlink:href="#DejaVuSans-Bold-65" transform="translate(1870.263672 0)"/>
    </g>
   </g>
   <g id="legend_1">
    <g id="line2d_31">
     <path d="M 654.303385 36.93625 
L 664.303385 36.93625 
L 674.303385 36.93625 
" style="fill: none; stroke: #1f77b4; stroke-width: 2; stroke-linecap: square"/>
     <g>
      <use xlink:href="#m6c9c934d3e" x="664.303385" y="36.93625" style="fill: #1f77b4; stroke: #1f77b4"/>
     </g>
    </g>
    <g id="text_15">
     <!-- Manufacturing -->
     <g transform="translate(682.303385 40.43625) scale(0.1 -0.1)">
      <defs>
       <path id="DejaVuSans-4d" d="M 628 4666 
L 1569 4666 
L 2759 1491 
L 3956 4666 
L 4897 4666 
L 4897 0 
L 4281 0 
L 4281 4097 
L 3078 897 
L 2444 897 
L 1241 4097 
L 1241 0 
L 628 0 
L 628 4666 
z
" transform="scale(0.015625)"/>
       <path id="DejaVuSans-61" d="M 2194 1759 
Q 1497 1759 1228 1600 
Q 959 1441 959 1056 
Q 959 750 1161 570 
Q 1363 391 1709 391 
Q 2188 391 2477 730 
Q 2766 1069 2766 1631 
L 2766 1759 
L 2194 1759 
z
M 3341 1997 
L 3341 0 
L 2766 0 
L 2766 531 
Q 2569 213 2275 61 
Q 1981 -91 1556 -91 
Q 1019 -91 701 211 
Q 384 513 384 1019 
Q 384 1609 779 1909 
Q 1175 2209 1959 2209 
L 2766 2209 
L 2766 2266 
Q 2766 2663 2505 2880 
Q 2244 3097 1772 3097 
Q 1472 3097 1187 3025 
Q 903 2953 641 2809 
L 641 3341 
Q 956 3463 1253 3523 
Q 1550 3584 1831 3584 
Q 2591 3584 2966 3190 
Q 3341 2797 3341 1997 
z
" transform="scale(0.015625)"/>
       <path id="DejaVuSans-6e" d="M 3513 2113 
L 3513 0 
L 2938 0 
L 2938 2094 
Q 2938 2591 2744 2837 
Q 2550 3084 2163 3084 
Q 1697 3084 1428 2787 
Q 1159 2491 1159 1978 
L 1159 0 
L 581 0 
L 581 3500 
L 1159 3500 
L 1159 2956 
Q 1366 3272 1645 3428 
Q 1925 3584 2291 3584 
Q 2894 3584 3203 3211 
Q 3513 2838 3513 2113 
z
" transform="scale(0.015625)"/>
       <path id="DejaVuSans-75" d="M 544 1381 
L 544 3500 
L 1119 3500 
L 1119 1403 
Q 1119 906 1312 657 
Q 1506 409 1894 409 
Q 2359 409 2629 706 
Q 2900 1003 2900 1516 
L 2900 3500 
L 3475 3500 
L 3475 0 
L 2900 0 
L 2900 538 
Q 2691 219 2414 64 
Q 2138 -91 1772 -91 
Q 1169 -91 856 284 
Q 544 659 544 1381 
z
M 1991 3584 
L 1991 3584 
z
" transform="scale(0.015625)"/>
       <path id="DejaVuSans-66" d="M 2375 4863 
L 2375 4384 
L 1825 4384 
Q 1516 4384 1395 4259 
Q 1275 4134 1275 3809 
L 1275 3500 
L 2222 3500 
L 2222 3053 
L 1275 3053 
L 1275 0 
L 697 0 
L 697 3053 
L 147 3053 
L 147 3500 
L 697 3500 
L 697 3744 
Q 697 4328 969 4595 
Q 1241 4863 1831 4863 
L 2375 4863 
z
" transform="scale(0.015625)"/>
       <path id="DejaVuSans-63" d="M 3122 3366 
L 3122 2828 
Q 2878 2963 2633 3030 
Q 2388 3097 2138 3097 
Q 1578 3097 1268 2742 
Q 959 2388 959 1747 
Q 959 1106 1268 751 
Q 1578 397 2138 397 
Q 2388 397 2633 464 
Q 2878 531 3122 666 
L 3122 134 
Q 2881 22 2623 -34 
Q 2366 -91 2075 -91 
Q 1284 -91 818 406 
Q 353 903 353 1747 
Q 353 2603 823 3093 
Q 1294 3584 2113 3584 
Q 2378 3584 2631 3529 
Q 2884 3475 3122 3366 
z
" transform="scale(0.015625)"/>
       <path id="DejaVuSans-74" d="M 1172 4494 
L 1172 3500 
L 2356 3500 
L 2356 3053 
L 1172 3053 
L 1172 1153 
Q 1172 725 1289 603 
Q 1406 481 1766 481 
L 2356 481 
L 2356 0 
L 1766 0 
Q 1100 0 847 248 
Q 594 497 594 1153 
L 594 3053 
L 172 3053 
L 172 3500 
L 594 3500 
L 594 4494 
L 1172 4494 
z
" transform="scale(0.015625)"/>
       <path id="DejaVuSans-72" d="M 2631 2963 
Q 2534 3019 2420 3045 
Q 2306 3072 2169 3072 
Q 1681 3072 1420 2755 
Q 1159 2438 1159 1844 
L 1159 0 
L 581 0 
L 581 3500 
L 1159 3500 
L 1159 2956 
Q 1341 3275 1631 3429 
Q 1922 3584 2338 3584 
Q 2397 3584 2469 3576 
Q 2541 3569 2628 3553 
L 2631 2963 
z
" transform="scale(0.015625)"/>
       <path id="DejaVuSans-69" d="M 603 3500 
L 1178 3500 
L 1178 0 
L 603 0 
L 603 3500 
z
M 603 4863 
L 1178 4863 
L 1178 4134 
L 603 4134 
L 603 4863 
z
" transform="scale(0.015625)"/>
       <path id="DejaVuSans-67" d="M 2906 1791 
Q 2906 2416 2648 2759 
Q 2391 3103 1925 3103 
Q 1463 3103 1205 2759 
Q 947 2416 947 1791 
Q 947 1169 1205 825 
Q 1463 481 1925 481 
Q 2391 481 2648 825 
Q 2906 1169 2906 1791 
z
M 3481 434 
Q 3481 -459 3084 -895 
Q 2688 -1331 1869 -1331 
Q 1566 -1331 1297 -1286 
Q 1028 -1241 775 -1147 
L 775 -588 
Q 1028 -725 1275 -790 
Q 1522 -856 1778 -856 
Q 2344 -856 2625 -561 
Q 2906 -266 2906 331 
L 2906 616 
Q 2728 306 2450 153 
Q 2172 0 1784 0 
Q 1141 0 747 490 
Q 353 981 353 1791 
Q 353 2603 747 3093 
Q 1141 3584 1784 3584 
Q 2172 3584 2450 3431 
Q 2728 3278 2906 2969 
L 2906 3500 
L 3481 3500 
L 3481 434 
z
" transform="scale(0.015625)"/>
      </defs>
      <use xlink:href="#DejaVuSans-4d"/>
      <use xlink:href="#DejaVuSans-61" transform="translate(86.279297 0)"/>
      <use xlink:href="#DejaVuSans-6e" transform="translate(147.558594 0)"/>
      <use xlink:href="#DejaVuSans-75" transform="translate(210.9375 0)"/>
      <use xlink:href="#DejaVuSans-66" transform="translate(274.316406 0)"/>
      <use xlink:href="#DejaVuSans-61" transform="translate(309.521484 0)"/>
      <use xlink:href="#DejaVuSans-63" transform="translate(370.800781 0)"/>
      <use xlink:href="#DejaVuSans-74" transform="translate(425.78125 0)"/>
      <use xlink:href="#DejaVuSans-75" transform="translate(464.990234 0)"/>
      <use xlink:href="#DejaVuSans-72" transform="translate(528.369141 0)"/>
      <use xlink:href="#DejaVuSans-69" transform="translate(569.482422 0)"/>
      <use xlink:href="#DejaVuSans-6e" transform="translate(597.265625 0)"/>
      <use xlink:href="#DejaVuSans-67" transform="translate(660.644531 0)"/>
     </g>
    </g>
    <g id="line2d_32">
     <path d="M 654.303385 51.614375 
L 664.303385 51.614375 
L 674.303385 51.614375 
" style="fill: none; stroke: #ff7f0e; stroke-width: 2; stroke-linecap: square"/>
     <g>
      <use xlink:href="#m4c0a70ffff" x="664.303385" y="51.614375" style="fill: #ff7f0e; stroke: #ff7f0e"/>
     </g>
    </g>
    <g id="text_16">
     <!-- Construction -->
     <g transform="translate(682.303385 55.114375) scale(0.1 -0.1)">
      <defs>
       <path id="DejaVuSans-43" d="M 4122 4306 
L 4122 3641 
Q 3803 3938 3442 4084 
Q 3081 4231 2675 4231 
Q 1875 4231 1450 3742 
Q 1025 3253 1025 2328 
Q 1025 1406 1450 917 
Q 1875 428 2675 428 
Q 3081 428 3442 575 
Q 3803 722 4122 1019 
L 4122 359 
Q 3791 134 3420 21 
Q 3050 -91 2638 -91 
Q 1578 -91 968 557 
Q 359 1206 359 2328 
Q 359 3453 968 4101 
Q 1578 4750 2638 4750 
Q 3056 4750 3426 4639 
Q 3797 4528 4122 4306 
z
" transform="scale(0.015625)"/>
       <path id="DejaVuSans-6f" d="M 1959 3097 
Q 1497 3097 1228 2736 
Q 959 2375 959 1747 
Q 959 1119 1226 758 
Q 1494 397 1959 397 
Q 2419 397 2687 759 
Q 2956 1122 2956 1747 
Q 2956 2369 2687 2733 
Q 2419 3097 1959 3097 
z
M 1959 3584 
Q 2709 3584 3137 3096 
Q 3566 2609 3566 1747 
Q 3566 888 3137 398 
Q 2709 -91 1959 -91 
Q 1206 -91 779 398 
Q 353 888 353 1747 
Q 353 2609 779 3096 
Q 1206 3584 1959 3584 
z
" transform="scale(0.015625)"/>
       <path id="DejaVuSans-73" d="M 2834 3397 
L 2834 2853 
Q 2591 2978 2328 3040 
Q 2066 3103 1784 3103 
Q 1356 3103 1142 2972 
Q 928 2841 928 2578 
Q 928 2378 1081 2264 
Q 1234 2150 1697 2047 
L 1894 2003 
Q 2506 1872 2764 1633 
Q 3022 1394 3022 966 
Q 3022 478 2636 193 
Q 2250 -91 1575 -91 
Q 1294 -91 989 -36 
Q 684 19 347 128 
L 347 722 
Q 666 556 975 473 
Q 1284 391 1588 391 
Q 1994 391 2212 530 
Q 2431 669 2431 922 
Q 2431 1156 2273 1281 
Q 2116 1406 1581 1522 
L 1381 1569 
Q 847 1681 609 1914 
Q 372 2147 372 2553 
Q 372 3047 722 3315 
Q 1072 3584 1716 3584 
Q 2034 3584 2315 3537 
Q 2597 3491 2834 3397 
z
" transform="scale(0.015625)"/>
      </defs>
      <use xlink:href="#DejaVuSans-43"/>
      <use xlink:href="#DejaVuSans-6f" transform="translate(69.824219 0)"/>
      <use xlink:href="#DejaVuSans-6e" transform="translate(131.005859 0)"/>
      <use xlink:href="#DejaVuSans-73" transform="translate(194.384766 0)"/>
      <use xlink:href="#DejaVuSans-74" transform="translate(246.484375 0)"/>
      <use xlink:href="#DejaVuSans-72" transform="translate(285.693359 0)"/>
      <use xlink:href="#DejaVuSans-75" transform="translate(326.806641 0)"/>
      <use xlink:href="#DejaVuSans-63" transform="translate(390.185547 0)"/>
      <use xlink:href="#DejaVuSans-74" transform="translate(445.166016 0)"/>
      <use xlink:href="#DejaVuSans-69" transform="translate(484.375 0)"/>
      <use xlink:href="#DejaVuSans-6f" transform="translate(512.158203 0)"/>
      <use xlink:href="#DejaVuSans-6e" transform="translate(573.339844 0)"/>
     </g>
    </g>
    <g id="line2d_33">
     <path d="M 654.303385 66.2925 
L 664.303385 66.2925 
L 674.303385 66.2925 
" style="fill: none; stroke: #2ca02c; stroke-width: 2; stroke-linecap: square"/>
     <g>
      <use xlink:href="#mda561c1b00" x="664.303385" y="66.2925" style="fill: #2ca02c; stroke: #2ca02c"/>
     </g>
    </g>
    <g id="text_17">
     <!-- Information and communication -->
     <g transform="translate(682.303385 69.7925) scale(0.1 -0.1)">
      <defs>
       <path id="DejaVuSans-49" d="M 628 4666 
L 1259 4666 
L 1259 0 
L 628 0 
L 628 4666 
z
" transform="scale(0.015625)"/>
       <path id="DejaVuSans-6d" d="M 3328 2828 
Q 3544 3216 3844 3400 
Q 4144 3584 4550 3584 
Q 5097 3584 5394 3201 
Q 5691 2819 5691 2113 
L 5691 0 
L 5113 0 
L 5113 2094 
Q 5113 2597 4934 2840 
Q 4756 3084 4391 3084 
Q 3944 3084 3684 2787 
Q 3425 2491 3425 1978 
L 3425 0 
L 2847 0 
L 2847 2094 
Q 2847 2600 2669 2842 
Q 2491 3084 2119 3084 
Q 1678 3084 1418 2786 
Q 1159 2488 1159 1978 
L 1159 0 
L 581 0 
L 581 3500 
L 1159 3500 
L 1159 2956 
Q 1356 3278 1631 3431 
Q 1906 3584 2284 3584 
Q 2666 3584 2933 3390 
Q 3200 3197 3328 2828 
z
" transform="scale(0.015625)"/>
       <path id="DejaVuSans-20" transform="scale(0.015625)"/>
       <path id="DejaVuSans-64" d="M 2906 2969 
L 2906 4863 
L 3481 4863 
L 3481 0 
L 2906 0 
L 2906 525 
Q 2725 213 2448 61 
Q 2172 -91 1784 -91 
Q 1150 -91 751 415 
Q 353 922 353 1747 
Q 353 2572 751 3078 
Q 1150 3584 1784 3584 
Q 2172 3584 2448 3432 
Q 2725 3281 2906 2969 
z
M 947 1747 
Q 947 1113 1208 752 
Q 1469 391 1925 391 
Q 2381 391 2643 752 
Q 2906 1113 2906 1747 
Q 2906 2381 2643 2742 
Q 2381 3103 1925 3103 
Q 1469 3103 1208 2742 
Q 947 2381 947 1747 
z
" transform="scale(0.015625)"/>
      </defs>
      <use xlink:href="#DejaVuSans-49"/>
      <use xlink:href="#DejaVuSans-6e" transform="translate(29.492188 0)"/>
      <use xlink:href="#DejaVuSans-66" transform="translate(92.871094 0)"/>
      <use xlink:href="#DejaVuSans-6f" transform="translate(128.076172 0)"/>
      <use xlink:href="#DejaVuSans-72" transform="translate(189.257812 0)"/>
      <use xlink:href="#DejaVuSans-6d" transform="translate(228.621094 0)"/>
      <use xlink:href="#DejaVuSans-61" transform="translate(326.033203 0)"/>
      <use xlink:href="#DejaVuSans-74" transform="translate(387.3125 0)"/>
      <use xlink:href="#DejaVuSans-69" transform="translate(426.521484 0)"/>
      <use xlink:href="#DejaVuSans-6f" transform="translate(454.304688 0)"/>
      <use xlink:href="#DejaVuSans-6e" transform="translate(515.486328 0)"/>
      <use xlink:href="#DejaVuSans-20" transform="translate(578.865234 0)"/>
      <use xlink:href="#DejaVuSans-61" transform="translate(610.652344 0)"/>
      <use xlink:href="#DejaVuSans-6e" transform="translate(671.931641 0)"/>
      <use xlink:href="#DejaVuSans-64" transform="translate(735.310547 0)"/>
      <use xlink:href="#DejaVuSans-20" transform="translate(798.787109 0)"/>
      <use xlink:href="#DejaVuSans-63" transform="translate(830.574219 0)"/>
      <use xlink:href="#DejaVuSans-6f" transform="translate(885.554688 0)"/>
      <use xlink:href="#DejaVuSans-6d" transform="translate(946.736328 0)"/>
      <use xlink:href="#DejaVuSans-6d" transform="translate(1044.148438 0)"/>
      <use xlink:href="#DejaVuSans-75" transform="translate(1141.560547 0)"/>
      <use xlink:href="#DejaVuSans-6e" transform="translate(1204.939453 0)"/>
      <use xlink:href="#DejaVuSans-69" transform="translate(1268.318359 0)"/>
      <use xlink:href="#DejaVuSans-63" transform="translate(1296.101562 0)"/>
      <use xlink:href="#DejaVuSans-61" transform="translate(1351.082031 0)"/>
      <use xlink:href="#DejaVuSans-74" transform="translate(1412.361328 0)"/>
      <use xlink:href="#DejaVuSans-69" transform="translate(1451.570312 0)"/>
      <use xlink:href="#DejaVuSans-6f" transform="translate(1479.353516 0)"/>
      <use xlink:href="#DejaVuSans-6e" transform="translate(1540.535156 0)"/>
     </g>
    </g>
    <g id="line2d_34">
     <path d="M 654.303385 87.609375 
L 664.303385 87.609375 
L 674.303385 87.609375 
" style="fill: none; stroke: #d62728; stroke-width: 2; stroke-linecap: square"/>
     <g>
      <use xlink:href="#meb57660bb1" x="664.303385" y="87.609375" style="fill: #d62728; stroke: #d62728"/>
     </g>
    </g>
    <g id="text_18">
     <!-- Electricity, gas, steam and -->
     <g transform="translate(682.303385 84.470625) scale(0.1 -0.1)">
      <defs>
       <path id="DejaVuSans-45" d="M 628 4666 
L 3578 4666 
L 3578 4134 
L 1259 4134 
L 1259 2753 
L 3481 2753 
L 3481 2222 
L 1259 2222 
L 1259 531 
L 3634 531 
L 3634 0 
L 628 0 
L 628 4666 
z
" transform="scale(0.015625)"/>
       <path id="DejaVuSans-6c" d="M 603 4863 
L 1178 4863 
L 1178 0 
L 603 0 
L 603 4863 
z
" transform="scale(0.015625)"/>
       <path id="DejaVuSans-65" d="M 3597 1894 
L 3597 1613 
L 953 1613 
Q 991 1019 1311 708 
Q 1631 397 2203 397 
Q 2534 397 2845 478 
Q 3156 559 3463 722 
L 3463 178 
Q 3153 47 2828 -22 
Q 2503 -91 2169 -91 
Q 1331 -91 842 396 
Q 353 884 353 1716 
Q 353 2575 817 3079 
Q 1281 3584 2069 3584 
Q 2775 3584 3186 3129 
Q 3597 2675 3597 1894 
z
M 3022 2063 
Q 3016 2534 2758 2815 
Q 2500 3097 2075 3097 
Q 1594 3097 1305 2825 
Q 1016 2553 972 2059 
L 3022 2063 
z
" transform="scale(0.015625)"/>
       <path id="DejaVuSans-79" d="M 2059 -325 
Q 1816 -950 1584 -1140 
Q 1353 -1331 966 -1331 
L 506 -1331 
L 506 -850 
L 844 -850 
Q 1081 -850 1212 -737 
Q 1344 -625 1503 -206 
L 1606 56 
L 191 3500 
L 800 3500 
L 1894 763 
L 2988 3500 
L 3597 3500 
L 2059 -325 
z
" transform="scale(0.015625)"/>
       <path id="DejaVuSans-2c" d="M 750 794 
L 1409 794 
L 1409 256 
L 897 -744 
L 494 -744 
L 750 256 
L 750 794 
z
" transform="scale(0.015625)"/>
      </defs>
      <use xlink:href="#DejaVuSans-45"/>
      <use xlink:href="#DejaVuSans-6c" transform="translate(63.183594 0)"/>
      <use xlink:href="#DejaVuSans-65" transform="translate(90.966797 0)"/>
      <use xlink:href="#DejaVuSans-63" transform="translate(152.490234 0)"/>
      <use xlink:href="#DejaVuSans-74" transform="translate(207.470703 0)"/>
      <use xlink:href="#DejaVuSans-72" transform="translate(246.679688 0)"/>
      <use xlink:href="#DejaVuSans-69" transform="translate(287.792969 0)"/>
      <use xlink:href="#DejaVuSans-63" transform="translate(315.576172 0)"/>
      <use xlink:href="#DejaVuSans-69" transform="translate(370.556641 0)"/>
      <use xlink:href="#DejaVuSans-74" transform="translate(398.339844 0)"/>
      <use xlink:href="#DejaVuSans-79" transform="translate(437.548828 0)"/>
      <use xlink:href="#DejaVuSans-2c" transform="translate(496.728516 0)"/>
      <use xlink:href="#DejaVuSans-20" transform="translate(528.515625 0)"/>
      <use xlink:href="#DejaVuSans-67" transform="translate(560.302734 0)"/>
      <use xlink:href="#DejaVuSans-61" transform="translate(623.779297 0)"/>
      <use xlink:href="#DejaVuSans-73" transform="translate(685.058594 0)"/>
      <use xlink:href="#DejaVuSans-2c" transform="translate(737.158203 0)"/>
      <use xlink:href="#DejaVuSans-20" transform="translate(768.945312 0)"/>
      <use xlink:href="#DejaVuSans-73" transform="translate(800.732422 0)"/>
      <use xlink:href="#DejaVuSans-74" transform="translate(852.832031 0)"/>
      <use xlink:href="#DejaVuSans-65" transform="translate(892.041016 0)"/>
      <use xlink:href="#DejaVuSans-61" transform="translate(953.564453 0)"/>
      <use xlink:href="#DejaVuSans-6d" transform="translate(1014.84375 0)"/>
      <use xlink:href="#DejaVuSans-20" transform="translate(1112.255859 0)"/>
      <use xlink:href="#DejaVuSans-61" transform="translate(1144.042969 0)"/>
      <use xlink:href="#DejaVuSans-6e" transform="translate(1205.322266 0)"/>
      <use xlink:href="#DejaVuSans-64" transform="translate(1268.701172 0)"/>
     </g>
     <!-- air conditioning supply -->
     <g transform="translate(682.303385 95.668437) scale(0.1 -0.1)">
      <defs>
       <path id="DejaVuSans-70" d="M 1159 525 
L 1159 -1331 
L 581 -1331 
L 581 3500 
L 1159 3500 
L 1159 2969 
Q 1341 3281 1617 3432 
Q 1894 3584 2278 3584 
Q 2916 3584 3314 3078 
Q 3713 2572 3713 1747 
Q 3713 922 3314 415 
Q 2916 -91 2278 -91 
Q 1894 -91 1617 61 
Q 1341 213 1159 525 
z
M 3116 1747 
Q 3116 2381 2855 2742 
Q 2594 3103 2138 3103 
Q 1681 3103 1420 2742 
Q 1159 2381 1159 1747 
Q 1159 1113 1420 752 
Q 1681 391 2138 391 
Q 2594 391 2855 752 
Q 3116 1113 3116 1747 
z
" transform="scale(0.015625)"/>
      </defs>
      <use xlink:href="#DejaVuSans-61"/>
      <use xlink:href="#DejaVuSans-69" transform="translate(61.279297 0)"/>
      <use xlink:href="#DejaVuSans-72" transform="translate(89.0625 0)"/>
      <use xlink:href="#DejaVuSans-20" transform="translate(130.175781 0)"/>
      <use xlink:href="#DejaVuSans-63" transform="translate(161.962891 0)"/>
      <use xlink:href="#DejaVuSans-6f" transform="translate(216.943359 0)"/>
      <use xlink:href="#DejaVuSans-6e" transform="translate(278.125 0)"/>
      <use xlink:href="#DejaVuSans-64" transform="translate(341.503906 0)"/>
      <use xlink:href="#DejaVuSans-69" transform="translate(404.980469 0)"/>
      <use xlink:href="#DejaVuSans-74" transform="translate(432.763672 0)"/>
      <use xlink:href="#DejaVuSans-69" transform="translate(471.972656 0)"/>
      <use xlink:href="#DejaVuSans-6f" transform="translate(499.755859 0)"/>
      <use xlink:href="#DejaVuSans-6e" transform="translate(560.9375 0)"/>
      <use xlink:href="#DejaVuSans-69" transform="translate(624.316406 0)"/>
      <use xlink:href="#DejaVuSans-6e" transform="translate(652.099609 0)"/>
      <use xlink:href="#DejaVuSans-67" transform="translate(715.478516 0)"/>
      <use xlink:href="#DejaVuSans-20" transform="translate(778.955078 0)"/>
      <use xlink:href="#DejaVuSans-73" transform="translate(810.742188 0)"/>
      <use xlink:href="#DejaVuSans-75" transform="translate(862.841797 0)"/>
      <use xlink:href="#DejaVuSans-70" transform="translate(926.220703 0)"/>
      <use xlink:href="#DejaVuSans-70" transform="translate(989.697266 0)"/>
      <use xlink:href="#DejaVuSans-6c" transform="translate(1053.173828 0)"/>
      <use xlink:href="#DejaVuSans-79" transform="translate(1080.957031 0)"/>
     </g>
    </g>
    <g id="line2d_35">
     <path d="M 654.303385 119.084219 
L 664.303385 119.084219 
L 674.303385 119.084219 
" style="fill: none; stroke: #9467bd; stroke-width: 2; stroke-linecap: square"/>
     <g>
      <use xlink:href="#m75239eadc0" x="664.303385" y="119.084219" style="fill: #9467bd; stroke: #9467bd"/>
     </g>
    </g>
    <g id="text_19">
     <!-- Water supply; sewerage, waste -->
     <g transform="translate(682.303385 110.346562) scale(0.1 -0.1)">
      <defs>
       <path id="DejaVuSans-57" d="M 213 4666 
L 850 4666 
L 1831 722 
L 2809 4666 
L 3519 4666 
L 4500 722 
L 5478 4666 
L 6119 4666 
L 4947 0 
L 4153 0 
L 3169 4050 
L 2175 0 
L 1381 0 
L 213 4666 
z
" transform="scale(0.015625)"/>
       <path id="DejaVuSans-3b" d="M 750 3309 
L 1409 3309 
L 1409 2516 
L 750 2516 
L 750 3309 
z
M 750 794 
L 1409 794 
L 1409 256 
L 897 -744 
L 494 -744 
L 750 256 
L 750 794 
z
" transform="scale(0.015625)"/>
       <path id="DejaVuSans-77" d="M 269 3500 
L 844 3500 
L 1563 769 
L 2278 3500 
L 2956 3500 
L 3675 769 
L 4391 3500 
L 4966 3500 
L 4050 0 
L 3372 0 
L 2619 2869 
L 1863 0 
L 1184 0 
L 269 3500 
z
" transform="scale(0.015625)"/>
      </defs>
      <use xlink:href="#DejaVuSans-57"/>
      <use xlink:href="#DejaVuSans-61" transform="translate(92.501953 0)"/>
      <use xlink:href="#DejaVuSans-74" transform="translate(153.78125 0)"/>
      <use xlink:href="#DejaVuSans-65" transform="translate(192.990234 0)"/>
      <use xlink:href="#DejaVuSans-72" transform="translate(254.513672 0)"/>
      <use xlink:href="#DejaVuSans-20" transform="translate(295.626953 0)"/>
      <use xlink:href="#DejaVuSans-73" transform="translate(327.414062 0)"/>
      <use xlink:href="#DejaVuSans-75" transform="translate(379.513672 0)"/>
      <use xlink:href="#DejaVuSans-70" transform="translate(442.892578 0)"/>
      <use xlink:href="#DejaVuSans-70" transform="translate(506.369141 0)"/>
      <use xlink:href="#DejaVuSans-6c" transform="translate(569.845703 0)"/>
      <use xlink:href="#DejaVuSans-79" transform="translate(597.628906 0)"/>
      <use xlink:href="#DejaVuSans-3b" transform="translate(656.808594 0)"/>
      <use xlink:href="#DejaVuSans-20" transform="translate(690.5 0)"/>
      <use xlink:href="#DejaVuSans-73" transform="translate(722.287109 0)"/>
      <use xlink:href="#DejaVuSans-65" transform="translate(774.386719 0)"/>
      <use xlink:href="#DejaVuSans-77" transform="translate(835.910156 0)"/>
      <use xlink:href="#DejaVuSans-65" transform="translate(917.697266 0)"/>
      <use xlink:href="#DejaVuSans-72" transform="translate(979.220703 0)"/>
      <use xlink:href="#DejaVuSans-61" transform="translate(1020.333984 0)"/>
      <use xlink:href="#DejaVuSans-67" transform="translate(1081.613281 0)"/>
      <use xlink:href="#DejaVuSans-65" transform="translate(1145.089844 0)"/>
      <use xlink:href="#DejaVuSans-2c" transform="translate(1206.613281 0)"/>
      <use xlink:href="#DejaVuSans-20" transform="translate(1238.400391 0)"/>
      <use xlink:href="#DejaVuSans-77" transform="translate(1270.1875 0)"/>
      <use xlink:href="#DejaVuSans-61" transform="translate(1351.974609 0)"/>
      <use xlink:href="#DejaVuSans-73" transform="translate(1413.253906 0)"/>
      <use xlink:href="#DejaVuSans-74" transform="translate(1465.353516 0)"/>
      <use xlink:href="#DejaVuSans-65" transform="translate(1504.5625 0)"/>
     </g>
     <!-- management and remediation -->
     <g transform="translate(682.303385 121.544375) scale(0.1 -0.1)">
      <use xlink:href="#DejaVuSans-6d"/>
      <use xlink:href="#DejaVuSans-61" transform="translate(97.412109 0)"/>
      <use xlink:href="#DejaVuSans-6e" transform="translate(158.691406 0)"/>
      <use xlink:href="#DejaVuSans-61" transform="translate(222.070312 0)"/>
      <use xlink:href="#DejaVuSans-67" transform="translate(283.349609 0)"/>
      <use xlink:href="#DejaVuSans-65" transform="translate(346.826172 0)"/>
      <use xlink:href="#DejaVuSans-6d" transform="translate(408.349609 0)"/>
      <use xlink:href="#DejaVuSans-65" transform="translate(505.761719 0)"/>
      <use xlink:href="#DejaVuSans-6e" transform="translate(567.285156 0)"/>
      <use xlink:href="#DejaVuSans-74" transform="translate(630.664062 0)"/>
      <use xlink:href="#DejaVuSans-20" transform="translate(669.873047 0)"/>
      <use xlink:href="#DejaVuSans-61" transform="translate(701.660156 0)"/>
      <use xlink:href="#DejaVuSans-6e" transform="translate(762.939453 0)"/>
      <use xlink:href="#DejaVuSans-64" transform="translate(826.318359 0)"/>
      <use xlink:href="#DejaVuSans-20" transform="translate(889.794922 0)"/>
      <use xlink:href="#DejaVuSans-72" transform="translate(921.582031 0)"/>
      <use xlink:href="#DejaVuSans-65" transform="translate(960.445312 0)"/>
      <use xlink:href="#DejaVuSans-6d" transform="translate(1021.96875 0)"/>
      <use xlink:href="#DejaVuSans-65" transform="translate(1119.380859 0)"/>
      <use xlink:href="#DejaVuSans-64" transform="translate(1180.904297 0)"/>
      <use xlink:href="#DejaVuSans-69" transform="translate(1244.380859 0)"/>
      <use xlink:href="#DejaVuSans-61" transform="translate(1272.164062 0)"/>
      <use xlink:href="#DejaVuSans-74" transform="translate(1333.443359 0)"/>
      <use xlink:href="#DejaVuSans-69" transform="translate(1372.652344 0)"/>
      <use xlink:href="#DejaVuSans-6f" transform="translate(1400.435547 0)"/>
      <use xlink:href="#DejaVuSans-6e" transform="translate(1461.617188 0)"/>
     </g>
     <!-- activities -->
     <g transform="translate(682.303385 132.742187) scale(0.1 -0.1)">
      <defs>
       <path id="DejaVuSans-76" d="M 191 3500 
L 800 3500 
L 1894 563 
L 2988 3500 
L 3597 3500 
L 2284 0 
L 1503 0 
L 191 3500 
z
" transform="scale(0.015625)"/>
      </defs>
      <use xlink:href="#DejaVuSans-61"/>
      <use xlink:href="#DejaVuSans-63" transform="translate(61.279297 0)"/>
      <use xlink:href="#DejaVuSans-74" transform="translate(116.259766 0)"/>
      <use xlink:href="#DejaVuSans-69" transform="translate(155.46875 0)"/>
      <use xlink:href="#DejaVuSans-76" transform="translate(183.251953 0)"/>
      <use xlink:href="#DejaVuSans-69" transform="translate(242.431641 0)"/>
      <use xlink:href="#DejaVuSans-74" transform="translate(270.214844 0)"/>
      <use xlink:href="#DejaVuSans-69" transform="translate(309.423828 0)"/>
      <use xlink:href="#DejaVuSans-65" transform="translate(337.207031 0)"/>
      <use xlink:href="#DejaVuSans-73" transform="translate(398.730469 0)"/>
     </g>
    </g>
    <g id="line2d_36">
     <path d="M 654.303385 150.559062 
L 664.303385 150.559062 
L 674.303385 150.559062 
" style="fill: none; stroke: #8c564b; stroke-width: 2; stroke-linecap: square"/>
     <g>
      <use xlink:href="#m644efb8db6" x="664.303385" y="150.559062" style="fill: #8c564b; stroke: #8c564b"/>
     </g>
    </g>
    <g id="text_20">
     <!-- Professional, scientific and -->
     <g transform="translate(682.303385 147.420312) scale(0.1 -0.1)">
      <defs>
       <path id="DejaVuSans-50" d="M 1259 4147 
L 1259 2394 
L 2053 2394 
Q 2494 2394 2734 2622 
Q 2975 2850 2975 3272 
Q 2975 3691 2734 3919 
Q 2494 4147 2053 4147 
L 1259 4147 
z
M 628 4666 
L 2053 4666 
Q 2838 4666 3239 4311 
Q 3641 3956 3641 3272 
Q 3641 2581 3239 2228 
Q 2838 1875 2053 1875 
L 1259 1875 
L 1259 0 
L 628 0 
L 628 4666 
z
" transform="scale(0.015625)"/>
      </defs>
      <use xlink:href="#DejaVuSans-50"/>
      <use xlink:href="#DejaVuSans-72" transform="translate(58.552734 0)"/>
      <use xlink:href="#DejaVuSans-6f" transform="translate(97.416016 0)"/>
      <use xlink:href="#DejaVuSans-66" transform="translate(158.597656 0)"/>
      <use xlink:href="#DejaVuSans-65" transform="translate(193.802734 0)"/>
      <use xlink:href="#DejaVuSans-73" transform="translate(255.326172 0)"/>
      <use xlink:href="#DejaVuSans-73" transform="translate(307.425781 0)"/>
      <use xlink:href="#DejaVuSans-69" transform="translate(359.525391 0)"/>
      <use xlink:href="#DejaVuSans-6f" transform="translate(387.308594 0)"/>
      <use xlink:href="#DejaVuSans-6e" transform="translate(448.490234 0)"/>
      <use xlink:href="#DejaVuSans-61" transform="translate(511.869141 0)"/>
      <use xlink:href="#DejaVuSans-6c" transform="translate(573.148438 0)"/>
      <use xlink:href="#DejaVuSans-2c" transform="translate(600.931641 0)"/>
      <use xlink:href="#DejaVuSans-20" transform="translate(632.71875 0)"/>
      <use xlink:href="#DejaVuSans-73" transform="translate(664.505859 0)"/>
      <use xlink:href="#DejaVuSans-63" transform="translate(716.605469 0)"/>
      <use xlink:href="#DejaVuSans-69" transform="translate(771.585938 0)"/>
      <use xlink:href="#DejaVuSans-65" transform="translate(799.369141 0)"/>
      <use xlink:href="#DejaVuSans-6e" transform="translate(860.892578 0)"/>
      <use xlink:href="#DejaVuSans-74" transform="translate(924.271484 0)"/>
      <use xlink:href="#DejaVuSans-69" transform="translate(963.480469 0)"/>
      <use xlink:href="#DejaVuSans-66" transform="translate(991.263672 0)"/>
      <use xlink:href="#DejaVuSans-69" transform="translate(1026.46875 0)"/>
      <use xlink:href="#DejaVuSans-63" transform="translate(1054.251953 0)"/>
      <use xlink:href="#DejaVuSans-20" transform="translate(1109.232422 0)"/>
      <use xlink:href="#DejaVuSans-61" transform="translate(1141.019531 0)"/>
      <use xlink:href="#DejaVuSans-6e" transform="translate(1202.298828 0)"/>
      <use xlink:href="#DejaVuSans-64" transform="translate(1265.677734 0)"/>
     </g>
     <!-- technical activities -->
     <g transform="translate(682.303385 158.618125) scale(0.1 -0.1)">
      <defs>
       <path id="DejaVuSans-68" d="M 3513 2113 
L 3513 0 
L 2938 0 
L 2938 2094 
Q 2938 2591 2744 2837 
Q 2550 3084 2163 3084 
Q 1697 3084 1428 2787 
Q 1159 2491 1159 1978 
L 1159 0 
L 581 0 
L 581 4863 
L 1159 4863 
L 1159 2956 
Q 1366 3272 1645 3428 
Q 1925 3584 2291 3584 
Q 2894 3584 3203 3211 
Q 3513 2838 3513 2113 
z
" transform="scale(0.015625)"/>
      </defs>
      <use xlink:href="#DejaVuSans-74"/>
      <use xlink:href="#DejaVuSans-65" transform="translate(39.208984 0)"/>
      <use xlink:href="#DejaVuSans-63" transform="translate(100.732422 0)"/>
      <use xlink:href="#DejaVuSans-68" transform="translate(155.712891 0)"/>
      <use xlink:href="#DejaVuSans-6e" transform="translate(219.091797 0)"/>
      <use xlink:href="#DejaVuSans-69" transform="translate(282.470703 0)"/>
      <use xlink:href="#DejaVuSans-63" transform="translate(310.253906 0)"/>
      <use xlink:href="#DejaVuSans-61" transform="translate(365.234375 0)"/>
      <use xlink:href="#DejaVuSans-6c" transform="translate(426.513672 0)"/>
      <use xlink:href="#DejaVuSans-20" transform="translate(454.296875 0)"/>
      <use xlink:href="#DejaVuSans-61" transform="translate(486.083984 0)"/>
      <use xlink:href="#DejaVuSans-63" transform="translate(547.363281 0)"/>
      <use xlink:href="#DejaVuSans-74" transform="translate(602.34375 0)"/>
      <use xlink:href="#DejaVuSans-69" transform="translate(641.552734 0)"/>
      <use xlink:href="#DejaVuSans-76" transform="translate(669.335938 0)"/>
      <use xlink:href="#DejaVuSans-69" transform="translate(728.515625 0)"/>
      <use xlink:href="#DejaVuSans-74" transform="translate(756.298828 0)"/>
      <use xlink:href="#DejaVuSans-69" transform="translate(795.507812 0)"/>
      <use xlink:href="#DejaVuSans-65" transform="translate(823.291016 0)"/>
      <use xlink:href="#DejaVuSans-73" transform="translate(884.814453 0)"/>
     </g>
    </g>
    <g id="line2d_37">
     <path d="M 654.303385 169.79625 
L 664.303385 169.79625 
L 674.303385 169.79625 
" style="fill: none; stroke: #e377c2; stroke-width: 2; stroke-linecap: square"/>
     <g>
      <use xlink:href="#m7053a41805" x="664.303385" y="169.79625" style="fill: #e377c2; stroke: #e377c2"/>
     </g>
    </g>
    <g id="text_21">
     <!-- Transportation and storage -->
     <g transform="translate(682.303385 173.29625) scale(0.1 -0.1)">
      <defs>
       <path id="DejaVuSans-54" d="M -19 4666 
L 3928 4666 
L 3928 4134 
L 2272 4134 
L 2272 0 
L 1638 0 
L 1638 4134 
L -19 4134 
L -19 4666 
z
" transform="scale(0.015625)"/>
      </defs>
      <use xlink:href="#DejaVuSans-54"/>
      <use xlink:href="#DejaVuSans-72" transform="translate(46.333984 0)"/>
      <use xlink:href="#DejaVuSans-61" transform="translate(87.447266 0)"/>
      <use xlink:href="#DejaVuSans-6e" transform="translate(148.726562 0)"/>
      <use xlink:href="#DejaVuSans-73" transform="translate(212.105469 0)"/>
      <use xlink:href="#DejaVuSans-70" transform="translate(264.205078 0)"/>
      <use xlink:href="#DejaVuSans-6f" transform="translate(327.681641 0)"/>
      <use xlink:href="#DejaVuSans-72" transform="translate(388.863281 0)"/>
      <use xlink:href="#DejaVuSans-74" transform="translate(429.976562 0)"/>
      <use xlink:href="#DejaVuSans-61" transform="translate(469.185547 0)"/>
      <use xlink:href="#DejaVuSans-74" transform="translate(530.464844 0)"/>
      <use xlink:href="#DejaVuSans-69" transform="translate(569.673828 0)"/>
      <use xlink:href="#DejaVuSans-6f" transform="translate(597.457031 0)"/>
      <use xlink:href="#DejaVuSans-6e" transform="translate(658.638672 0)"/>
      <use xlink:href="#DejaVuSans-20" transform="translate(722.017578 0)"/>
      <use xlink:href="#DejaVuSans-61" transform="translate(753.804688 0)"/>
      <use xlink:href="#DejaVuSans-6e" transform="translate(815.083984 0)"/>
      <use xlink:href="#DejaVuSans-64" transform="translate(878.462891 0)"/>
      <use xlink:href="#DejaVuSans-20" transform="translate(941.939453 0)"/>
      <use xlink:href="#DejaVuSans-73" transform="translate(973.726562 0)"/>
      <use xlink:href="#DejaVuSans-74" transform="translate(1025.826172 0)"/>
      <use xlink:href="#DejaVuSans-6f" transform="translate(1065.035156 0)"/>
      <use xlink:href="#DejaVuSans-72" transform="translate(1126.216797 0)"/>
      <use xlink:href="#DejaVuSans-61" transform="translate(1167.330078 0)"/>
      <use xlink:href="#DejaVuSans-67" transform="translate(1228.609375 0)"/>
      <use xlink:href="#DejaVuSans-65" transform="translate(1292.085938 0)"/>
     </g>
    </g>
   </g>
  </g>
 </g>
 <defs>
  <clipPath id="pe57aebeada">
   <rect x="45.810625" y="23.837812" width="587.738" height="359.56"/>
  </clipPath>
 </defs>
</svg>
