<?xml version="1.0" encoding="utf-8" standalone="no"?>
<!DOCTYPE svg PUBLIC "-//W3C//DTD SVG 1.1//EN"
  "http://www.w3.org/Graphics/SVG/1.1/DTD/svg11.dtd">
<svg xmlns:xlink="http://www.w3.org/1999/xlink" width="855.755424pt" height="481.922591pt" viewBox="0 0 855.755424 481.922591" xmlns="http://www.w3.org/2000/svg" version="1.1">
 <metadata>
  <rdf:RDF xmlns:dc="http://purl.org/dc/elements/1.1/" xmlns:cc="http://creativecommons.org/ns#" xmlns:rdf="http://www.w3.org/1999/02/22-rdf-syntax-ns#">
   <cc:Work>
    <dc:type rdf:resource="http://purl.org/dc/dcmitype/StillImage"/>
    <dc:date>2025-10-27T18:52:06.729739</dc:date>
    <dc:format>image/svg+xml</dc:format>
    <dc:creator>
     <cc:Agent>
      <dc:title>Matplotlib v3.10.7, https://matplotlib.org/</dc:title>
     </cc:Agent>
    </dc:creator>
   </cc:Work>
  </rdf:RDF>
 </metadata>
 <defs>
  <style type="text/css">*{stroke-linejoin: round; stroke-linecap: butt}</style>
 </defs>
 <g id="figure_1">
  <g id="patch_1">
   <path d="M -0 481.922591 
L 855.755424 481.922591 
L 855.755424 0 
L -0 0 
z
" style="fill: #ffffff"/>
  </g>
  <g id="axes_1">
   <g id="patch_2">
    <path d="M 155.011738 349.958276 
L 769.809469 349.958276 
L 769.809469 29.837812 
L 155.011738 29.837812 
z
" style="fill: #ffffff"/>
   </g>
   <g id="patch_3">
    <path d="M 0 0 
z
" clip-path="url(#pbd1295f984)" style="fill: #1f77b4; stroke: #333333; stroke-width: 0.6; stroke-linejoin: miter"/>
   </g>
   <g id="patch_4">
    <path d="M 0 0 
z
" clip-path="url(#pbd1295f984)" style="fill: #1f77b4; stroke: #333333; stroke-width: 0.6; stroke-linejoin: miter"/>
   </g>
   <g id="patch_5">
    <path d="M 220.180297 349.958276 
L 231.383278 349.958276 
L 231.383278 180.236393 
L 220.180297 180.236393 
z
" clip-path="url(#pbd1295f984)" style="fill: #1f77b4; stroke: #333333; stroke-width: 0.6; stroke-linejoin: miter"/>
   </g>
   <g id="patch_6">
    <path d="M 0 0 
z
" clip-path="url(#pbd1295f984)" style="fill: #1f77b4; stroke: #333333; stroke-width: 0.6; stroke-linejoin: miter"/>
   </g>
   <g id="patch_7">
    <path d="M 0 0 
z
" clip-path="url(#pbd1295f984)" style="fill: #1f77b4; stroke: #333333; stroke-width: 0.6; stroke-linejoin: miter"/>
   </g>
   <g id="patch_8">
    <path d="M 0 0 
z
" clip-path="url(#pbd1295f984)" style="fill: #1f77b4; stroke: #333333; stroke-width: 0.6; stroke-linejoin: miter"/>
   </g>
   <g id="patch_9">
    <path d="M 0 0 
z
" clip-path="url(#pbd1295f984)" style="fill: #1f77b4; stroke: #333333; stroke-width: 0.6; stroke-linejoin: miter"/>
   </g>
   <g id="patch_10">
    <path d="M 0 0 
z
" clip-path="url(#pbd1295f984)" style="fill: #1f77b4; stroke: #333333; stroke-width: 0.6; stroke-linejoin: miter"/>
   </g>
   <g id="patch_11">
    <path d="M 0 0 
z
" clip-path="url(#pbd1295f984)" style="fill: #1f77b4; stroke: #333333; stroke-width: 0.6; stroke-linejoin: miter"/>
   </g>
   <g id="patch_12">
    <path d="M 507.085905 349.958276 
L 518.288886 349.958276 
L 518.288886 91.432662 
L 507.085905 91.432662 
z
" clip-path="url(#pbd1295f984)" style="fill: #1f77b4; stroke: #333333; stroke-width: 0.6; stroke-linejoin: miter"/>
   </g>
   <g id="patch_13">
    <path d="M 0 0 
z
" clip-path="url(#pbd1295f984)" style="fill: #1f77b4; stroke: #333333; stroke-width: 0.6; stroke-linejoin: miter"/>
   </g>
   <g id="patch_14">
    <path d="M 0 0 
z
" clip-path="url(#pbd1295f984)" style="fill: #1f77b4; stroke: #333333; stroke-width: 0.6; stroke-linejoin: miter"/>
   </g>
   <g id="patch_15">
    <path d="M 0 0 
z
" clip-path="url(#pbd1295f984)" style="fill: #1f77b4; stroke: #333333; stroke-width: 0.6; stroke-linejoin: miter"/>
   </g>
   <g id="patch_16">
    <path d="M 671.031967 349.958276 
L 682.234948 349.958276 
L 682.234948 187.879337 
L 671.031967 187.879337 
z
" clip-path="url(#pbd1295f984)" style="fill: #1f77b4; stroke: #333333; stroke-width: 0.6; stroke-linejoin: miter"/>
   </g>
   <g id="patch_17">
    <path d="M 0 0 
z
" clip-path="url(#pbd1295f984)" style="fill: #1f77b4; stroke: #333333; stroke-width: 0.6; stroke-linejoin: miter"/>
   </g>
   <g id="patch_18">
    <path d="M 0 0 
z
" clip-path="url(#pbd1295f984)" style="fill: #1f77b4; stroke: #333333; stroke-width: 0.6; stroke-linejoin: miter"/>
   </g>
   <g id="patch_19">
    <path d="M 0 0 
z
" clip-path="url(#pbd1295f984)" style="fill: #ff7f0e; stroke: #333333; stroke-width: 0.6; stroke-linejoin: miter"/>
   </g>
   <g id="patch_20">
    <path d="M 0 0 
z
" clip-path="url(#pbd1295f984)" style="fill: #ff7f0e; stroke: #333333; stroke-width: 0.6; stroke-linejoin: miter"/>
   </g>
   <g id="patch_21">
    <path d="M 231.383278 349.958276 
L 242.586259 349.958276 
L 242.586259 182.420091 
L 231.383278 182.420091 
z
" clip-path="url(#pbd1295f984)" style="fill: #ff7f0e; stroke: #333333; stroke-width: 0.6; stroke-linejoin: miter"/>
   </g>
   <g id="patch_22">
    <path d="M 0 0 
z
" clip-path="url(#pbd1295f984)" style="fill: #ff7f0e; stroke: #333333; stroke-width: 0.6; stroke-linejoin: miter"/>
   </g>
   <g id="patch_23">
    <path d="M 0 0 
z
" clip-path="url(#pbd1295f984)" style="fill: #ff7f0e; stroke: #333333; stroke-width: 0.6; stroke-linejoin: miter"/>
   </g>
   <g id="patch_24">
    <path d="M 0 0 
z
" clip-path="url(#pbd1295f984)" style="fill: #ff7f0e; stroke: #333333; stroke-width: 0.6; stroke-linejoin: miter"/>
   </g>
   <g id="patch_25">
    <path d="M 0 0 
z
" clip-path="url(#pbd1295f984)" style="fill: #ff7f0e; stroke: #333333; stroke-width: 0.6; stroke-linejoin: miter"/>
   </g>
   <g id="patch_26">
    <path d="M 0 0 
z
" clip-path="url(#pbd1295f984)" style="fill: #ff7f0e; stroke: #333333; stroke-width: 0.6; stroke-linejoin: miter"/>
   </g>
   <g id="patch_27">
    <path d="M 0 0 
z
" clip-path="url(#pbd1295f984)" style="fill: #ff7f0e; stroke: #333333; stroke-width: 0.6; stroke-linejoin: miter"/>
   </g>
   <g id="patch_28">
    <path d="M 518.288886 349.958276 
L 529.491867 349.958276 
L 529.491867 64.136434 
L 518.288886 64.136434 
z
" clip-path="url(#pbd1295f984)" style="fill: #ff7f0e; stroke: #333333; stroke-width: 0.6; stroke-linejoin: miter"/>
   </g>
   <g id="patch_29">
    <path d="M 0 0 
z
" clip-path="url(#pbd1295f984)" style="fill: #ff7f0e; stroke: #333333; stroke-width: 0.6; stroke-linejoin: miter"/>
   </g>
   <g id="patch_30">
    <path d="M 0 0 
z
" clip-path="url(#pbd1295f984)" style="fill: #ff7f0e; stroke: #333333; stroke-width: 0.6; stroke-linejoin: miter"/>
   </g>
   <g id="patch_31">
    <path d="M 0 0 
z
" clip-path="url(#pbd1295f984)" style="fill: #ff7f0e; stroke: #333333; stroke-width: 0.6; stroke-linejoin: miter"/>
   </g>
   <g id="patch_32">
    <path d="M 682.234948 349.958276 
L 693.437929 349.958276 
L 693.437929 171.865549 
L 682.234948 171.865549 
z
" clip-path="url(#pbd1295f984)" style="fill: #ff7f0e; stroke: #333333; stroke-width: 0.6; stroke-linejoin: miter"/>
   </g>
   <g id="patch_33">
    <path d="M 0 0 
z
" clip-path="url(#pbd1295f984)" style="fill: #ff7f0e; stroke: #333333; stroke-width: 0.6; stroke-linejoin: miter"/>
   </g>
   <g id="patch_34">
    <path d="M 0 0 
z
" clip-path="url(#pbd1295f984)" style="fill: #ff7f0e; stroke: #333333; stroke-width: 0.6; stroke-linejoin: miter"/>
   </g>
   <g id="patch_35">
    <path d="M 0 0 
z
" clip-path="url(#pbd1295f984)" style="fill: #2ca02c; stroke: #333333; stroke-width: 0.6; stroke-linejoin: miter"/>
   </g>
   <g id="patch_36">
    <path d="M 0 0 
z
" clip-path="url(#pbd1295f984)" style="fill: #2ca02c; stroke: #333333; stroke-width: 0.6; stroke-linejoin: miter"/>
   </g>
   <g id="patch_37">
    <path d="M 242.586259 349.958276 
L 253.78924 349.958276 
L 253.78924 208.260521 
L 242.586259 208.260521 
z
" clip-path="url(#pbd1295f984)" style="fill: #2ca02c; stroke: #333333; stroke-width: 0.6; stroke-linejoin: miter"/>
   </g>
   <g id="patch_38">
    <path d="M 0 0 
z
" clip-path="url(#pbd1295f984)" style="fill: #2ca02c; stroke: #333333; stroke-width: 0.6; stroke-linejoin: miter"/>
   </g>
   <g id="patch_39">
    <path d="M 0 0 
z
" clip-path="url(#pbd1295f984)" style="fill: #2ca02c; stroke: #333333; stroke-width: 0.6; stroke-linejoin: miter"/>
   </g>
   <g id="patch_40">
    <path d="M 0 0 
z
" clip-path="url(#pbd1295f984)" style="fill: #2ca02c; stroke: #333333; stroke-width: 0.6; stroke-linejoin: miter"/>
   </g>
   <g id="patch_41">
    <path d="M 0 0 
z
" clip-path="url(#pbd1295f984)" style="fill: #2ca02c; stroke: #333333; stroke-width: 0.6; stroke-linejoin: miter"/>
   </g>
   <g id="patch_42">
    <path d="M 0 0 
z
" clip-path="url(#pbd1295f984)" style="fill: #2ca02c; stroke: #333333; stroke-width: 0.6; stroke-linejoin: miter"/>
   </g>
   <g id="patch_43">
    <path d="M 0 0 
z
" clip-path="url(#pbd1295f984)" style="fill: #2ca02c; stroke: #333333; stroke-width: 0.6; stroke-linejoin: miter"/>
   </g>
   <g id="patch_44">
    <path d="M 529.491867 349.958276 
L 540.694848 349.958276 
L 540.694848 73.720443 
L 529.491867 73.720443 
z
" clip-path="url(#pbd1295f984)" style="fill: #2ca02c; stroke: #333333; stroke-width: 0.6; stroke-linejoin: miter"/>
   </g>
   <g id="patch_45">
    <path d="M 0 0 
z
" clip-path="url(#pbd1295f984)" style="fill: #2ca02c; stroke: #333333; stroke-width: 0.6; stroke-linejoin: miter"/>
   </g>
   <g id="patch_46">
    <path d="M 0 0 
z
" clip-path="url(#pbd1295f984)" style="fill: #2ca02c; stroke: #333333; stroke-width: 0.6; stroke-linejoin: miter"/>
   </g>
   <g id="patch_47">
    <path d="M 0 0 
z
" clip-path="url(#pbd1295f984)" style="fill: #2ca02c; stroke: #333333; stroke-width: 0.6; stroke-linejoin: miter"/>
   </g>
   <g id="patch_48">
    <path d="M 693.437929 349.958276 
L 704.64091 349.958276 
L 704.64091 153.061481 
L 693.437929 153.061481 
z
" clip-path="url(#pbd1295f984)" style="fill: #2ca02c; stroke: #333333; stroke-width: 0.6; stroke-linejoin: miter"/>
   </g>
   <g id="patch_49">
    <path d="M 0 0 
z
" clip-path="url(#pbd1295f984)" style="fill: #2ca02c; stroke: #333333; stroke-width: 0.6; stroke-linejoin: miter"/>
   </g>
   <g id="patch_50">
    <path d="M 0 0 
z
" clip-path="url(#pbd1295f984)" style="fill: #2ca02c; stroke: #333333; stroke-width: 0.6; stroke-linejoin: miter"/>
   </g>
   <g id="matplotlib.axis_1">
    <g id="xtick_1">
     <g id="line2d_1">
      <defs>
       <path id="m7e500ae593" d="M 0 0 
L 0 3.5 
" style="stroke: #000000; stroke-width: 0.8"/>
      </defs>
      <g>
       <use xlink:href="#m7e500ae593" x="155.011738" y="349.958276" style="stroke: #000000; stroke-width: 0.8"/>
      </g>
     </g>
     <g id="text_1">
      <!-- Accommod-ation &amp; food services -->
      <g transform="translate(10.999219 446.084029) rotate(-30) scale(0.1 -0.1)">
       <defs>
        <path id="DejaVuSans-41" d="M 2188 4044 
L 1331 1722 
L 3047 1722 
L 2188 4044 
z
M 1831 4666 
L 2547 4666 
L 4325 0 
L 3669 0 
L 3244 1197 
L 1141 1197 
L 716 0 
L 50 0 
L 1831 4666 
z
" transform="scale(0.015625)"/>
        <path id="DejaVuSans-63" d="M 3122 3366 
L 3122 2828 
Q 2878 2963 2633 3030 
Q 2388 3097 2138 3097 
Q 1578 3097 1268 2742 
Q 959 2388 959 1747 
Q 959 1106 1268 751 
Q 1578 397 2138 397 
Q 2388 397 2633 464 
Q 2878 531 3122 666 
L 3122 134 
Q 2881 22 2623 -34 
Q 2366 -91 2075 -91 
Q 1284 -91 818 406 
Q 353 903 353 1747 
Q 353 2603 823 3093 
Q 1294 3584 2113 3584 
Q 2378 3584 2631 3529 
Q 2884 3475 3122 3366 
z
" transform="scale(0.015625)"/>
        <path id="DejaVuSans-6f" d="M 1959 3097 
Q 1497 3097 1228 2736 
Q 959 2375 959 1747 
Q 959 1119 1226 758 
Q 1494 397 1959 397 
Q 2419 397 2687 759 
Q 2956 1122 2956 1747 
Q 2956 2369 2687 2733 
Q 2419 3097 1959 3097 
z
M 1959 3584 
Q 2709 3584 3137 3096 
Q 3566 2609 3566 1747 
Q 3566 888 3137 398 
Q 2709 -91 1959 -91 
Q 1206 -91 779 398 
Q 353 888 353 1747 
Q 353 2609 779 3096 
Q 1206 3584 1959 3584 
z
" transform="scale(0.015625)"/>
        <path id="DejaVuSans-6d" d="M 3328 2828 
Q 3544 3216 3844 3400 
Q 4144 3584 4550 3584 
Q 5097 3584 5394 3201 
Q 5691 2819 5691 2113 
L 5691 0 
L 5113 0 
L 5113 2094 
Q 5113 2597 4934 2840 
Q 4756 3084 4391 3084 
Q 3944 3084 3684 2787 
Q 3425 2491 3425 1978 
L 3425 0 
L 2847 0 
L 2847 2094 
Q 2847 2600 2669 2842 
Q 2491 3084 2119 3084 
Q 1678 3084 1418 2786 
Q 1159 2488 1159 1978 
L 1159 0 
L 581 0 
L 581 3500 
L 1159 3500 
L 1159 2956 
Q 1356 3278 1631 3431 
Q 1906 3584 2284 3584 
Q 2666 3584 2933 3390 
Q 3200 3197 3328 2828 
z
" transform="scale(0.015625)"/>
        <path id="DejaVuSans-64" d="M 2906 2969 
L 2906 4863 
L 3481 4863 
L 3481 0 
L 2906 0 
L 2906 525 
Q 2725 213 2448 61 
Q 2172 -91 1784 -91 
Q 1150 -91 751 415 
Q 353 922 353 1747 
Q 353 2572 751 3078 
Q 1150 3584 1784 3584 
Q 2172 3584 2448 3432 
Q 2725 3281 2906 2969 
z
M 947 1747 
Q 947 1113 1208 752 
Q 1469 391 1925 391 
Q 2381 391 2643 752 
Q 2906 1113 2906 1747 
Q 2906 2381 2643 2742 
Q 2381 3103 1925 3103 
Q 1469 3103 1208 2742 
Q 947 2381 947 1747 
z
" transform="scale(0.015625)"/>
        <path id="DejaVuSans-2d" d="M 313 2009 
L 1997 2009 
L 1997 1497 
L 313 1497 
L 313 2009 
z
" transform="scale(0.015625)"/>
        <path id="DejaVuSans-61" d="M 2194 1759 
Q 1497 1759 1228 1600 
Q 959 1441 959 1056 
Q 959 750 1161 570 
Q 1363 391 1709 391 
Q 2188 391 2477 730 
Q 2766 1069 2766 1631 
L 2766 1759 
L 2194 1759 
z
M 3341 1997 
L 3341 0 
L 2766 0 
L 2766 531 
Q 2569 213 2275 61 
Q 1981 -91 1556 -91 
Q 1019 -91 701 211 
Q 384 513 384 1019 
Q 384 1609 779 1909 
Q 1175 2209 1959 2209 
L 2766 2209 
L 2766 2266 
Q 2766 2663 2505 2880 
Q 2244 3097 1772 3097 
Q 1472 3097 1187 3025 
Q 903 2953 641 2809 
L 641 3341 
Q 956 3463 1253 3523 
Q 1550 3584 1831 3584 
Q 2591 3584 2966 3190 
Q 3341 2797 3341 1997 
z
" transform="scale(0.015625)"/>
        <path id="DejaVuSans-74" d="M 1172 4494 
L 1172 3500 
L 2356 3500 
L 2356 3053 
L 1172 3053 
L 1172 1153 
Q 1172 725 1289 603 
Q 1406 481 1766 481 
L 2356 481 
L 2356 0 
L 1766 0 
Q 1100 0 847 248 
Q 594 497 594 1153 
L 594 3053 
L 172 3053 
L 172 3500 
L 594 3500 
L 594 4494 
L 1172 4494 
z
" transform="scale(0.015625)"/>
        <path id="DejaVuSans-69" d="M 603 3500 
L 1178 3500 
L 1178 0 
L 603 0 
L 603 3500 
z
M 603 4863 
L 1178 4863 
L 1178 4134 
L 603 4134 
L 603 4863 
z
" transform="scale(0.015625)"/>
        <path id="DejaVuSans-6e" d="M 3513 2113 
L 3513 0 
L 2938 0 
L 2938 2094 
Q 2938 2591 2744 2837 
Q 2550 3084 2163 3084 
Q 1697 3084 1428 2787 
Q 1159 2491 1159 1978 
L 1159 0 
L 581 0 
L 581 3500 
L 1159 3500 
L 1159 2956 
Q 1366 3272 1645 3428 
Q 1925 3584 2291 3584 
Q 2894 3584 3203 3211 
Q 3513 2838 3513 2113 
z
" transform="scale(0.015625)"/>
        <path id="DejaVuSans-20" transform="scale(0.015625)"/>
        <path id="DejaVuSans-26" d="M 1556 2509 
Q 1272 2256 1139 2004 
Q 1006 1753 1006 1478 
Q 1006 1022 1337 719 
Q 1669 416 2169 416 
Q 2466 416 2725 514 
Q 2984 613 3213 813 
L 1556 2509 
z
M 1997 2859 
L 3584 1234 
Q 3769 1513 3872 1830 
Q 3975 2147 3994 2503 
L 4575 2503 
Q 4538 2091 4375 1687 
Q 4213 1284 3922 891 
L 4794 0 
L 4006 0 
L 3559 459 
Q 3234 181 2878 45 
Q 2522 -91 2113 -91 
Q 1359 -91 881 339 
Q 403 769 403 1441 
Q 403 1841 612 2192 
Q 822 2544 1241 2853 
Q 1091 3050 1012 3245 
Q 934 3441 934 3628 
Q 934 4134 1281 4442 
Q 1628 4750 2203 4750 
Q 2463 4750 2720 4694 
Q 2978 4638 3244 4525 
L 3244 3956 
Q 2972 4103 2725 4179 
Q 2478 4256 2266 4256 
Q 1938 4256 1733 4082 
Q 1528 3909 1528 3634 
Q 1528 3475 1620 3314 
Q 1713 3153 1997 2859 
z
" transform="scale(0.015625)"/>
        <path id="DejaVuSans-66" d="M 2375 4863 
L 2375 4384 
L 1825 4384 
Q 1516 4384 1395 4259 
Q 1275 4134 1275 3809 
L 1275 3500 
L 2222 3500 
L 2222 3053 
L 1275 3053 
L 1275 0 
L 697 0 
L 697 3053 
L 147 3053 
L 147 3500 
L 697 3500 
L 697 3744 
Q 697 4328 969 4595 
Q 1241 4863 1831 4863 
L 2375 4863 
z
" transform="scale(0.015625)"/>
        <path id="DejaVuSans-73" d="M 2834 3397 
L 2834 2853 
Q 2591 2978 2328 3040 
Q 2066 3103 1784 3103 
Q 1356 3103 1142 2972 
Q 928 2841 928 2578 
Q 928 2378 1081 2264 
Q 1234 2150 1697 2047 
L 1894 2003 
Q 2506 1872 2764 1633 
Q 3022 1394 3022 966 
Q 3022 478 2636 193 
Q 2250 -91 1575 -91 
Q 1294 -91 989 -36 
Q 684 19 347 128 
L 347 722 
Q 666 556 975 473 
Q 1284 391 1588 391 
Q 1994 391 2212 530 
Q 2431 669 2431 922 
Q 2431 1156 2273 1281 
Q 2116 1406 1581 1522 
L 1381 1569 
Q 847 1681 609 1914 
Q 372 2147 372 2553 
Q 372 3047 722 3315 
Q 1072 3584 1716 3584 
Q 2034 3584 2315 3537 
Q 2597 3491 2834 3397 
z
" transform="scale(0.015625)"/>
        <path id="DejaVuSans-65" d="M 3597 1894 
L 3597 1613 
L 953 1613 
Q 991 1019 1311 708 
Q 1631 397 2203 397 
Q 2534 397 2845 478 
Q 3156 559 3463 722 
L 3463 178 
Q 3153 47 2828 -22 
Q 2503 -91 2169 -91 
Q 1331 -91 842 396 
Q 353 884 353 1716 
Q 353 2575 817 3079 
Q 1281 3584 2069 3584 
Q 2775 3584 3186 3129 
Q 3597 2675 3597 1894 
z
M 3022 2063 
Q 3016 2534 2758 2815 
Q 2500 3097 2075 3097 
Q 1594 3097 1305 2825 
Q 1016 2553 972 2059 
L 3022 2063 
z
" transform="scale(0.015625)"/>
        <path id="DejaVuSans-72" d="M 2631 2963 
Q 2534 3019 2420 3045 
Q 2306 3072 2169 3072 
Q 1681 3072 1420 2755 
Q 1159 2438 1159 1844 
L 1159 0 
L 581 0 
L 581 3500 
L 1159 3500 
L 1159 2956 
Q 1341 3275 1631 3429 
Q 1922 3584 2338 3584 
Q 2397 3584 2469 3576 
Q 2541 3569 2628 3553 
L 2631 2963 
z
" transform="scale(0.015625)"/>
        <path id="DejaVuSans-76" d="M 191 3500 
L 800 3500 
L 1894 563 
L 2988 3500 
L 3597 3500 
L 2284 0 
L 1503 0 
L 191 3500 
z
" transform="scale(0.015625)"/>
       </defs>
       <use xlink:href="#DejaVuSans-41"/>
       <use xlink:href="#DejaVuSans-63" transform="translate(66.658203 0)"/>
       <use xlink:href="#DejaVuSans-63" transform="translate(121.638672 0)"/>
       <use xlink:href="#DejaVuSans-6f" transform="translate(176.619141 0)"/>
       <use xlink:href="#DejaVuSans-6d" transform="translate(237.800781 0)"/>
       <use xlink:href="#DejaVuSans-6d" transform="translate(335.212891 0)"/>
       <use xlink:href="#DejaVuSans-6f" transform="translate(432.625 0)"/>
       <use xlink:href="#DejaVuSans-64" transform="translate(493.806641 0)"/>
       <use xlink:href="#DejaVuSans-2d" transform="translate(557.283203 0)"/>
       <use xlink:href="#DejaVuSans-61" transform="translate(593.367188 0)"/>
       <use xlink:href="#DejaVuSans-74" transform="translate(654.646484 0)"/>
       <use xlink:href="#DejaVuSans-69" transform="translate(693.855469 0)"/>
       <use xlink:href="#DejaVuSans-6f" transform="translate(721.638672 0)"/>
       <use xlink:href="#DejaVuSans-6e" transform="translate(782.820312 0)"/>
       <use xlink:href="#DejaVuSans-20" transform="translate(846.199219 0)"/>
       <use xlink:href="#DejaVuSans-26" transform="translate(877.986328 0)"/>
       <use xlink:href="#DejaVuSans-20" transform="translate(955.964844 0)"/>
       <use xlink:href="#DejaVuSans-66" transform="translate(987.751953 0)"/>
       <use xlink:href="#DejaVuSans-6f" transform="translate(1022.957031 0)"/>
       <use xlink:href="#DejaVuSans-6f" transform="translate(1084.138672 0)"/>
       <use xlink:href="#DejaVuSans-64" transform="translate(1145.320312 0)"/>
       <use xlink:href="#DejaVuSans-20" transform="translate(1208.796875 0)"/>
       <use xlink:href="#DejaVuSans-73" transform="translate(1240.583984 0)"/>
       <use xlink:href="#DejaVuSans-65" transform="translate(1292.683594 0)"/>
       <use xlink:href="#DejaVuSans-72" transform="translate(1354.207031 0)"/>
       <use xlink:href="#DejaVuSans-76" transform="translate(1395.320312 0)"/>
       <use xlink:href="#DejaVuSans-69" transform="translate(1454.5 0)"/>
       <use xlink:href="#DejaVuSans-63" transform="translate(1482.283203 0)"/>
       <use xlink:href="#DejaVuSans-65" transform="translate(1537.263672 0)"/>
       <use xlink:href="#DejaVuSans-73" transform="translate(1598.787109 0)"/>
      </g>
     </g>
    </g>
    <g id="xtick_2">
     <g id="line2d_2">
      <g>
       <use xlink:href="#m7e500ae593" x="195.998253" y="349.958276" style="stroke: #000000; stroke-width: 0.8"/>
      </g>
     </g>
     <g id="text_2">
      <!-- Administrative &amp; support services -->
      <g transform="translate(48.127862 448.311373) rotate(-30) scale(0.1 -0.1)">
       <defs>
        <path id="DejaVuSans-75" d="M 544 1381 
L 544 3500 
L 1119 3500 
L 1119 1403 
Q 1119 906 1312 657 
Q 1506 409 1894 409 
Q 2359 409 2629 706 
Q 2900 1003 2900 1516 
L 2900 3500 
L 3475 3500 
L 3475 0 
L 2900 0 
L 2900 538 
Q 2691 219 2414 64 
Q 2138 -91 1772 -91 
Q 1169 -91 856 284 
Q 544 659 544 1381 
z
M 1991 3584 
L 1991 3584 
z
" transform="scale(0.015625)"/>
        <path id="DejaVuSans-70" d="M 1159 525 
L 1159 -1331 
L 581 -1331 
L 581 3500 
L 1159 3500 
L 1159 2969 
Q 1341 3281 1617 3432 
Q 1894 3584 2278 3584 
Q 2916 3584 3314 3078 
Q 3713 2572 3713 1747 
Q 3713 922 3314 415 
Q 2916 -91 2278 -91 
Q 1894 -91 1617 61 
Q 1341 213 1159 525 
z
M 3116 1747 
Q 3116 2381 2855 2742 
Q 2594 3103 2138 3103 
Q 1681 3103 1420 2742 
Q 1159 2381 1159 1747 
Q 1159 1113 1420 752 
Q 1681 391 2138 391 
Q 2594 391 2855 752 
Q 3116 1113 3116 1747 
z
" transform="scale(0.015625)"/>
       </defs>
       <use xlink:href="#DejaVuSans-41"/>
       <use xlink:href="#DejaVuSans-64" transform="translate(66.658203 0)"/>
       <use xlink:href="#DejaVuSans-6d" transform="translate(130.134766 0)"/>
       <use xlink:href="#DejaVuSans-69" transform="translate(227.546875 0)"/>
       <use xlink:href="#DejaVuSans-6e" transform="translate(255.330078 0)"/>
       <use xlink:href="#DejaVuSans-69" transform="translate(318.708984 0)"/>
       <use xlink:href="#DejaVuSans-73" transform="translate(346.492188 0)"/>
       <use xlink:href="#DejaVuSans-74" transform="translate(398.591797 0)"/>
       <use xlink:href="#DejaVuSans-72" transform="translate(437.800781 0)"/>
       <use xlink:href="#DejaVuSans-61" transform="translate(478.914062 0)"/>
       <use xlink:href="#DejaVuSans-74" transform="translate(540.193359 0)"/>
       <use xlink:href="#DejaVuSans-69" transform="translate(579.402344 0)"/>
       <use xlink:href="#DejaVuSans-76" transform="translate(607.185547 0)"/>
       <use xlink:href="#DejaVuSans-65" transform="translate(666.365234 0)"/>
       <use xlink:href="#DejaVuSans-20" transform="translate(727.888672 0)"/>
       <use xlink:href="#DejaVuSans-26" transform="translate(759.675781 0)"/>
       <use xlink:href="#DejaVuSans-20" transform="translate(837.654297 0)"/>
       <use xlink:href="#DejaVuSans-73" transform="translate(869.441406 0)"/>
       <use xlink:href="#DejaVuSans-75" transform="translate(921.541016 0)"/>
       <use xlink:href="#DejaVuSans-70" transform="translate(984.919922 0)"/>
       <use xlink:href="#DejaVuSans-70" transform="translate(1048.396484 0)"/>
       <use xlink:href="#DejaVuSans-6f" transform="translate(1111.873047 0)"/>
       <use xlink:href="#DejaVuSans-72" transform="translate(1173.054688 0)"/>
       <use xlink:href="#DejaVuSans-74" transform="translate(1214.167969 0)"/>
       <use xlink:href="#DejaVuSans-20" transform="translate(1253.376953 0)"/>
       <use xlink:href="#DejaVuSans-73" transform="translate(1285.164062 0)"/>
       <use xlink:href="#DejaVuSans-65" transform="translate(1337.263672 0)"/>
       <use xlink:href="#DejaVuSans-72" transform="translate(1398.787109 0)"/>
       <use xlink:href="#DejaVuSans-76" transform="translate(1439.900391 0)"/>
       <use xlink:href="#DejaVuSans-69" transform="translate(1499.080078 0)"/>
       <use xlink:href="#DejaVuSans-63" transform="translate(1526.863281 0)"/>
       <use xlink:href="#DejaVuSans-65" transform="translate(1581.84375 0)"/>
       <use xlink:href="#DejaVuSans-73" transform="translate(1643.367188 0)"/>
      </g>
     </g>
    </g>
    <g id="xtick_3">
     <g id="line2d_3">
      <g>
       <use xlink:href="#m7e500ae593" x="236.984769" y="349.958276" style="stroke: #000000; stroke-width: 0.8"/>
      </g>
     </g>
     <g id="text_3">
      <!-- Agriculture, forestry &amp; fishing -->
      <g transform="translate(108.07898 437.362154) rotate(-30) scale(0.1 -0.1)">
       <defs>
        <path id="DejaVuSans-67" d="M 2906 1791 
Q 2906 2416 2648 2759 
Q 2391 3103 1925 3103 
Q 1463 3103 1205 2759 
Q 947 2416 947 1791 
Q 947 1169 1205 825 
Q 1463 481 1925 481 
Q 2391 481 2648 825 
Q 2906 1169 2906 1791 
z
M 3481 434 
Q 3481 -459 3084 -895 
Q 2688 -1331 1869 -1331 
Q 1566 -1331 1297 -1286 
Q 1028 -1241 775 -1147 
L 775 -588 
Q 1028 -725 1275 -790 
Q 1522 -856 1778 -856 
Q 2344 -856 2625 -561 
Q 2906 -266 2906 331 
L 2906 616 
Q 2728 306 2450 153 
Q 2172 0 1784 0 
Q 1141 0 747 490 
Q 353 981 353 1791 
Q 353 2603 747 3093 
Q 1141 3584 1784 3584 
Q 2172 3584 2450 3431 
Q 2728 3278 2906 2969 
L 2906 3500 
L 3481 3500 
L 3481 434 
z
" transform="scale(0.015625)"/>
        <path id="DejaVuSans-6c" d="M 603 4863 
L 1178 4863 
L 1178 0 
L 603 0 
L 603 4863 
z
" transform="scale(0.015625)"/>
        <path id="DejaVuSans-2c" d="M 750 794 
L 1409 794 
L 1409 256 
L 897 -744 
L 494 -744 
L 750 256 
L 750 794 
z
" transform="scale(0.015625)"/>
        <path id="DejaVuSans-79" d="M 2059 -325 
Q 1816 -950 1584 -1140 
Q 1353 -1331 966 -1331 
L 506 -1331 
L 506 -850 
L 844 -850 
Q 1081 -850 1212 -737 
Q 1344 -625 1503 -206 
L 1606 56 
L 191 3500 
L 800 3500 
L 1894 763 
L 2988 3500 
L 3597 3500 
L 2059 -325 
z
" transform="scale(0.015625)"/>
        <path id="DejaVuSans-68" d="M 3513 2113 
L 3513 0 
L 2938 0 
L 2938 2094 
Q 2938 2591 2744 2837 
Q 2550 3084 2163 3084 
Q 1697 3084 1428 2787 
Q 1159 2491 1159 1978 
L 1159 0 
L 581 0 
L 581 4863 
L 1159 4863 
L 1159 2956 
Q 1366 3272 1645 3428 
Q 1925 3584 2291 3584 
Q 2894 3584 3203 3211 
Q 3513 2838 3513 2113 
z
" transform="scale(0.015625)"/>
       </defs>
       <use xlink:href="#DejaVuSans-41"/>
       <use xlink:href="#DejaVuSans-67" transform="translate(68.408203 0)"/>
       <use xlink:href="#DejaVuSans-72" transform="translate(131.884766 0)"/>
       <use xlink:href="#DejaVuSans-69" transform="translate(172.998047 0)"/>
       <use xlink:href="#DejaVuSans-63" transform="translate(200.78125 0)"/>
       <use xlink:href="#DejaVuSans-75" transform="translate(255.761719 0)"/>
       <use xlink:href="#DejaVuSans-6c" transform="translate(319.140625 0)"/>
       <use xlink:href="#DejaVuSans-74" transform="translate(346.923828 0)"/>
       <use xlink:href="#DejaVuSans-75" transform="translate(386.132812 0)"/>
       <use xlink:href="#DejaVuSans-72" transform="translate(449.511719 0)"/>
       <use xlink:href="#DejaVuSans-65" transform="translate(488.375 0)"/>
       <use xlink:href="#DejaVuSans-2c" transform="translate(549.898438 0)"/>
       <use xlink:href="#DejaVuSans-20" transform="translate(581.685547 0)"/>
       <use xlink:href="#DejaVuSans-66" transform="translate(613.472656 0)"/>
       <use xlink:href="#DejaVuSans-6f" transform="translate(648.677734 0)"/>
       <use xlink:href="#DejaVuSans-72" transform="translate(709.859375 0)"/>
       <use xlink:href="#DejaVuSans-65" transform="translate(748.722656 0)"/>
       <use xlink:href="#DejaVuSans-73" transform="translate(810.246094 0)"/>
       <use xlink:href="#DejaVuSans-74" transform="translate(862.345703 0)"/>
       <use xlink:href="#DejaVuSans-72" transform="translate(901.554688 0)"/>
       <use xlink:href="#DejaVuSans-79" transform="translate(942.667969 0)"/>
       <use xlink:href="#DejaVuSans-20" transform="translate(1001.847656 0)"/>
       <use xlink:href="#DejaVuSans-26" transform="translate(1033.634766 0)"/>
       <use xlink:href="#DejaVuSans-20" transform="translate(1111.613281 0)"/>
       <use xlink:href="#DejaVuSans-66" transform="translate(1143.400391 0)"/>
       <use xlink:href="#DejaVuSans-69" transform="translate(1178.605469 0)"/>
       <use xlink:href="#DejaVuSans-73" transform="translate(1206.388672 0)"/>
       <use xlink:href="#DejaVuSans-68" transform="translate(1258.488281 0)"/>
       <use xlink:href="#DejaVuSans-69" transform="translate(1321.867188 0)"/>
       <use xlink:href="#DejaVuSans-6e" transform="translate(1349.650391 0)"/>
       <use xlink:href="#DejaVuSans-67" transform="translate(1413.029297 0)"/>
      </g>
     </g>
    </g>
    <g id="xtick_4">
     <g id="line2d_4">
      <g>
       <use xlink:href="#m7e500ae593" x="277.971284" y="349.958276" style="stroke: #000000; stroke-width: 0.8"/>
      </g>
     </g>
     <g id="text_4">
      <!-- Construction -->
      <g transform="translate(221.791332 395.373873) rotate(-30) scale(0.1 -0.1)">
       <defs>
        <path id="DejaVuSans-43" d="M 4122 4306 
L 4122 3641 
Q 3803 3938 3442 4084 
Q 3081 4231 2675 4231 
Q 1875 4231 1450 3742 
Q 1025 3253 1025 2328 
Q 1025 1406 1450 917 
Q 1875 428 2675 428 
Q 3081 428 3442 575 
Q 3803 722 4122 1019 
L 4122 359 
Q 3791 134 3420 21 
Q 3050 -91 2638 -91 
Q 1578 -91 968 557 
Q 359 1206 359 2328 
Q 359 3453 968 4101 
Q 1578 4750 2638 4750 
Q 3056 4750 3426 4639 
Q 3797 4528 4122 4306 
z
" transform="scale(0.015625)"/>
       </defs>
       <use xlink:href="#DejaVuSans-43"/>
       <use xlink:href="#DejaVuSans-6f" transform="translate(69.824219 0)"/>
       <use xlink:href="#DejaVuSans-6e" transform="translate(131.005859 0)"/>
       <use xlink:href="#DejaVuSans-73" transform="translate(194.384766 0)"/>
       <use xlink:href="#DejaVuSans-74" transform="translate(246.484375 0)"/>
       <use xlink:href="#DejaVuSans-72" transform="translate(285.693359 0)"/>
       <use xlink:href="#DejaVuSans-75" transform="translate(326.806641 0)"/>
       <use xlink:href="#DejaVuSans-63" transform="translate(390.185547 0)"/>
       <use xlink:href="#DejaVuSans-74" transform="translate(445.166016 0)"/>
       <use xlink:href="#DejaVuSans-69" transform="translate(484.375 0)"/>
       <use xlink:href="#DejaVuSans-6f" transform="translate(512.158203 0)"/>
       <use xlink:href="#DejaVuSans-6e" transform="translate(573.339844 0)"/>
      </g>
     </g>
    </g>
    <g id="xtick_5">
     <g id="line2d_5">
      <g>
       <use xlink:href="#m7e500ae593" x="318.957799" y="349.958276" style="stroke: #000000; stroke-width: 0.8"/>
      </g>
     </g>
     <g id="text_5">
      <!-- Education -->
      <g transform="translate(274.802069 388.431685) rotate(-30) scale(0.1 -0.1)">
       <defs>
        <path id="DejaVuSans-45" d="M 628 4666 
L 3578 4666 
L 3578 4134 
L 1259 4134 
L 1259 2753 
L 3481 2753 
L 3481 2222 
L 1259 2222 
L 1259 531 
L 3634 531 
L 3634 0 
L 628 0 
L 628 4666 
z
" transform="scale(0.015625)"/>
       </defs>
       <use xlink:href="#DejaVuSans-45"/>
       <use xlink:href="#DejaVuSans-64" transform="translate(63.183594 0)"/>
       <use xlink:href="#DejaVuSans-75" transform="translate(126.660156 0)"/>
       <use xlink:href="#DejaVuSans-63" transform="translate(190.039062 0)"/>
       <use xlink:href="#DejaVuSans-61" transform="translate(245.019531 0)"/>
       <use xlink:href="#DejaVuSans-74" transform="translate(306.298828 0)"/>
       <use xlink:href="#DejaVuSans-69" transform="translate(345.507812 0)"/>
       <use xlink:href="#DejaVuSans-6f" transform="translate(373.291016 0)"/>
       <use xlink:href="#DejaVuSans-6e" transform="translate(434.472656 0)"/>
      </g>
     </g>
    </g>
    <g id="xtick_6">
     <g id="line2d_6">
      <g>
       <use xlink:href="#m7e500ae593" x="359.944315" y="349.958276" style="stroke: #000000; stroke-width: 0.8"/>
      </g>
     </g>
     <g id="text_6">
      <!-- Financial &amp; insurance activities -->
      <g transform="translate(224.586637 441.087154) rotate(-30) scale(0.1 -0.1)">
       <defs>
        <path id="DejaVuSans-46" d="M 628 4666 
L 3309 4666 
L 3309 4134 
L 1259 4134 
L 1259 2759 
L 3109 2759 
L 3109 2228 
L 1259 2228 
L 1259 0 
L 628 0 
L 628 4666 
z
" transform="scale(0.015625)"/>
       </defs>
       <use xlink:href="#DejaVuSans-46"/>
       <use xlink:href="#DejaVuSans-69" transform="translate(50.269531 0)"/>
       <use xlink:href="#DejaVuSans-6e" transform="translate(78.052734 0)"/>
       <use xlink:href="#DejaVuSans-61" transform="translate(141.431641 0)"/>
       <use xlink:href="#DejaVuSans-6e" transform="translate(202.710938 0)"/>
       <use xlink:href="#DejaVuSans-63" transform="translate(266.089844 0)"/>
       <use xlink:href="#DejaVuSans-69" transform="translate(321.070312 0)"/>
       <use xlink:href="#DejaVuSans-61" transform="translate(348.853516 0)"/>
       <use xlink:href="#DejaVuSans-6c" transform="translate(410.132812 0)"/>
       <use xlink:href="#DejaVuSans-20" transform="translate(437.916016 0)"/>
       <use xlink:href="#DejaVuSans-26" transform="translate(469.703125 0)"/>
       <use xlink:href="#DejaVuSans-20" transform="translate(547.681641 0)"/>
       <use xlink:href="#DejaVuSans-69" transform="translate(579.46875 0)"/>
       <use xlink:href="#DejaVuSans-6e" transform="translate(607.251953 0)"/>
       <use xlink:href="#DejaVuSans-73" transform="translate(670.630859 0)"/>
       <use xlink:href="#DejaVuSans-75" transform="translate(722.730469 0)"/>
       <use xlink:href="#DejaVuSans-72" transform="translate(786.109375 0)"/>
       <use xlink:href="#DejaVuSans-61" transform="translate(827.222656 0)"/>
       <use xlink:href="#DejaVuSans-6e" transform="translate(888.501953 0)"/>
       <use xlink:href="#DejaVuSans-63" transform="translate(951.880859 0)"/>
       <use xlink:href="#DejaVuSans-65" transform="translate(1006.861328 0)"/>
       <use xlink:href="#DejaVuSans-20" transform="translate(1068.384766 0)"/>
       <use xlink:href="#DejaVuSans-61" transform="translate(1100.171875 0)"/>
       <use xlink:href="#DejaVuSans-63" transform="translate(1161.451172 0)"/>
       <use xlink:href="#DejaVuSans-74" transform="translate(1216.431641 0)"/>
       <use xlink:href="#DejaVuSans-69" transform="translate(1255.640625 0)"/>
       <use xlink:href="#DejaVuSans-76" transform="translate(1283.423828 0)"/>
       <use xlink:href="#DejaVuSans-69" transform="translate(1342.603516 0)"/>
       <use xlink:href="#DejaVuSans-74" transform="translate(1370.386719 0)"/>
       <use xlink:href="#DejaVuSans-69" transform="translate(1409.595703 0)"/>
       <use xlink:href="#DejaVuSans-65" transform="translate(1437.378906 0)"/>
       <use xlink:href="#DejaVuSans-73" transform="translate(1498.902344 0)"/>
      </g>
     </g>
    </g>
    <g id="xtick_7">
     <g id="line2d_7">
      <g>
       <use xlink:href="#m7e500ae593" x="400.93083" y="349.958276" style="stroke: #000000; stroke-width: 0.8"/>
      </g>
     </g>
     <g id="text_7">
      <!-- Human health &amp; social work activities -->
      <g transform="translate(236.03898 458.138716) rotate(-30) scale(0.1 -0.1)">
       <defs>
        <path id="DejaVuSans-48" d="M 628 4666 
L 1259 4666 
L 1259 2753 
L 3553 2753 
L 3553 4666 
L 4184 4666 
L 4184 0 
L 3553 0 
L 3553 2222 
L 1259 2222 
L 1259 0 
L 628 0 
L 628 4666 
z
" transform="scale(0.015625)"/>
        <path id="DejaVuSans-77" d="M 269 3500 
L 844 3500 
L 1563 769 
L 2278 3500 
L 2956 3500 
L 3675 769 
L 4391 3500 
L 4966 3500 
L 4050 0 
L 3372 0 
L 2619 2869 
L 1863 0 
L 1184 0 
L 269 3500 
z
" transform="scale(0.015625)"/>
        <path id="DejaVuSans-6b" d="M 581 4863 
L 1159 4863 
L 1159 1991 
L 2875 3500 
L 3609 3500 
L 1753 1863 
L 3688 0 
L 2938 0 
L 1159 1709 
L 1159 0 
L 581 0 
L 581 4863 
z
" transform="scale(0.015625)"/>
       </defs>
       <use xlink:href="#DejaVuSans-48"/>
       <use xlink:href="#DejaVuSans-75" transform="translate(75.195312 0)"/>
       <use xlink:href="#DejaVuSans-6d" transform="translate(138.574219 0)"/>
       <use xlink:href="#DejaVuSans-61" transform="translate(235.986328 0)"/>
       <use xlink:href="#DejaVuSans-6e" transform="translate(297.265625 0)"/>
       <use xlink:href="#DejaVuSans-20" transform="translate(360.644531 0)"/>
       <use xlink:href="#DejaVuSans-68" transform="translate(392.431641 0)"/>
       <use xlink:href="#DejaVuSans-65" transform="translate(455.810547 0)"/>
       <use xlink:href="#DejaVuSans-61" transform="translate(517.333984 0)"/>
       <use xlink:href="#DejaVuSans-6c" transform="translate(578.613281 0)"/>
       <use xlink:href="#DejaVuSans-74" transform="translate(606.396484 0)"/>
       <use xlink:href="#DejaVuSans-68" transform="translate(645.605469 0)"/>
       <use xlink:href="#DejaVuSans-20" transform="translate(708.984375 0)"/>
       <use xlink:href="#DejaVuSans-26" transform="translate(740.771484 0)"/>
       <use xlink:href="#DejaVuSans-20" transform="translate(818.75 0)"/>
       <use xlink:href="#DejaVuSans-73" transform="translate(850.537109 0)"/>
       <use xlink:href="#DejaVuSans-6f" transform="translate(902.636719 0)"/>
       <use xlink:href="#DejaVuSans-63" transform="translate(963.818359 0)"/>
       <use xlink:href="#DejaVuSans-69" transform="translate(1018.798828 0)"/>
       <use xlink:href="#DejaVuSans-61" transform="translate(1046.582031 0)"/>
       <use xlink:href="#DejaVuSans-6c" transform="translate(1107.861328 0)"/>
       <use xlink:href="#DejaVuSans-20" transform="translate(1135.644531 0)"/>
       <use xlink:href="#DejaVuSans-77" transform="translate(1167.431641 0)"/>
       <use xlink:href="#DejaVuSans-6f" transform="translate(1249.21875 0)"/>
       <use xlink:href="#DejaVuSans-72" transform="translate(1310.400391 0)"/>
       <use xlink:href="#DejaVuSans-6b" transform="translate(1351.513672 0)"/>
       <use xlink:href="#DejaVuSans-20" transform="translate(1409.423828 0)"/>
       <use xlink:href="#DejaVuSans-61" transform="translate(1441.210938 0)"/>
       <use xlink:href="#DejaVuSans-63" transform="translate(1502.490234 0)"/>
       <use xlink:href="#DejaVuSans-74" transform="translate(1557.470703 0)"/>
       <use xlink:href="#DejaVuSans-69" transform="translate(1596.679688 0)"/>
       <use xlink:href="#DejaVuSans-76" transform="translate(1624.462891 0)"/>
       <use xlink:href="#DejaVuSans-69" transform="translate(1683.642578 0)"/>
       <use xlink:href="#DejaVuSans-74" transform="translate(1711.425781 0)"/>
       <use xlink:href="#DejaVuSans-69" transform="translate(1750.634766 0)"/>
       <use xlink:href="#DejaVuSans-65" transform="translate(1778.417969 0)"/>
       <use xlink:href="#DejaVuSans-73" transform="translate(1839.941406 0)"/>
      </g>
     </g>
    </g>
    <g id="xtick_8">
     <g id="line2d_8">
      <g>
       <use xlink:href="#m7e500ae593" x="441.917346" y="349.958276" style="stroke: #000000; stroke-width: 0.8"/>
      </g>
     </g>
     <g id="text_8">
      <!-- Information &amp; communication -->
      <g transform="translate(311.51631 438.225435) rotate(-30) scale(0.1 -0.1)">
       <defs>
        <path id="DejaVuSans-49" d="M 628 4666 
L 1259 4666 
L 1259 0 
L 628 0 
L 628 4666 
z
" transform="scale(0.015625)"/>
       </defs>
       <use xlink:href="#DejaVuSans-49"/>
       <use xlink:href="#DejaVuSans-6e" transform="translate(29.492188 0)"/>
       <use xlink:href="#DejaVuSans-66" transform="translate(92.871094 0)"/>
       <use xlink:href="#DejaVuSans-6f" transform="translate(128.076172 0)"/>
       <use xlink:href="#DejaVuSans-72" transform="translate(189.257812 0)"/>
       <use xlink:href="#DejaVuSans-6d" transform="translate(228.621094 0)"/>
       <use xlink:href="#DejaVuSans-61" transform="translate(326.033203 0)"/>
       <use xlink:href="#DejaVuSans-74" transform="translate(387.3125 0)"/>
       <use xlink:href="#DejaVuSans-69" transform="translate(426.521484 0)"/>
       <use xlink:href="#DejaVuSans-6f" transform="translate(454.304688 0)"/>
       <use xlink:href="#DejaVuSans-6e" transform="translate(515.486328 0)"/>
       <use xlink:href="#DejaVuSans-20" transform="translate(578.865234 0)"/>
       <use xlink:href="#DejaVuSans-26" transform="translate(610.652344 0)"/>
       <use xlink:href="#DejaVuSans-20" transform="translate(688.630859 0)"/>
       <use xlink:href="#DejaVuSans-63" transform="translate(720.417969 0)"/>
       <use xlink:href="#DejaVuSans-6f" transform="translate(775.398438 0)"/>
       <use xlink:href="#DejaVuSans-6d" transform="translate(836.580078 0)"/>
       <use xlink:href="#DejaVuSans-6d" transform="translate(933.992188 0)"/>
       <use xlink:href="#DejaVuSans-75" transform="translate(1031.404297 0)"/>
       <use xlink:href="#DejaVuSans-6e" transform="translate(1094.783203 0)"/>
       <use xlink:href="#DejaVuSans-69" transform="translate(1158.162109 0)"/>
       <use xlink:href="#DejaVuSans-63" transform="translate(1185.945312 0)"/>
       <use xlink:href="#DejaVuSans-61" transform="translate(1240.925781 0)"/>
       <use xlink:href="#DejaVuSans-74" transform="translate(1302.205078 0)"/>
       <use xlink:href="#DejaVuSans-69" transform="translate(1341.414062 0)"/>
       <use xlink:href="#DejaVuSans-6f" transform="translate(1369.197266 0)"/>
       <use xlink:href="#DejaVuSans-6e" transform="translate(1430.378906 0)"/>
      </g>
     </g>
    </g>
    <g id="xtick_9">
     <g id="line2d_9">
      <g>
       <use xlink:href="#m7e500ae593" x="482.903861" y="349.958276" style="stroke: #000000; stroke-width: 0.8"/>
      </g>
     </g>
     <g id="text_9">
      <!-- Manufacturing -->
      <g transform="translate(419.154306 399.744185) rotate(-30) scale(0.1 -0.1)">
       <defs>
        <path id="DejaVuSans-4d" d="M 628 4666 
L 1569 4666 
L 2759 1491 
L 3956 4666 
L 4897 4666 
L 4897 0 
L 4281 0 
L 4281 4097 
L 3078 897 
L 2444 897 
L 1241 4097 
L 1241 0 
L 628 0 
L 628 4666 
z
" transform="scale(0.015625)"/>
       </defs>
       <use xlink:href="#DejaVuSans-4d"/>
       <use xlink:href="#DejaVuSans-61" transform="translate(86.279297 0)"/>
       <use xlink:href="#DejaVuSans-6e" transform="translate(147.558594 0)"/>
       <use xlink:href="#DejaVuSans-75" transform="translate(210.9375 0)"/>
       <use xlink:href="#DejaVuSans-66" transform="translate(274.316406 0)"/>
       <use xlink:href="#DejaVuSans-61" transform="translate(309.521484 0)"/>
       <use xlink:href="#DejaVuSans-63" transform="translate(370.800781 0)"/>
       <use xlink:href="#DejaVuSans-74" transform="translate(425.78125 0)"/>
       <use xlink:href="#DejaVuSans-75" transform="translate(464.990234 0)"/>
       <use xlink:href="#DejaVuSans-72" transform="translate(528.369141 0)"/>
       <use xlink:href="#DejaVuSans-69" transform="translate(569.482422 0)"/>
       <use xlink:href="#DejaVuSans-6e" transform="translate(597.265625 0)"/>
       <use xlink:href="#DejaVuSans-67" transform="translate(660.644531 0)"/>
      </g>
     </g>
    </g>
    <g id="xtick_10">
     <g id="line2d_10">
      <g>
       <use xlink:href="#m7e500ae593" x="523.890377" y="349.958276" style="stroke: #000000; stroke-width: 0.8"/>
      </g>
     </g>
     <g id="text_10">
      <!-- Mining, energy and water supply -->
      <g transform="translate(380.65728 445.634029) rotate(-30) scale(0.1 -0.1)">
       <use xlink:href="#DejaVuSans-4d"/>
       <use xlink:href="#DejaVuSans-69" transform="translate(86.279297 0)"/>
       <use xlink:href="#DejaVuSans-6e" transform="translate(114.0625 0)"/>
       <use xlink:href="#DejaVuSans-69" transform="translate(177.441406 0)"/>
       <use xlink:href="#DejaVuSans-6e" transform="translate(205.224609 0)"/>
       <use xlink:href="#DejaVuSans-67" transform="translate(268.603516 0)"/>
       <use xlink:href="#DejaVuSans-2c" transform="translate(332.080078 0)"/>
       <use xlink:href="#DejaVuSans-20" transform="translate(363.867188 0)"/>
       <use xlink:href="#DejaVuSans-65" transform="translate(395.654297 0)"/>
       <use xlink:href="#DejaVuSans-6e" transform="translate(457.177734 0)"/>
       <use xlink:href="#DejaVuSans-65" transform="translate(520.556641 0)"/>
       <use xlink:href="#DejaVuSans-72" transform="translate(582.080078 0)"/>
       <use xlink:href="#DejaVuSans-67" transform="translate(621.443359 0)"/>
       <use xlink:href="#DejaVuSans-79" transform="translate(684.919922 0)"/>
       <use xlink:href="#DejaVuSans-20" transform="translate(744.099609 0)"/>
       <use xlink:href="#DejaVuSans-61" transform="translate(775.886719 0)"/>
       <use xlink:href="#DejaVuSans-6e" transform="translate(837.166016 0)"/>
       <use xlink:href="#DejaVuSans-64" transform="translate(900.544922 0)"/>
       <use xlink:href="#DejaVuSans-20" transform="translate(964.021484 0)"/>
       <use xlink:href="#DejaVuSans-77" transform="translate(995.808594 0)"/>
       <use xlink:href="#DejaVuSans-61" transform="translate(1077.595703 0)"/>
       <use xlink:href="#DejaVuSans-74" transform="translate(1138.875 0)"/>
       <use xlink:href="#DejaVuSans-65" transform="translate(1178.083984 0)"/>
       <use xlink:href="#DejaVuSans-72" transform="translate(1239.607422 0)"/>
       <use xlink:href="#DejaVuSans-20" transform="translate(1280.720703 0)"/>
       <use xlink:href="#DejaVuSans-73" transform="translate(1312.507812 0)"/>
       <use xlink:href="#DejaVuSans-75" transform="translate(1364.607422 0)"/>
       <use xlink:href="#DejaVuSans-70" transform="translate(1427.986328 0)"/>
       <use xlink:href="#DejaVuSans-70" transform="translate(1491.462891 0)"/>
       <use xlink:href="#DejaVuSans-6c" transform="translate(1554.939453 0)"/>
       <use xlink:href="#DejaVuSans-79" transform="translate(1582.722656 0)"/>
      </g>
     </g>
    </g>
    <g id="xtick_11">
     <g id="line2d_11">
      <g>
       <use xlink:href="#m7e500ae593" x="564.876892" y="349.958276" style="stroke: #000000; stroke-width: 0.8"/>
      </g>
     </g>
     <g id="text_11">
      <!-- Other services -->
      <g transform="translate(500.960898 399.840279) rotate(-30) scale(0.1 -0.1)">
       <defs>
        <path id="DejaVuSans-4f" d="M 2522 4238 
Q 1834 4238 1429 3725 
Q 1025 3213 1025 2328 
Q 1025 1447 1429 934 
Q 1834 422 2522 422 
Q 3209 422 3611 934 
Q 4013 1447 4013 2328 
Q 4013 3213 3611 3725 
Q 3209 4238 2522 4238 
z
M 2522 4750 
Q 3503 4750 4090 4092 
Q 4678 3434 4678 2328 
Q 4678 1225 4090 567 
Q 3503 -91 2522 -91 
Q 1538 -91 948 565 
Q 359 1222 359 2328 
Q 359 3434 948 4092 
Q 1538 4750 2522 4750 
z
" transform="scale(0.015625)"/>
       </defs>
       <use xlink:href="#DejaVuSans-4f"/>
       <use xlink:href="#DejaVuSans-74" transform="translate(78.710938 0)"/>
       <use xlink:href="#DejaVuSans-68" transform="translate(117.919922 0)"/>
       <use xlink:href="#DejaVuSans-65" transform="translate(181.298828 0)"/>
       <use xlink:href="#DejaVuSans-72" transform="translate(242.822266 0)"/>
       <use xlink:href="#DejaVuSans-20" transform="translate(283.935547 0)"/>
       <use xlink:href="#DejaVuSans-73" transform="translate(315.722656 0)"/>
       <use xlink:href="#DejaVuSans-65" transform="translate(367.822266 0)"/>
       <use xlink:href="#DejaVuSans-72" transform="translate(429.345703 0)"/>
       <use xlink:href="#DejaVuSans-76" transform="translate(470.458984 0)"/>
       <use xlink:href="#DejaVuSans-69" transform="translate(529.638672 0)"/>
       <use xlink:href="#DejaVuSans-63" transform="translate(557.421875 0)"/>
       <use xlink:href="#DejaVuSans-65" transform="translate(612.402344 0)"/>
       <use xlink:href="#DejaVuSans-73" transform="translate(673.925781 0)"/>
      </g>
     </g>
    </g>
    <g id="xtick_12">
     <g id="line2d_12">
      <g>
       <use xlink:href="#m7e500ae593" x="605.863407" y="349.958276" style="stroke: #000000; stroke-width: 0.8"/>
      </g>
     </g>
     <g id="text_12">
      <!-- Professional, scientific &amp; technical activities -->
      <g transform="translate(415.366975 472.921529) rotate(-30) scale(0.1 -0.1)">
       <defs>
        <path id="DejaVuSans-50" d="M 1259 4147 
L 1259 2394 
L 2053 2394 
Q 2494 2394 2734 2622 
Q 2975 2850 2975 3272 
Q 2975 3691 2734 3919 
Q 2494 4147 2053 4147 
L 1259 4147 
z
M 628 4666 
L 2053 4666 
Q 2838 4666 3239 4311 
Q 3641 3956 3641 3272 
Q 3641 2581 3239 2228 
Q 2838 1875 2053 1875 
L 1259 1875 
L 1259 0 
L 628 0 
L 628 4666 
z
" transform="scale(0.015625)"/>
       </defs>
       <use xlink:href="#DejaVuSans-50"/>
       <use xlink:href="#DejaVuSans-72" transform="translate(58.552734 0)"/>
       <use xlink:href="#DejaVuSans-6f" transform="translate(97.416016 0)"/>
       <use xlink:href="#DejaVuSans-66" transform="translate(158.597656 0)"/>
       <use xlink:href="#DejaVuSans-65" transform="translate(193.802734 0)"/>
       <use xlink:href="#DejaVuSans-73" transform="translate(255.326172 0)"/>
       <use xlink:href="#DejaVuSans-73" transform="translate(307.425781 0)"/>
       <use xlink:href="#DejaVuSans-69" transform="translate(359.525391 0)"/>
       <use xlink:href="#DejaVuSans-6f" transform="translate(387.308594 0)"/>
       <use xlink:href="#DejaVuSans-6e" transform="translate(448.490234 0)"/>
       <use xlink:href="#DejaVuSans-61" transform="translate(511.869141 0)"/>
       <use xlink:href="#DejaVuSans-6c" transform="translate(573.148438 0)"/>
       <use xlink:href="#DejaVuSans-2c" transform="translate(600.931641 0)"/>
       <use xlink:href="#DejaVuSans-20" transform="translate(632.71875 0)"/>
       <use xlink:href="#DejaVuSans-73" transform="translate(664.505859 0)"/>
       <use xlink:href="#DejaVuSans-63" transform="translate(716.605469 0)"/>
       <use xlink:href="#DejaVuSans-69" transform="translate(771.585938 0)"/>
       <use xlink:href="#DejaVuSans-65" transform="translate(799.369141 0)"/>
       <use xlink:href="#DejaVuSans-6e" transform="translate(860.892578 0)"/>
       <use xlink:href="#DejaVuSans-74" transform="translate(924.271484 0)"/>
       <use xlink:href="#DejaVuSans-69" transform="translate(963.480469 0)"/>
       <use xlink:href="#DejaVuSans-66" transform="translate(991.263672 0)"/>
       <use xlink:href="#DejaVuSans-69" transform="translate(1026.46875 0)"/>
       <use xlink:href="#DejaVuSans-63" transform="translate(1054.251953 0)"/>
       <use xlink:href="#DejaVuSans-20" transform="translate(1109.232422 0)"/>
       <use xlink:href="#DejaVuSans-26" transform="translate(1141.019531 0)"/>
       <use xlink:href="#DejaVuSans-20" transform="translate(1218.998047 0)"/>
       <use xlink:href="#DejaVuSans-74" transform="translate(1250.785156 0)"/>
       <use xlink:href="#DejaVuSans-65" transform="translate(1289.994141 0)"/>
       <use xlink:href="#DejaVuSans-63" transform="translate(1351.517578 0)"/>
       <use xlink:href="#DejaVuSans-68" transform="translate(1406.498047 0)"/>
       <use xlink:href="#DejaVuSans-6e" transform="translate(1469.876953 0)"/>
       <use xlink:href="#DejaVuSans-69" transform="translate(1533.255859 0)"/>
       <use xlink:href="#DejaVuSans-63" transform="translate(1561.039062 0)"/>
       <use xlink:href="#DejaVuSans-61" transform="translate(1616.019531 0)"/>
       <use xlink:href="#DejaVuSans-6c" transform="translate(1677.298828 0)"/>
       <use xlink:href="#DejaVuSans-20" transform="translate(1705.082031 0)"/>
       <use xlink:href="#DejaVuSans-61" transform="translate(1736.869141 0)"/>
       <use xlink:href="#DejaVuSans-63" transform="translate(1798.148438 0)"/>
       <use xlink:href="#DejaVuSans-74" transform="translate(1853.128906 0)"/>
       <use xlink:href="#DejaVuSans-69" transform="translate(1892.337891 0)"/>
       <use xlink:href="#DejaVuSans-76" transform="translate(1920.121094 0)"/>
       <use xlink:href="#DejaVuSans-69" transform="translate(1979.300781 0)"/>
       <use xlink:href="#DejaVuSans-74" transform="translate(2007.083984 0)"/>
       <use xlink:href="#DejaVuSans-69" transform="translate(2046.292969 0)"/>
       <use xlink:href="#DejaVuSans-65" transform="translate(2074.076172 0)"/>
       <use xlink:href="#DejaVuSans-73" transform="translate(2135.599609 0)"/>
      </g>
     </g>
    </g>
    <g id="xtick_13">
     <g id="line2d_13">
      <g>
       <use xlink:href="#m7e500ae593" x="646.849923" y="349.958276" style="stroke: #000000; stroke-width: 0.8"/>
      </g>
     </g>
     <g id="text_13">
      <!-- Public admin &amp; defence; social security -->
      <g transform="translate(475.56031 461.832466) rotate(-30) scale(0.1 -0.1)">
       <defs>
        <path id="DejaVuSans-62" d="M 3116 1747 
Q 3116 2381 2855 2742 
Q 2594 3103 2138 3103 
Q 1681 3103 1420 2742 
Q 1159 2381 1159 1747 
Q 1159 1113 1420 752 
Q 1681 391 2138 391 
Q 2594 391 2855 752 
Q 3116 1113 3116 1747 
z
M 1159 2969 
Q 1341 3281 1617 3432 
Q 1894 3584 2278 3584 
Q 2916 3584 3314 3078 
Q 3713 2572 3713 1747 
Q 3713 922 3314 415 
Q 2916 -91 2278 -91 
Q 1894 -91 1617 61 
Q 1341 213 1159 525 
L 1159 0 
L 581 0 
L 581 4863 
L 1159 4863 
L 1159 2969 
z
" transform="scale(0.015625)"/>
        <path id="DejaVuSans-3b" d="M 750 3309 
L 1409 3309 
L 1409 2516 
L 750 2516 
L 750 3309 
z
M 750 794 
L 1409 794 
L 1409 256 
L 897 -744 
L 494 -744 
L 750 256 
L 750 794 
z
" transform="scale(0.015625)"/>
       </defs>
       <use xlink:href="#DejaVuSans-50"/>
       <use xlink:href="#DejaVuSans-75" transform="translate(58.552734 0)"/>
       <use xlink:href="#DejaVuSans-62" transform="translate(121.931641 0)"/>
       <use xlink:href="#DejaVuSans-6c" transform="translate(185.408203 0)"/>
       <use xlink:href="#DejaVuSans-69" transform="translate(213.191406 0)"/>
       <use xlink:href="#DejaVuSans-63" transform="translate(240.974609 0)"/>
       <use xlink:href="#DejaVuSans-20" transform="translate(295.955078 0)"/>
       <use xlink:href="#DejaVuSans-61" transform="translate(327.742188 0)"/>
       <use xlink:href="#DejaVuSans-64" transform="translate(389.021484 0)"/>
       <use xlink:href="#DejaVuSans-6d" transform="translate(452.498047 0)"/>
       <use xlink:href="#DejaVuSans-69" transform="translate(549.910156 0)"/>
       <use xlink:href="#DejaVuSans-6e" transform="translate(577.693359 0)"/>
       <use xlink:href="#DejaVuSans-20" transform="translate(641.072266 0)"/>
       <use xlink:href="#DejaVuSans-26" transform="translate(672.859375 0)"/>
       <use xlink:href="#DejaVuSans-20" transform="translate(750.837891 0)"/>
       <use xlink:href="#DejaVuSans-64" transform="translate(782.625 0)"/>
       <use xlink:href="#DejaVuSans-65" transform="translate(846.101562 0)"/>
       <use xlink:href="#DejaVuSans-66" transform="translate(907.625 0)"/>
       <use xlink:href="#DejaVuSans-65" transform="translate(942.830078 0)"/>
       <use xlink:href="#DejaVuSans-6e" transform="translate(1004.353516 0)"/>
       <use xlink:href="#DejaVuSans-63" transform="translate(1067.732422 0)"/>
       <use xlink:href="#DejaVuSans-65" transform="translate(1122.712891 0)"/>
       <use xlink:href="#DejaVuSans-3b" transform="translate(1184.236328 0)"/>
       <use xlink:href="#DejaVuSans-20" transform="translate(1217.927734 0)"/>
       <use xlink:href="#DejaVuSans-73" transform="translate(1249.714844 0)"/>
       <use xlink:href="#DejaVuSans-6f" transform="translate(1301.814453 0)"/>
       <use xlink:href="#DejaVuSans-63" transform="translate(1362.996094 0)"/>
       <use xlink:href="#DejaVuSans-69" transform="translate(1417.976562 0)"/>
       <use xlink:href="#DejaVuSans-61" transform="translate(1445.759766 0)"/>
       <use xlink:href="#DejaVuSans-6c" transform="translate(1507.039062 0)"/>
       <use xlink:href="#DejaVuSans-20" transform="translate(1534.822266 0)"/>
       <use xlink:href="#DejaVuSans-73" transform="translate(1566.609375 0)"/>
       <use xlink:href="#DejaVuSans-65" transform="translate(1618.708984 0)"/>
       <use xlink:href="#DejaVuSans-63" transform="translate(1680.232422 0)"/>
       <use xlink:href="#DejaVuSans-75" transform="translate(1735.212891 0)"/>
       <use xlink:href="#DejaVuSans-72" transform="translate(1798.591797 0)"/>
       <use xlink:href="#DejaVuSans-69" transform="translate(1839.705078 0)"/>
       <use xlink:href="#DejaVuSans-74" transform="translate(1867.488281 0)"/>
       <use xlink:href="#DejaVuSans-79" transform="translate(1906.697266 0)"/>
      </g>
     </g>
    </g>
    <g id="xtick_14">
     <g id="line2d_14">
      <g>
       <use xlink:href="#m7e500ae593" x="687.836438" y="349.958276" style="stroke: #000000; stroke-width: 0.8"/>
      </g>
     </g>
     <g id="text_14">
      <!-- Real estate activities -->
      <g transform="translate(596.313178 415.779341) rotate(-30) scale(0.1 -0.1)">
       <defs>
        <path id="DejaVuSans-52" d="M 2841 2188 
Q 3044 2119 3236 1894 
Q 3428 1669 3622 1275 
L 4263 0 
L 3584 0 
L 2988 1197 
Q 2756 1666 2539 1819 
Q 2322 1972 1947 1972 
L 1259 1972 
L 1259 0 
L 628 0 
L 628 4666 
L 2053 4666 
Q 2853 4666 3247 4331 
Q 3641 3997 3641 3322 
Q 3641 2881 3436 2590 
Q 3231 2300 2841 2188 
z
M 1259 4147 
L 1259 2491 
L 2053 2491 
Q 2509 2491 2742 2702 
Q 2975 2913 2975 3322 
Q 2975 3731 2742 3939 
Q 2509 4147 2053 4147 
L 1259 4147 
z
" transform="scale(0.015625)"/>
       </defs>
       <use xlink:href="#DejaVuSans-52"/>
       <use xlink:href="#DejaVuSans-65" transform="translate(64.982422 0)"/>
       <use xlink:href="#DejaVuSans-61" transform="translate(126.505859 0)"/>
       <use xlink:href="#DejaVuSans-6c" transform="translate(187.785156 0)"/>
       <use xlink:href="#DejaVuSans-20" transform="translate(215.568359 0)"/>
       <use xlink:href="#DejaVuSans-65" transform="translate(247.355469 0)"/>
       <use xlink:href="#DejaVuSans-73" transform="translate(308.878906 0)"/>
       <use xlink:href="#DejaVuSans-74" transform="translate(360.978516 0)"/>
       <use xlink:href="#DejaVuSans-61" transform="translate(400.1875 0)"/>
       <use xlink:href="#DejaVuSans-74" transform="translate(461.466797 0)"/>
       <use xlink:href="#DejaVuSans-65" transform="translate(500.675781 0)"/>
       <use xlink:href="#DejaVuSans-20" transform="translate(562.199219 0)"/>
       <use xlink:href="#DejaVuSans-61" transform="translate(593.986328 0)"/>
       <use xlink:href="#DejaVuSans-63" transform="translate(655.265625 0)"/>
       <use xlink:href="#DejaVuSans-74" transform="translate(710.246094 0)"/>
       <use xlink:href="#DejaVuSans-69" transform="translate(749.455078 0)"/>
       <use xlink:href="#DejaVuSans-76" transform="translate(777.238281 0)"/>
       <use xlink:href="#DejaVuSans-69" transform="translate(836.417969 0)"/>
       <use xlink:href="#DejaVuSans-74" transform="translate(864.201172 0)"/>
       <use xlink:href="#DejaVuSans-69" transform="translate(903.410156 0)"/>
       <use xlink:href="#DejaVuSans-65" transform="translate(931.193359 0)"/>
       <use xlink:href="#DejaVuSans-73" transform="translate(992.716797 0)"/>
      </g>
     </g>
    </g>
    <g id="xtick_15">
     <g id="line2d_15">
      <g>
       <use xlink:href="#m7e500ae593" x="728.822954" y="349.958276" style="stroke: #000000; stroke-width: 0.8"/>
      </g>
     </g>
     <g id="text_15">
      <!-- Transport &amp; storage -->
      <g transform="translate(641.993822 413.069185) rotate(-30) scale(0.1 -0.1)">
       <defs>
        <path id="DejaVuSans-54" d="M -19 4666 
L 3928 4666 
L 3928 4134 
L 2272 4134 
L 2272 0 
L 1638 0 
L 1638 4134 
L -19 4134 
L -19 4666 
z
" transform="scale(0.015625)"/>
       </defs>
       <use xlink:href="#DejaVuSans-54"/>
       <use xlink:href="#DejaVuSans-72" transform="translate(46.333984 0)"/>
       <use xlink:href="#DejaVuSans-61" transform="translate(87.447266 0)"/>
       <use xlink:href="#DejaVuSans-6e" transform="translate(148.726562 0)"/>
       <use xlink:href="#DejaVuSans-73" transform="translate(212.105469 0)"/>
       <use xlink:href="#DejaVuSans-70" transform="translate(264.205078 0)"/>
       <use xlink:href="#DejaVuSans-6f" transform="translate(327.681641 0)"/>
       <use xlink:href="#DejaVuSans-72" transform="translate(388.863281 0)"/>
       <use xlink:href="#DejaVuSans-74" transform="translate(429.976562 0)"/>
       <use xlink:href="#DejaVuSans-20" transform="translate(469.185547 0)"/>
       <use xlink:href="#DejaVuSans-26" transform="translate(500.972656 0)"/>
       <use xlink:href="#DejaVuSans-20" transform="translate(578.951172 0)"/>
       <use xlink:href="#DejaVuSans-73" transform="translate(610.738281 0)"/>
       <use xlink:href="#DejaVuSans-74" transform="translate(662.837891 0)"/>
       <use xlink:href="#DejaVuSans-6f" transform="translate(702.046875 0)"/>
       <use xlink:href="#DejaVuSans-72" transform="translate(763.228516 0)"/>
       <use xlink:href="#DejaVuSans-61" transform="translate(804.341797 0)"/>
       <use xlink:href="#DejaVuSans-67" transform="translate(865.621094 0)"/>
       <use xlink:href="#DejaVuSans-65" transform="translate(929.097656 0)"/>
      </g>
     </g>
    </g>
    <g id="xtick_16">
     <g id="line2d_16">
      <g>
       <use xlink:href="#m7e500ae593" x="769.809469" y="349.958276" style="stroke: #000000; stroke-width: 0.8"/>
      </g>
     </g>
     <g id="text_16">
      <!-- Wholesale, retail &amp; repair of motor vehicles -->
      <g transform="translate(580.744685 472.094966) rotate(-30) scale(0.1 -0.1)">
       <defs>
        <path id="DejaVuSans-57" d="M 213 4666 
L 850 4666 
L 1831 722 
L 2809 4666 
L 3519 4666 
L 4500 722 
L 5478 4666 
L 6119 4666 
L 4947 0 
L 4153 0 
L 3169 4050 
L 2175 0 
L 1381 0 
L 213 4666 
z
" transform="scale(0.015625)"/>
       </defs>
       <use xlink:href="#DejaVuSans-57"/>
       <use xlink:href="#DejaVuSans-68" transform="translate(98.876953 0)"/>
       <use xlink:href="#DejaVuSans-6f" transform="translate(162.255859 0)"/>
       <use xlink:href="#DejaVuSans-6c" transform="translate(223.4375 0)"/>
       <use xlink:href="#DejaVuSans-65" transform="translate(251.220703 0)"/>
       <use xlink:href="#DejaVuSans-73" transform="translate(312.744141 0)"/>
       <use xlink:href="#DejaVuSans-61" transform="translate(364.84375 0)"/>
       <use xlink:href="#DejaVuSans-6c" transform="translate(426.123047 0)"/>
       <use xlink:href="#DejaVuSans-65" transform="translate(453.90625 0)"/>
       <use xlink:href="#DejaVuSans-2c" transform="translate(515.429688 0)"/>
       <use xlink:href="#DejaVuSans-20" transform="translate(547.216797 0)"/>
       <use xlink:href="#DejaVuSans-72" transform="translate(579.003906 0)"/>
       <use xlink:href="#DejaVuSans-65" transform="translate(617.867188 0)"/>
       <use xlink:href="#DejaVuSans-74" transform="translate(679.390625 0)"/>
       <use xlink:href="#DejaVuSans-61" transform="translate(718.599609 0)"/>
       <use xlink:href="#DejaVuSans-69" transform="translate(779.878906 0)"/>
       <use xlink:href="#DejaVuSans-6c" transform="translate(807.662109 0)"/>
       <use xlink:href="#DejaVuSans-20" transform="translate(835.445312 0)"/>
       <use xlink:href="#DejaVuSans-26" transform="translate(867.232422 0)"/>
       <use xlink:href="#DejaVuSans-20" transform="translate(945.210938 0)"/>
       <use xlink:href="#DejaVuSans-72" transform="translate(976.998047 0)"/>
       <use xlink:href="#DejaVuSans-65" transform="translate(1015.861328 0)"/>
       <use xlink:href="#DejaVuSans-70" transform="translate(1077.384766 0)"/>
       <use xlink:href="#DejaVuSans-61" transform="translate(1140.861328 0)"/>
       <use xlink:href="#DejaVuSans-69" transform="translate(1202.140625 0)"/>
       <use xlink:href="#DejaVuSans-72" transform="translate(1229.923828 0)"/>
       <use xlink:href="#DejaVuSans-20" transform="translate(1271.037109 0)"/>
       <use xlink:href="#DejaVuSans-6f" transform="translate(1302.824219 0)"/>
       <use xlink:href="#DejaVuSans-66" transform="translate(1364.005859 0)"/>
       <use xlink:href="#DejaVuSans-20" transform="translate(1399.210938 0)"/>
       <use xlink:href="#DejaVuSans-6d" transform="translate(1430.998047 0)"/>
       <use xlink:href="#DejaVuSans-6f" transform="translate(1528.410156 0)"/>
       <use xlink:href="#DejaVuSans-74" transform="translate(1589.591797 0)"/>
       <use xlink:href="#DejaVuSans-6f" transform="translate(1628.800781 0)"/>
       <use xlink:href="#DejaVuSans-72" transform="translate(1689.982422 0)"/>
       <use xlink:href="#DejaVuSans-20" transform="translate(1731.095703 0)"/>
       <use xlink:href="#DejaVuSans-76" transform="translate(1762.882812 0)"/>
       <use xlink:href="#DejaVuSans-65" transform="translate(1822.0625 0)"/>
       <use xlink:href="#DejaVuSans-68" transform="translate(1883.585938 0)"/>
       <use xlink:href="#DejaVuSans-69" transform="translate(1946.964844 0)"/>
       <use xlink:href="#DejaVuSans-63" transform="translate(1974.748047 0)"/>
       <use xlink:href="#DejaVuSans-6c" transform="translate(2029.728516 0)"/>
       <use xlink:href="#DejaVuSans-65" transform="translate(2057.511719 0)"/>
       <use xlink:href="#DejaVuSans-73" transform="translate(2119.035156 0)"/>
      </g>
     </g>
    </g>
   </g>
   <g id="matplotlib.axis_2">
    <g id="ytick_1">
     <g id="line2d_17">
      <path d="M 155.011738 349.958276 
L 769.809469 349.958276 
" clip-path="url(#pbd1295f984)" style="fill: none; stroke-dasharray: 2.96,1.28; stroke-dashoffset: 0; stroke: #b0b0b0; stroke-opacity: 0.35; stroke-width: 0.8"/>
     </g>
     <g id="line2d_18">
      <defs>
       <path id="m3c22ea7901" d="M 0 0 
L -3.5 0 
" style="stroke: #000000; stroke-width: 0.8"/>
      </defs>
      <g>
       <use xlink:href="#m3c22ea7901" x="155.011738" y="349.958276" style="stroke: #000000; stroke-width: 0.8"/>
      </g>
     </g>
     <g id="text_17">
      <!-- 0 -->
      <g transform="translate(141.649238 353.757495) scale(0.1 -0.1)">
       <defs>
        <path id="DejaVuSans-30" d="M 2034 4250 
Q 1547 4250 1301 3770 
Q 1056 3291 1056 2328 
Q 1056 1369 1301 889 
Q 1547 409 2034 409 
Q 2525 409 2770 889 
Q 3016 1369 3016 2328 
Q 3016 3291 2770 3770 
Q 2525 4250 2034 4250 
z
M 2034 4750 
Q 2819 4750 3233 4129 
Q 3647 3509 3647 2328 
Q 3647 1150 3233 529 
Q 2819 -91 2034 -91 
Q 1250 -91 836 529 
Q 422 1150 422 2328 
Q 422 3509 836 4129 
Q 1250 4750 2034 4750 
z
" transform="scale(0.015625)"/>
       </defs>
       <use xlink:href="#DejaVuSans-30"/>
      </g>
     </g>
    </g>
    <g id="ytick_2">
     <g id="line2d_19">
      <path d="M 155.011738 301.431648 
L 769.809469 301.431648 
" clip-path="url(#pbd1295f984)" style="fill: none; stroke-dasharray: 2.96,1.28; stroke-dashoffset: 0; stroke: #b0b0b0; stroke-opacity: 0.35; stroke-width: 0.8"/>
     </g>
     <g id="line2d_20">
      <g>
       <use xlink:href="#m3c22ea7901" x="155.011738" y="301.431648" style="stroke: #000000; stroke-width: 0.8"/>
      </g>
     </g>
     <g id="text_18">
      <!-- 100 -->
      <g transform="translate(128.924238 305.230867) scale(0.1 -0.1)">
       <defs>
        <path id="DejaVuSans-31" d="M 794 531 
L 1825 531 
L 1825 4091 
L 703 3866 
L 703 4441 
L 1819 4666 
L 2450 4666 
L 2450 531 
L 3481 531 
L 3481 0 
L 794 0 
L 794 531 
z
" transform="scale(0.015625)"/>
       </defs>
       <use xlink:href="#DejaVuSans-31"/>
       <use xlink:href="#DejaVuSans-30" transform="translate(63.623047 0)"/>
       <use xlink:href="#DejaVuSans-30" transform="translate(127.246094 0)"/>
      </g>
     </g>
    </g>
    <g id="ytick_3">
     <g id="line2d_21">
      <path d="M 155.011738 252.905019 
L 769.809469 252.905019 
" clip-path="url(#pbd1295f984)" style="fill: none; stroke-dasharray: 2.96,1.28; stroke-dashoffset: 0; stroke: #b0b0b0; stroke-opacity: 0.35; stroke-width: 0.8"/>
     </g>
     <g id="line2d_22">
      <g>
       <use xlink:href="#m3c22ea7901" x="155.011738" y="252.905019" style="stroke: #000000; stroke-width: 0.8"/>
      </g>
     </g>
     <g id="text_19">
      <!-- 200 -->
      <g transform="translate(128.924238 256.704238) scale(0.1 -0.1)">
       <defs>
        <path id="DejaVuSans-32" d="M 1228 531 
L 3431 531 
L 3431 0 
L 469 0 
L 469 531 
Q 828 903 1448 1529 
Q 2069 2156 2228 2338 
Q 2531 2678 2651 2914 
Q 2772 3150 2772 3378 
Q 2772 3750 2511 3984 
Q 2250 4219 1831 4219 
Q 1534 4219 1204 4116 
Q 875 4013 500 3803 
L 500 4441 
Q 881 4594 1212 4672 
Q 1544 4750 1819 4750 
Q 2544 4750 2975 4387 
Q 3406 4025 3406 3419 
Q 3406 3131 3298 2873 
Q 3191 2616 2906 2266 
Q 2828 2175 2409 1742 
Q 1991 1309 1228 531 
z
" transform="scale(0.015625)"/>
       </defs>
       <use xlink:href="#DejaVuSans-32"/>
       <use xlink:href="#DejaVuSans-30" transform="translate(63.623047 0)"/>
       <use xlink:href="#DejaVuSans-30" transform="translate(127.246094 0)"/>
      </g>
     </g>
    </g>
    <g id="ytick_4">
     <g id="line2d_23">
      <path d="M 155.011738 204.37839 
L 769.809469 204.37839 
" clip-path="url(#pbd1295f984)" style="fill: none; stroke-dasharray: 2.96,1.28; stroke-dashoffset: 0; stroke: #b0b0b0; stroke-opacity: 0.35; stroke-width: 0.8"/>
     </g>
     <g id="line2d_24">
      <g>
       <use xlink:href="#m3c22ea7901" x="155.011738" y="204.37839" style="stroke: #000000; stroke-width: 0.8"/>
      </g>
     </g>
     <g id="text_20">
      <!-- 300 -->
      <g transform="translate(128.924238 208.177609) scale(0.1 -0.1)">
       <defs>
        <path id="DejaVuSans-33" d="M 2597 2516 
Q 3050 2419 3304 2112 
Q 3559 1806 3559 1356 
Q 3559 666 3084 287 
Q 2609 -91 1734 -91 
Q 1441 -91 1130 -33 
Q 819 25 488 141 
L 488 750 
Q 750 597 1062 519 
Q 1375 441 1716 441 
Q 2309 441 2620 675 
Q 2931 909 2931 1356 
Q 2931 1769 2642 2001 
Q 2353 2234 1838 2234 
L 1294 2234 
L 1294 2753 
L 1863 2753 
Q 2328 2753 2575 2939 
Q 2822 3125 2822 3475 
Q 2822 3834 2567 4026 
Q 2313 4219 1838 4219 
Q 1578 4219 1281 4162 
Q 984 4106 628 3988 
L 628 4550 
Q 988 4650 1302 4700 
Q 1616 4750 1894 4750 
Q 2613 4750 3031 4423 
Q 3450 4097 3450 3541 
Q 3450 3153 3228 2886 
Q 3006 2619 2597 2516 
z
" transform="scale(0.015625)"/>
       </defs>
       <use xlink:href="#DejaVuSans-33"/>
       <use xlink:href="#DejaVuSans-30" transform="translate(63.623047 0)"/>
       <use xlink:href="#DejaVuSans-30" transform="translate(127.246094 0)"/>
      </g>
     </g>
    </g>
    <g id="ytick_5">
     <g id="line2d_25">
      <path d="M 155.011738 155.851762 
L 769.809469 155.851762 
" clip-path="url(#pbd1295f984)" style="fill: none; stroke-dasharray: 2.96,1.28; stroke-dashoffset: 0; stroke: #b0b0b0; stroke-opacity: 0.35; stroke-width: 0.8"/>
     </g>
     <g id="line2d_26">
      <g>
       <use xlink:href="#m3c22ea7901" x="155.011738" y="155.851762" style="stroke: #000000; stroke-width: 0.8"/>
      </g>
     </g>
     <g id="text_21">
      <!-- 400 -->
      <g transform="translate(128.924238 159.650981) scale(0.1 -0.1)">
       <defs>
        <path id="DejaVuSans-34" d="M 2419 4116 
L 825 1625 
L 2419 1625 
L 2419 4116 
z
M 2253 4666 
L 3047 4666 
L 3047 1625 
L 3713 1625 
L 3713 1100 
L 3047 1100 
L 3047 0 
L 2419 0 
L 2419 1100 
L 313 1100 
L 313 1709 
L 2253 4666 
z
" transform="scale(0.015625)"/>
       </defs>
       <use xlink:href="#DejaVuSans-34"/>
       <use xlink:href="#DejaVuSans-30" transform="translate(63.623047 0)"/>
       <use xlink:href="#DejaVuSans-30" transform="translate(127.246094 0)"/>
      </g>
     </g>
    </g>
    <g id="ytick_6">
     <g id="line2d_27">
      <path d="M 155.011738 107.325133 
L 769.809469 107.325133 
" clip-path="url(#pbd1295f984)" style="fill: none; stroke-dasharray: 2.96,1.28; stroke-dashoffset: 0; stroke: #b0b0b0; stroke-opacity: 0.35; stroke-width: 0.8"/>
     </g>
     <g id="line2d_28">
      <g>
       <use xlink:href="#m3c22ea7901" x="155.011738" y="107.325133" style="stroke: #000000; stroke-width: 0.8"/>
      </g>
     </g>
     <g id="text_22">
      <!-- 500 -->
      <g transform="translate(128.924238 111.124352) scale(0.1 -0.1)">
       <defs>
        <path id="DejaVuSans-35" d="M 691 4666 
L 3169 4666 
L 3169 4134 
L 1269 4134 
L 1269 2991 
Q 1406 3038 1543 3061 
Q 1681 3084 1819 3084 
Q 2600 3084 3056 2656 
Q 3513 2228 3513 1497 
Q 3513 744 3044 326 
Q 2575 -91 1722 -91 
Q 1428 -91 1123 -41 
Q 819 9 494 109 
L 494 744 
Q 775 591 1075 516 
Q 1375 441 1709 441 
Q 2250 441 2565 725 
Q 2881 1009 2881 1497 
Q 2881 1984 2565 2268 
Q 2250 2553 1709 2553 
Q 1456 2553 1204 2497 
Q 953 2441 691 2322 
L 691 4666 
z
" transform="scale(0.015625)"/>
       </defs>
       <use xlink:href="#DejaVuSans-35"/>
       <use xlink:href="#DejaVuSans-30" transform="translate(63.623047 0)"/>
       <use xlink:href="#DejaVuSans-30" transform="translate(127.246094 0)"/>
      </g>
     </g>
    </g>
    <g id="ytick_7">
     <g id="line2d_29">
      <path d="M 155.011738 58.798504 
L 769.809469 58.798504 
" clip-path="url(#pbd1295f984)" style="fill: none; stroke-dasharray: 2.96,1.28; stroke-dashoffset: 0; stroke: #b0b0b0; stroke-opacity: 0.35; stroke-width: 0.8"/>
     </g>
     <g id="line2d_30">
      <g>
       <use xlink:href="#m3c22ea7901" x="155.011738" y="58.798504" style="stroke: #000000; stroke-width: 0.8"/>
      </g>
     </g>
     <g id="text_23">
      <!-- 600 -->
      <g transform="translate(128.924238 62.597723) scale(0.1 -0.1)">
       <defs>
        <path id="DejaVuSans-36" d="M 2113 2584 
Q 1688 2584 1439 2293 
Q 1191 2003 1191 1497 
Q 1191 994 1439 701 
Q 1688 409 2113 409 
Q 2538 409 2786 701 
Q 3034 994 3034 1497 
Q 3034 2003 2786 2293 
Q 2538 2584 2113 2584 
z
M 3366 4563 
L 3366 3988 
Q 3128 4100 2886 4159 
Q 2644 4219 2406 4219 
Q 1781 4219 1451 3797 
Q 1122 3375 1075 2522 
Q 1259 2794 1537 2939 
Q 1816 3084 2150 3084 
Q 2853 3084 3261 2657 
Q 3669 2231 3669 1497 
Q 3669 778 3244 343 
Q 2819 -91 2113 -91 
Q 1303 -91 875 529 
Q 447 1150 447 2328 
Q 447 3434 972 4092 
Q 1497 4750 2381 4750 
Q 2619 4750 2861 4703 
Q 3103 4656 3366 4563 
z
" transform="scale(0.015625)"/>
       </defs>
       <use xlink:href="#DejaVuSans-36"/>
       <use xlink:href="#DejaVuSans-30" transform="translate(63.623047 0)"/>
       <use xlink:href="#DejaVuSans-30" transform="translate(127.246094 0)"/>
      </g>
     </g>
    </g>
    <g id="text_24">
     <!-- Employment (headcount) -->
     <g transform="translate(122.334863 275.442107) rotate(-90) scale(0.12 -0.12)">
      <defs>
       <path id="DejaVuSans-Bold-45" d="M 588 4666 
L 3834 4666 
L 3834 3756 
L 1791 3756 
L 1791 2888 
L 3713 2888 
L 3713 1978 
L 1791 1978 
L 1791 909 
L 3903 909 
L 3903 0 
L 588 0 
L 588 4666 
z
" transform="scale(0.015625)"/>
       <path id="DejaVuSans-Bold-6d" d="M 3781 2919 
Q 3994 3244 4286 3414 
Q 4578 3584 4928 3584 
Q 5531 3584 5847 3212 
Q 6163 2841 6163 2131 
L 6163 0 
L 5038 0 
L 5038 1825 
Q 5041 1866 5042 1909 
Q 5044 1953 5044 2034 
Q 5044 2406 4934 2573 
Q 4825 2741 4581 2741 
Q 4263 2741 4089 2478 
Q 3916 2216 3909 1719 
L 3909 0 
L 2784 0 
L 2784 1825 
Q 2784 2406 2684 2573 
Q 2584 2741 2328 2741 
Q 2006 2741 1831 2477 
Q 1656 2213 1656 1722 
L 1656 0 
L 531 0 
L 531 3500 
L 1656 3500 
L 1656 2988 
Q 1863 3284 2130 3434 
Q 2397 3584 2719 3584 
Q 3081 3584 3359 3409 
Q 3638 3234 3781 2919 
z
" transform="scale(0.015625)"/>
       <path id="DejaVuSans-Bold-70" d="M 1656 506 
L 1656 -1331 
L 538 -1331 
L 538 3500 
L 1656 3500 
L 1656 2988 
Q 1888 3294 2169 3439 
Q 2450 3584 2816 3584 
Q 3463 3584 3878 3070 
Q 4294 2556 4294 1747 
Q 4294 938 3878 423 
Q 3463 -91 2816 -91 
Q 2450 -91 2169 54 
Q 1888 200 1656 506 
z
M 2400 2772 
Q 2041 2772 1848 2508 
Q 1656 2244 1656 1747 
Q 1656 1250 1848 986 
Q 2041 722 2400 722 
Q 2759 722 2948 984 
Q 3138 1247 3138 1747 
Q 3138 2247 2948 2509 
Q 2759 2772 2400 2772 
z
" transform="scale(0.015625)"/>
       <path id="DejaVuSans-Bold-6c" d="M 538 4863 
L 1656 4863 
L 1656 0 
L 538 0 
L 538 4863 
z
" transform="scale(0.015625)"/>
       <path id="DejaVuSans-Bold-6f" d="M 2203 2784 
Q 1831 2784 1636 2517 
Q 1441 2250 1441 1747 
Q 1441 1244 1636 976 
Q 1831 709 2203 709 
Q 2569 709 2762 976 
Q 2956 1244 2956 1747 
Q 2956 2250 2762 2517 
Q 2569 2784 2203 2784 
z
M 2203 3584 
Q 3106 3584 3614 3096 
Q 4122 2609 4122 1747 
Q 4122 884 3614 396 
Q 3106 -91 2203 -91 
Q 1297 -91 786 396 
Q 275 884 275 1747 
Q 275 2609 786 3096 
Q 1297 3584 2203 3584 
z
" transform="scale(0.015625)"/>
       <path id="DejaVuSans-Bold-79" d="M 78 3500 
L 1197 3500 
L 2138 1125 
L 2938 3500 
L 4056 3500 
L 2584 -331 
Q 2363 -916 2067 -1148 
Q 1772 -1381 1288 -1381 
L 641 -1381 
L 641 -647 
L 991 -647 
Q 1275 -647 1404 -556 
Q 1534 -466 1606 -231 
L 1638 -134 
L 78 3500 
z
" transform="scale(0.015625)"/>
       <path id="DejaVuSans-Bold-65" d="M 4031 1759 
L 4031 1441 
L 1416 1441 
Q 1456 1047 1700 850 
Q 1944 653 2381 653 
Q 2734 653 3104 758 
Q 3475 863 3866 1075 
L 3866 213 
Q 3469 63 3072 -14 
Q 2675 -91 2278 -91 
Q 1328 -91 801 392 
Q 275 875 275 1747 
Q 275 2603 792 3093 
Q 1309 3584 2216 3584 
Q 3041 3584 3536 3087 
Q 4031 2591 4031 1759 
z
M 2881 2131 
Q 2881 2450 2695 2645 
Q 2509 2841 2209 2841 
Q 1884 2841 1681 2658 
Q 1478 2475 1428 2131 
L 2881 2131 
z
" transform="scale(0.015625)"/>
       <path id="DejaVuSans-Bold-6e" d="M 4056 2131 
L 4056 0 
L 2931 0 
L 2931 347 
L 2931 1631 
Q 2931 2084 2911 2256 
Q 2891 2428 2841 2509 
Q 2775 2619 2662 2680 
Q 2550 2741 2406 2741 
Q 2056 2741 1856 2470 
Q 1656 2200 1656 1722 
L 1656 0 
L 538 0 
L 538 3500 
L 1656 3500 
L 1656 2988 
Q 1909 3294 2193 3439 
Q 2478 3584 2822 3584 
Q 3428 3584 3742 3212 
Q 4056 2841 4056 2131 
z
" transform="scale(0.015625)"/>
       <path id="DejaVuSans-Bold-74" d="M 1759 4494 
L 1759 3500 
L 2913 3500 
L 2913 2700 
L 1759 2700 
L 1759 1216 
Q 1759 972 1856 886 
Q 1953 800 2241 800 
L 2816 800 
L 2816 0 
L 1856 0 
Q 1194 0 917 276 
Q 641 553 641 1216 
L 641 2700 
L 84 2700 
L 84 3500 
L 641 3500 
L 641 4494 
L 1759 4494 
z
" transform="scale(0.015625)"/>
       <path id="DejaVuSans-Bold-20" transform="scale(0.015625)"/>
       <path id="DejaVuSans-Bold-28" d="M 2413 -844 
L 1484 -844 
Q 1006 -72 778 623 
Q 550 1319 550 2003 
Q 550 2688 779 3389 
Q 1009 4091 1484 4856 
L 2413 4856 
Q 2013 4116 1813 3408 
Q 1613 2700 1613 2009 
Q 1613 1319 1811 609 
Q 2009 -100 2413 -844 
z
" transform="scale(0.015625)"/>
       <path id="DejaVuSans-Bold-68" d="M 4056 2131 
L 4056 0 
L 2931 0 
L 2931 347 
L 2931 1625 
Q 2931 2084 2911 2256 
Q 2891 2428 2841 2509 
Q 2775 2619 2662 2680 
Q 2550 2741 2406 2741 
Q 2056 2741 1856 2470 
Q 1656 2200 1656 1722 
L 1656 0 
L 538 0 
L 538 4863 
L 1656 4863 
L 1656 2988 
Q 1909 3294 2193 3439 
Q 2478 3584 2822 3584 
Q 3428 3584 3742 3212 
Q 4056 2841 4056 2131 
z
" transform="scale(0.015625)"/>
       <path id="DejaVuSans-Bold-61" d="M 2106 1575 
Q 1756 1575 1579 1456 
Q 1403 1338 1403 1106 
Q 1403 894 1545 773 
Q 1688 653 1941 653 
Q 2256 653 2472 879 
Q 2688 1106 2688 1447 
L 2688 1575 
L 2106 1575 
z
M 3816 1997 
L 3816 0 
L 2688 0 
L 2688 519 
Q 2463 200 2181 54 
Q 1900 -91 1497 -91 
Q 953 -91 614 226 
Q 275 544 275 1050 
Q 275 1666 698 1953 
Q 1122 2241 2028 2241 
L 2688 2241 
L 2688 2328 
Q 2688 2594 2478 2717 
Q 2269 2841 1825 2841 
Q 1466 2841 1156 2769 
Q 847 2697 581 2553 
L 581 3406 
Q 941 3494 1303 3539 
Q 1666 3584 2028 3584 
Q 2975 3584 3395 3211 
Q 3816 2838 3816 1997 
z
" transform="scale(0.015625)"/>
       <path id="DejaVuSans-Bold-64" d="M 2919 2988 
L 2919 4863 
L 4044 4863 
L 4044 0 
L 2919 0 
L 2919 506 
Q 2688 197 2409 53 
Q 2131 -91 1766 -91 
Q 1119 -91 703 423 
Q 288 938 288 1747 
Q 288 2556 703 3070 
Q 1119 3584 1766 3584 
Q 2128 3584 2408 3439 
Q 2688 3294 2919 2988 
z
M 2181 722 
Q 2541 722 2730 984 
Q 2919 1247 2919 1747 
Q 2919 2247 2730 2509 
Q 2541 2772 2181 2772 
Q 1825 2772 1636 2509 
Q 1447 2247 1447 1747 
Q 1447 1247 1636 984 
Q 1825 722 2181 722 
z
" transform="scale(0.015625)"/>
       <path id="DejaVuSans-Bold-63" d="M 3366 3391 
L 3366 2478 
Q 3138 2634 2908 2709 
Q 2678 2784 2431 2784 
Q 1963 2784 1702 2511 
Q 1441 2238 1441 1747 
Q 1441 1256 1702 982 
Q 1963 709 2431 709 
Q 2694 709 2930 787 
Q 3166 866 3366 1019 
L 3366 103 
Q 3103 6 2833 -42 
Q 2563 -91 2291 -91 
Q 1344 -91 809 395 
Q 275 881 275 1747 
Q 275 2613 809 3098 
Q 1344 3584 2291 3584 
Q 2566 3584 2833 3536 
Q 3100 3488 3366 3391 
z
" transform="scale(0.015625)"/>
       <path id="DejaVuSans-Bold-75" d="M 500 1363 
L 500 3500 
L 1625 3500 
L 1625 3150 
Q 1625 2866 1622 2436 
Q 1619 2006 1619 1863 
Q 1619 1441 1641 1255 
Q 1663 1069 1716 984 
Q 1784 875 1895 815 
Q 2006 756 2150 756 
Q 2500 756 2700 1025 
Q 2900 1294 2900 1772 
L 2900 3500 
L 4019 3500 
L 4019 0 
L 2900 0 
L 2900 506 
Q 2647 200 2364 54 
Q 2081 -91 1741 -91 
Q 1134 -91 817 281 
Q 500 653 500 1363 
z
" transform="scale(0.015625)"/>
       <path id="DejaVuSans-Bold-29" d="M 513 -844 
Q 913 -100 1113 609 
Q 1313 1319 1313 2009 
Q 1313 2700 1113 3408 
Q 913 4116 513 4856 
L 1441 4856 
Q 1916 4091 2145 3389 
Q 2375 2688 2375 2003 
Q 2375 1319 2147 623 
Q 1919 -72 1441 -844 
L 513 -844 
z
" transform="scale(0.015625)"/>
      </defs>
      <use xlink:href="#DejaVuSans-Bold-45"/>
      <use xlink:href="#DejaVuSans-Bold-6d" transform="translate(68.310547 0)"/>
      <use xlink:href="#DejaVuSans-Bold-70" transform="translate(172.509766 0)"/>
      <use xlink:href="#DejaVuSans-Bold-6c" transform="translate(244.091797 0)"/>
      <use xlink:href="#DejaVuSans-Bold-6f" transform="translate(278.369141 0)"/>
      <use xlink:href="#DejaVuSans-Bold-79" transform="translate(347.070312 0)"/>
      <use xlink:href="#DejaVuSans-Bold-6d" transform="translate(412.255859 0)"/>
      <use xlink:href="#DejaVuSans-Bold-65" transform="translate(516.455078 0)"/>
      <use xlink:href="#DejaVuSans-Bold-6e" transform="translate(584.277344 0)"/>
      <use xlink:href="#DejaVuSans-Bold-74" transform="translate(655.46875 0)"/>
      <use xlink:href="#DejaVuSans-Bold-20" transform="translate(703.271484 0)"/>
      <use xlink:href="#DejaVuSans-Bold-28" transform="translate(738.085938 0)"/>
      <use xlink:href="#DejaVuSans-Bold-68" transform="translate(783.789062 0)"/>
      <use xlink:href="#DejaVuSans-Bold-65" transform="translate(854.980469 0)"/>
      <use xlink:href="#DejaVuSans-Bold-61" transform="translate(922.802734 0)"/>
      <use xlink:href="#DejaVuSans-Bold-64" transform="translate(990.283203 0)"/>
      <use xlink:href="#DejaVuSans-Bold-63" transform="translate(1061.865234 0)"/>
      <use xlink:href="#DejaVuSans-Bold-6f" transform="translate(1121.142578 0)"/>
      <use xlink:href="#DejaVuSans-Bold-75" transform="translate(1189.84375 0)"/>
      <use xlink:href="#DejaVuSans-Bold-6e" transform="translate(1261.035156 0)"/>
      <use xlink:href="#DejaVuSans-Bold-74" transform="translate(1332.226562 0)"/>
      <use xlink:href="#DejaVuSans-Bold-29" transform="translate(1380.029297 0)"/>
     </g>
    </g>
   </g>
   <g id="patch_51">
    <path d="M 155.011738 349.958276 
L 155.011738 29.837812 
" style="fill: none; stroke: #000000; stroke-width: 0.8; stroke-linejoin: miter; stroke-linecap: square"/>
   </g>
   <g id="patch_52">
    <path d="M 769.809469 349.958276 
L 769.809469 29.837812 
" style="fill: none; stroke: #000000; stroke-width: 0.8; stroke-linejoin: miter; stroke-linecap: square"/>
   </g>
   <g id="patch_53">
    <path d="M 155.011738 349.958276 
L 769.809469 349.958276 
" style="fill: none; stroke: #000000; stroke-width: 0.8; stroke-linejoin: miter; stroke-linecap: square"/>
   </g>
   <g id="patch_54">
    <path d="M 155.011738 29.837812 
L 769.809469 29.837812 
" style="fill: none; stroke: #000000; stroke-width: 0.8; stroke-linejoin: miter; stroke-linecap: square"/>
   </g>
   <g id="text_25">
    <!-- 350 -->
    <g transform="translate(218.146788 178.572643) scale(0.08 -0.08)">
     <use xlink:href="#DejaVuSans-33"/>
     <use xlink:href="#DejaVuSans-35" transform="translate(63.623047 0)"/>
     <use xlink:href="#DejaVuSans-30" transform="translate(127.246094 0)"/>
    </g>
   </g>
   <g id="text_26">
    <!-- 533 -->
    <g transform="translate(505.052396 89.768912) scale(0.08 -0.08)">
     <use xlink:href="#DejaVuSans-35"/>
     <use xlink:href="#DejaVuSans-33" transform="translate(63.623047 0)"/>
     <use xlink:href="#DejaVuSans-33" transform="translate(127.246094 0)"/>
    </g>
   </g>
   <g id="text_27">
    <!-- 334 -->
    <g transform="translate(668.998457 186.215587) scale(0.08 -0.08)">
     <use xlink:href="#DejaVuSans-33"/>
     <use xlink:href="#DejaVuSans-33" transform="translate(63.623047 0)"/>
     <use xlink:href="#DejaVuSans-34" transform="translate(127.246094 0)"/>
    </g>
   </g>
   <g id="text_28">
    <!-- 345 -->
    <g transform="translate(229.349769 180.756341) scale(0.08 -0.08)">
     <use xlink:href="#DejaVuSans-33"/>
     <use xlink:href="#DejaVuSans-34" transform="translate(63.623047 0)"/>
     <use xlink:href="#DejaVuSans-35" transform="translate(127.246094 0)"/>
    </g>
   </g>
   <g id="text_29">
    <!-- 589 -->
    <g transform="translate(516.255377 62.472684) scale(0.08 -0.08)">
     <defs>
      <path id="DejaVuSans-38" d="M 2034 2216 
Q 1584 2216 1326 1975 
Q 1069 1734 1069 1313 
Q 1069 891 1326 650 
Q 1584 409 2034 409 
Q 2484 409 2743 651 
Q 3003 894 3003 1313 
Q 3003 1734 2745 1975 
Q 2488 2216 2034 2216 
z
M 1403 2484 
Q 997 2584 770 2862 
Q 544 3141 544 3541 
Q 544 4100 942 4425 
Q 1341 4750 2034 4750 
Q 2731 4750 3128 4425 
Q 3525 4100 3525 3541 
Q 3525 3141 3298 2862 
Q 3072 2584 2669 2484 
Q 3125 2378 3379 2068 
Q 3634 1759 3634 1313 
Q 3634 634 3220 271 
Q 2806 -91 2034 -91 
Q 1263 -91 848 271 
Q 434 634 434 1313 
Q 434 1759 690 2068 
Q 947 2378 1403 2484 
z
M 1172 3481 
Q 1172 3119 1398 2916 
Q 1625 2713 2034 2713 
Q 2441 2713 2670 2916 
Q 2900 3119 2900 3481 
Q 2900 3844 2670 4047 
Q 2441 4250 2034 4250 
Q 1625 4250 1398 4047 
Q 1172 3844 1172 3481 
z
" transform="scale(0.015625)"/>
      <path id="DejaVuSans-39" d="M 703 97 
L 703 672 
Q 941 559 1184 500 
Q 1428 441 1663 441 
Q 2288 441 2617 861 
Q 2947 1281 2994 2138 
Q 2813 1869 2534 1725 
Q 2256 1581 1919 1581 
Q 1219 1581 811 2004 
Q 403 2428 403 3163 
Q 403 3881 828 4315 
Q 1253 4750 1959 4750 
Q 2769 4750 3195 4129 
Q 3622 3509 3622 2328 
Q 3622 1225 3098 567 
Q 2575 -91 1691 -91 
Q 1453 -91 1209 -44 
Q 966 3 703 97 
z
M 1959 2075 
Q 2384 2075 2632 2365 
Q 2881 2656 2881 3163 
Q 2881 3666 2632 3958 
Q 2384 4250 1959 4250 
Q 1534 4250 1286 3958 
Q 1038 3666 1038 3163 
Q 1038 2656 1286 2365 
Q 1534 2075 1959 2075 
z
" transform="scale(0.015625)"/>
     </defs>
     <use xlink:href="#DejaVuSans-35"/>
     <use xlink:href="#DejaVuSans-38" transform="translate(63.623047 0)"/>
     <use xlink:href="#DejaVuSans-39" transform="translate(127.246094 0)"/>
    </g>
   </g>
   <g id="text_30">
    <!-- 367 -->
    <g transform="translate(680.201438 170.201799) scale(0.08 -0.08)">
     <defs>
      <path id="DejaVuSans-37" d="M 525 4666 
L 3525 4666 
L 3525 4397 
L 1831 0 
L 1172 0 
L 2766 4134 
L 525 4134 
L 525 4666 
z
" transform="scale(0.015625)"/>
     </defs>
     <use xlink:href="#DejaVuSans-33"/>
     <use xlink:href="#DejaVuSans-36" transform="translate(63.623047 0)"/>
     <use xlink:href="#DejaVuSans-37" transform="translate(127.246094 0)"/>
    </g>
   </g>
   <g id="text_31">
    <!-- 292 -->
    <g transform="translate(240.552749 206.596771) scale(0.08 -0.08)">
     <use xlink:href="#DejaVuSans-32"/>
     <use xlink:href="#DejaVuSans-39" transform="translate(63.623047 0)"/>
     <use xlink:href="#DejaVuSans-32" transform="translate(127.246094 0)"/>
    </g>
   </g>
   <g id="text_32">
    <!-- 569 -->
    <g transform="translate(527.458357 72.056693) scale(0.08 -0.08)">
     <use xlink:href="#DejaVuSans-35"/>
     <use xlink:href="#DejaVuSans-36" transform="translate(63.623047 0)"/>
     <use xlink:href="#DejaVuSans-39" transform="translate(127.246094 0)"/>
    </g>
   </g>
   <g id="text_33">
    <!-- 406 -->
    <g transform="translate(691.404419 151.397731) scale(0.08 -0.08)">
     <use xlink:href="#DejaVuSans-34"/>
     <use xlink:href="#DejaVuSans-30" transform="translate(63.623047 0)"/>
     <use xlink:href="#DejaVuSans-36" transform="translate(127.246094 0)"/>
    </g>
   </g>
   <g id="text_34">
    <!-- Employment by Sector (annual average, 20122024) -->
    <g transform="translate(255.590135 17.837812) scale(0.14 -0.14)">
     <defs>
      <path id="DejaVuSans-Bold-62" d="M 2400 722 
Q 2759 722 2948 984 
Q 3138 1247 3138 1747 
Q 3138 2247 2948 2509 
Q 2759 2772 2400 2772 
Q 2041 2772 1848 2508 
Q 1656 2244 1656 1747 
Q 1656 1250 1848 986 
Q 2041 722 2400 722 
z
M 1656 2988 
Q 1888 3294 2169 3439 
Q 2450 3584 2816 3584 
Q 3463 3584 3878 3070 
Q 4294 2556 4294 1747 
Q 4294 938 3878 423 
Q 3463 -91 2816 -91 
Q 2450 -91 2169 54 
Q 1888 200 1656 506 
L 1656 0 
L 538 0 
L 538 4863 
L 1656 4863 
L 1656 2988 
z
" transform="scale(0.015625)"/>
      <path id="DejaVuSans-Bold-53" d="M 3834 4519 
L 3834 3531 
Q 3450 3703 3084 3790 
Q 2719 3878 2394 3878 
Q 1963 3878 1756 3759 
Q 1550 3641 1550 3391 
Q 1550 3203 1689 3098 
Q 1828 2994 2194 2919 
L 2706 2816 
Q 3484 2659 3812 2340 
Q 4141 2022 4141 1434 
Q 4141 663 3683 286 
Q 3225 -91 2284 -91 
Q 1841 -91 1394 -6 
Q 947 78 500 244 
L 500 1259 
Q 947 1022 1364 901 
Q 1781 781 2169 781 
Q 2563 781 2772 912 
Q 2981 1044 2981 1288 
Q 2981 1506 2839 1625 
Q 2697 1744 2272 1838 
L 1806 1941 
Q 1106 2091 782 2419 
Q 459 2747 459 3303 
Q 459 4000 909 4375 
Q 1359 4750 2203 4750 
Q 2588 4750 2994 4692 
Q 3400 4634 3834 4519 
z
" transform="scale(0.015625)"/>
      <path id="DejaVuSans-Bold-72" d="M 3138 2547 
Q 2991 2616 2845 2648 
Q 2700 2681 2553 2681 
Q 2122 2681 1889 2404 
Q 1656 2128 1656 1613 
L 1656 0 
L 538 0 
L 538 3500 
L 1656 3500 
L 1656 2925 
Q 1872 3269 2151 3426 
Q 2431 3584 2822 3584 
Q 2878 3584 2943 3579 
Q 3009 3575 3134 3559 
L 3138 2547 
z
" transform="scale(0.015625)"/>
      <path id="DejaVuSans-Bold-76" d="M 97 3500 
L 1216 3500 
L 2088 1081 
L 2956 3500 
L 4078 3500 
L 2700 0 
L 1472 0 
L 97 3500 
z
" transform="scale(0.015625)"/>
      <path id="DejaVuSans-Bold-67" d="M 2919 594 
Q 2688 288 2409 144 
Q 2131 0 1766 0 
Q 1125 0 706 504 
Q 288 1009 288 1791 
Q 288 2575 706 3076 
Q 1125 3578 1766 3578 
Q 2131 3578 2409 3434 
Q 2688 3291 2919 2981 
L 2919 3500 
L 4044 3500 
L 4044 353 
Q 4044 -491 3511 -936 
Q 2978 -1381 1966 -1381 
Q 1638 -1381 1331 -1331 
Q 1025 -1281 716 -1178 
L 716 -306 
Q 1009 -475 1290 -558 
Q 1572 -641 1856 -641 
Q 2406 -641 2662 -400 
Q 2919 -159 2919 353 
L 2919 594 
z
M 2181 2772 
Q 1834 2772 1640 2515 
Q 1447 2259 1447 1791 
Q 1447 1309 1634 1061 
Q 1822 813 2181 813 
Q 2531 813 2725 1069 
Q 2919 1325 2919 1791 
Q 2919 2259 2725 2515 
Q 2531 2772 2181 2772 
z
" transform="scale(0.015625)"/>
      <path id="DejaVuSans-Bold-2c" d="M 653 1209 
L 1778 1209 
L 1778 256 
L 1006 -909 
L 341 -909 
L 653 256 
L 653 1209 
z
" transform="scale(0.015625)"/>
      <path id="DejaVuSans-Bold-32" d="M 1844 884 
L 3897 884 
L 3897 0 
L 506 0 
L 506 884 
L 2209 2388 
Q 2438 2594 2547 2791 
Q 2656 2988 2656 3200 
Q 2656 3528 2436 3728 
Q 2216 3928 1850 3928 
Q 1569 3928 1234 3808 
Q 900 3688 519 3450 
L 519 4475 
Q 925 4609 1322 4679 
Q 1719 4750 2100 4750 
Q 2938 4750 3402 4381 
Q 3866 4013 3866 3353 
Q 3866 2972 3669 2642 
Q 3472 2313 2841 1759 
L 1844 884 
z
" transform="scale(0.015625)"/>
      <path id="DejaVuSans-Bold-30" d="M 2944 2338 
Q 2944 3213 2780 3570 
Q 2616 3928 2228 3928 
Q 1841 3928 1675 3570 
Q 1509 3213 1509 2338 
Q 1509 1453 1675 1090 
Q 1841 728 2228 728 
Q 2613 728 2778 1090 
Q 2944 1453 2944 2338 
z
M 4147 2328 
Q 4147 1169 3647 539 
Q 3147 -91 2228 -91 
Q 1306 -91 806 539 
Q 306 1169 306 2328 
Q 306 3491 806 4120 
Q 1306 4750 2228 4750 
Q 3147 4750 3647 4120 
Q 4147 3491 4147 2328 
z
" transform="scale(0.015625)"/>
      <path id="DejaVuSans-Bold-31" d="M 750 831 
L 1813 831 
L 1813 3847 
L 722 3622 
L 722 4441 
L 1806 4666 
L 2950 4666 
L 2950 831 
L 4013 831 
L 4013 0 
L 750 0 
L 750 831 
z
" transform="scale(0.015625)"/>
      <path id="DejaVuSans-Bold-2013" d="M 344 2156 
L 2856 2156 
L 2856 1350 
L 344 1350 
L 344 2156 
z
" transform="scale(0.015625)"/>
      <path id="DejaVuSans-Bold-34" d="M 2356 3675 
L 1038 1722 
L 2356 1722 
L 2356 3675 
z
M 2156 4666 
L 3494 4666 
L 3494 1722 
L 4159 1722 
L 4159 850 
L 3494 850 
L 3494 0 
L 2356 0 
L 2356 850 
L 288 850 
L 288 1881 
L 2156 4666 
z
" transform="scale(0.015625)"/>
     </defs>
     <use xlink:href="#DejaVuSans-Bold-45"/>
     <use xlink:href="#DejaVuSans-Bold-6d" transform="translate(68.310547 0)"/>
     <use xlink:href="#DejaVuSans-Bold-70" transform="translate(172.509766 0)"/>
     <use xlink:href="#DejaVuSans-Bold-6c" transform="translate(244.091797 0)"/>
     <use xlink:href="#DejaVuSans-Bold-6f" transform="translate(278.369141 0)"/>
     <use xlink:href="#DejaVuSans-Bold-79" transform="translate(347.070312 0)"/>
     <use xlink:href="#DejaVuSans-Bold-6d" transform="translate(412.255859 0)"/>
     <use xlink:href="#DejaVuSans-Bold-65" transform="translate(516.455078 0)"/>
     <use xlink:href="#DejaVuSans-Bold-6e" transform="translate(584.277344 0)"/>
     <use xlink:href="#DejaVuSans-Bold-74" transform="translate(655.46875 0)"/>
     <use xlink:href="#DejaVuSans-Bold-20" transform="translate(703.271484 0)"/>
     <use xlink:href="#DejaVuSans-Bold-62" transform="translate(738.085938 0)"/>
     <use xlink:href="#DejaVuSans-Bold-79" transform="translate(809.667969 0)"/>
     <use xlink:href="#DejaVuSans-Bold-20" transform="translate(874.853516 0)"/>
     <use xlink:href="#DejaVuSans-Bold-53" transform="translate(909.667969 0)"/>
     <use xlink:href="#DejaVuSans-Bold-65" transform="translate(981.689453 0)"/>
     <use xlink:href="#DejaVuSans-Bold-63" transform="translate(1049.511719 0)"/>
     <use xlink:href="#DejaVuSans-Bold-74" transform="translate(1108.789062 0)"/>
     <use xlink:href="#DejaVuSans-Bold-6f" transform="translate(1156.591797 0)"/>
     <use xlink:href="#DejaVuSans-Bold-72" transform="translate(1225.292969 0)"/>
     <use xlink:href="#DejaVuSans-Bold-20" transform="translate(1274.609375 0)"/>
     <use xlink:href="#DejaVuSans-Bold-28" transform="translate(1309.423828 0)"/>
     <use xlink:href="#DejaVuSans-Bold-61" transform="translate(1355.126953 0)"/>
     <use xlink:href="#DejaVuSans-Bold-6e" transform="translate(1422.607422 0)"/>
     <use xlink:href="#DejaVuSans-Bold-6e" transform="translate(1493.798828 0)"/>
     <use xlink:href="#DejaVuSans-Bold-75" transform="translate(1564.990234 0)"/>
     <use xlink:href="#DejaVuSans-Bold-61" transform="translate(1636.181641 0)"/>
     <use xlink:href="#DejaVuSans-Bold-6c" transform="translate(1703.662109 0)"/>
     <use xlink:href="#DejaVuSans-Bold-20" transform="translate(1737.939453 0)"/>
     <use xlink:href="#DejaVuSans-Bold-61" transform="translate(1772.753906 0)"/>
     <use xlink:href="#DejaVuSans-Bold-76" transform="translate(1840.234375 0)"/>
     <use xlink:href="#DejaVuSans-Bold-65" transform="translate(1905.419922 0)"/>
     <use xlink:href="#DejaVuSans-Bold-72" transform="translate(1973.242188 0)"/>
     <use xlink:href="#DejaVuSans-Bold-61" transform="translate(2022.558594 0)"/>
     <use xlink:href="#DejaVuSans-Bold-67" transform="translate(2090.039062 0)"/>
     <use xlink:href="#DejaVuSans-Bold-65" transform="translate(2161.621094 0)"/>
     <use xlink:href="#DejaVuSans-Bold-2c" transform="translate(2229.443359 0)"/>
     <use xlink:href="#DejaVuSans-Bold-20" transform="translate(2267.431641 0)"/>
     <use xlink:href="#DejaVuSans-Bold-32" transform="translate(2302.246094 0)"/>
     <use xlink:href="#DejaVuSans-Bold-30" transform="translate(2371.826172 0)"/>
     <use xlink:href="#DejaVuSans-Bold-31" transform="translate(2441.40625 0)"/>
     <use xlink:href="#DejaVuSans-Bold-32" transform="translate(2510.986328 0)"/>
     <use xlink:href="#DejaVuSans-Bold-2013" transform="translate(2580.566406 0)"/>
     <use xlink:href="#DejaVuSans-Bold-32" transform="translate(2630.566406 0)"/>
     <use xlink:href="#DejaVuSans-Bold-30" transform="translate(2700.146484 0)"/>
     <use xlink:href="#DejaVuSans-Bold-32" transform="translate(2769.726562 0)"/>
     <use xlink:href="#DejaVuSans-Bold-34" transform="translate(2839.306641 0)"/>
     <use xlink:href="#DejaVuSans-Bold-29" transform="translate(2908.886719 0)"/>
    </g>
   </g>
   <g id="legend_1">
    <g id="text_35">
     <!-- Year -->
     <g transform="translate(807.242924 46.43625) scale(0.1 -0.1)">
      <defs>
       <path id="DejaVuSans-59" d="M -13 4666 
L 666 4666 
L 1959 2747 
L 3244 4666 
L 3922 4666 
L 2272 2222 
L 2272 0 
L 1638 0 
L 1638 2222 
L -13 4666 
z
" transform="scale(0.015625)"/>
      </defs>
      <use xlink:href="#DejaVuSans-59"/>
      <use xlink:href="#DejaVuSans-65" transform="translate(47.833984 0)"/>
      <use xlink:href="#DejaVuSans-61" transform="translate(109.357422 0)"/>
      <use xlink:href="#DejaVuSans-72" transform="translate(170.636719 0)"/>
     </g>
    </g>
    <g id="patch_55">
     <path d="M 791.105424 61.114375 
L 811.105424 61.114375 
L 811.105424 54.114375 
L 791.105424 54.114375 
z
" style="fill: #1f77b4; stroke: #333333; stroke-width: 0.6; stroke-linejoin: miter"/>
    </g>
    <g id="text_36">
     <!-- 2012 -->
     <g transform="translate(819.105424 61.114375) scale(0.1 -0.1)">
      <use xlink:href="#DejaVuSans-32"/>
      <use xlink:href="#DejaVuSans-30" transform="translate(63.623047 0)"/>
      <use xlink:href="#DejaVuSans-31" transform="translate(127.246094 0)"/>
      <use xlink:href="#DejaVuSans-32" transform="translate(190.869141 0)"/>
     </g>
    </g>
    <g id="patch_56">
     <path d="M 791.105424 75.7925 
L 811.105424 75.7925 
L 811.105424 68.7925 
L 791.105424 68.7925 
z
" style="fill: #ff7f0e; stroke: #333333; stroke-width: 0.6; stroke-linejoin: miter"/>
    </g>
    <g id="text_37">
     <!-- 2018 -->
     <g transform="translate(819.105424 75.7925) scale(0.1 -0.1)">
      <use xlink:href="#DejaVuSans-32"/>
      <use xlink:href="#DejaVuSans-30" transform="translate(63.623047 0)"/>
      <use xlink:href="#DejaVuSans-31" transform="translate(127.246094 0)"/>
      <use xlink:href="#DejaVuSans-38" transform="translate(190.869141 0)"/>
     </g>
    </g>
    <g id="patch_57">
     <path d="M 791.105424 90.470625 
L 811.105424 90.470625 
L 811.105424 83.470625 
L 791.105424 83.470625 
z
" style="fill: #2ca02c; stroke: #333333; stroke-width: 0.6; stroke-linejoin: miter"/>
    </g>
    <g id="text_38">
     <!-- 2024 -->
     <g transform="translate(819.105424 90.470625) scale(0.1 -0.1)">
      <use xlink:href="#DejaVuSans-32"/>
      <use xlink:href="#DejaVuSans-30" transform="translate(63.623047 0)"/>
      <use xlink:href="#DejaVuSans-32" transform="translate(127.246094 0)"/>
      <use xlink:href="#DejaVuSans-34" transform="translate(190.869141 0)"/>
     </g>
    </g>
   </g>
  </g>
 </g>
 <defs>
  <clipPath id="pbd1295f984">
   <rect x="155.011738" y="29.837812" width="614.797731" height="320.120464"/>
  </clipPath>
 </defs>
</svg>
